{
.appVersion = "1230";
DisplayStrings = (
sSCHLAGG,
"12",
VY,
cef
);
copyright = "Émilie Aurat, Alexandre Bassi";
customParameters = (
{
name = Axes;
value = (
{
Name = "Optical size";
Tag = opsz;
},
{
Name = Weight;
Tag = wght;
}
);
}
);
date = "2019-10-07 14:12:42 +0000";
designer = "Émilie Aurat, Alexandre Bassi";
familyName = Carthage;
fontMaster = (
{
alignmentZones = (
"{720, 12}",
"{700, 12}",
"{500, 12}",
"{0, -12}",
"{-200, -12}"
);
ascender = 720;
capHeight = 700;
custom = Display;
descender = -190;
id = "15398AEC-D437-4D9F-8CD1-FC2630A97B3B";
widthValue = 0;
xHeight = 500;
},
{
alignmentZones = (
"{720, 12}",
"{700, 12}",
"{500, 12}",
"{0, -12}",
"{-200, -12}"
);
ascender = 720;
capHeight = 700;
custom = Text;
descender = -190;
id = "263FFEFB-F93F-4256-96DD-DB57701D3362";
weightValue = 0;
widthValue = 0;
xHeight = 500;
},
{
alignmentZones = (
"{720, 12}",
"{700, 12}",
"{500, 12}",
"{0, -12}",
"{-200, -12}"
);
ascender = 720;
capHeight = 700;
custom = "Mega display";
descender = -190;
id = "49567DAC-64C1-4764-83F5-5952E919F015";
weightValue = 0;
xHeight = 500;
}
);
glyphs = (
{
glyphname = A;
lastChange = "2019-10-09 20:16:09 +0000";
layers = (
{
layerId = "15398AEC-D437-4D9F-8CD1-FC2630A97B3B";
width = 600;
},
{
anchors = (
{
name = bottom;
position = "{326, 0}";
},
{
name = ogonek;
position = "{586, 10}";
},
{
name = top;
position = "{317, 700}";
}
);
layerId = "263FFEFB-F93F-4256-96DD-DB57701D3362";
paths = (
{
closed = 1;
nodes = (
"227 15 LINE",
"123 15 OFFCURVE",
"126 65 OFFCURVE",
"163 173 CURVE SMOOTH",
"330 658 LINE",
"279 564 LINE",
"426 132 LINE SMOOTH",
"455 48 OFFCURVE",
"449 15 OFFCURVE",
"356 15 CURVE",
"356 0 LINE",
"637 0 LINE",
"637 15 LINE",
"598 15 OFFCURVE",
"558 29 OFFCURVE",
"523 130 CURVE SMOOTH",
"321 710 LINE",
"315 710 LINE",
"111 140 LINE SMOOTH",
"78 49 OFFCURVE",
"55 15 OFFCURVE",
"6 15 CURVE",
"6 0 LINE",
"227 0 LINE"
);
},
{
closed = 1;
nodes = (
"162 238 LINE",
"459 238 LINE",
"461 274 LINE",
"164 274 LINE"
);
}
);
width = 643;
},
{
anchors = (
{
name = bottom;
position = "{326, 0}";
},
{
name = ogonek;
position = "{586, 10}";
},
{
name = top;
position = "{317, 700}";
}
);
associatedMasterId = "49567DAC-64C1-4764-83F5-5952E919F015";
guideLines = (
{
angle = -68.3972;
position = "{357, 206}";
}
);
layerId = "39771A04-851D-4FC5-BAB1-C2462C8D6E05";
name = "Oct 9 19, 20:56";
paths = (
{
closed = 1;
nodes = (
"132 248 LINE",
"449 248 LINE",
"481 260 LINE",
"162 260 LINE"
);
},
{
closed = 1;
nodes = (
"221 -5 LINE",
"128 -5 OFFCURVE",
"66 79 OFFCURVE",
"124 230 CURVE SMOOTH",
"284 648 LINE",
"231 500 LINE",
"346 196 LINE SMOOTH",
"390 79 OFFCURVE",
"404 -5 OFFCURVE",
"290 -5 CURVE",
"290 -10 LINE",
"701 -10 LINE",
"701 -5 LINE",
"635 -5 OFFCURVE",
"596 24 OFFCURVE",
"538 158 CURVE SMOOTH",
"301 700 LINE",
"295 700 LINE",
"113 235 LINE SMOOTH",
"45 62 OFFCURVE",
"1 -5 OFFCURVE",
"-90 -5 CURVE",
"-90 -10 LINE",
"221 -10 LINE"
);
}
);
width = 651;
},
{
anchors = (
{
name = bottom;
position = "{412, 0}";
},
{
name = ogonek;
position = "{672, 10}";
},
{
name = top;
position = "{403, 700}";
}
);
guideLines = (
{
angle = -68.3972;
position = "{443, 206}";
}
);
layerId = "49567DAC-64C1-4764-83F5-5952E919F015";
paths = (
{
closed = 1;
nodes = (
"313 5 LINE",
"220 5 OFFCURVE",
"154 90 OFFCURVE",
"216 240 CURVE SMOOTH",
"390 658 LINE",
"322 510 LINE",
"443 206 LINE SMOOTH",
"489 90 OFFCURVE",
"496 5 OFFCURVE",
"382 5 CURVE",
"382 0 LINE",
"793 0 LINE",
"793 5 LINE",
"727 5 OFFCURVE",
"686 33 OFFCURVE",
"630 168 CURVE SMOOTH",
"407 710 LINE",
"401 710 LINE",
"205 245 LINE SMOOTH",
"133 73 OFFCURVE",
"93 5 OFFCURVE",
"2 5 CURVE",
"2 0 LINE",
"313 0 LINE"
);
},
{
closed = 1;
nodes = (
"218 248 LINE",
"535 248 LINE",
"537 260 LINE",
"218 260 LINE"
);
}
);
width = 795;
}
);
leftKerningGroup = A;
rightKerningGroup = A;
unicode = 0041;
},
{
color = 0;
glyphname = B;
lastChange = "2019-10-09 20:14:28 +0000";
layers = (
{
layerId = "15398AEC-D437-4D9F-8CD1-FC2630A97B3B";
width = 600;
},
{
components = (
{
name = Serif_cap;
transform = "{1, 0, 0, 1, -35, 0}";
},
{
name = Serif_cap;
transform = "{1, 0, 0, -1, -35, 700}";
}
);
layerId = "263FFEFB-F93F-4256-96DD-DB57701D3362";
paths = (
{
closed = 1;
nodes = (
"125 0 LINE",
"219 0 LINE",
"219 700 LINE",
"125 700 LINE"
);
},
{
closed = 1;
nodes = (
"442 665 OFFCURVE",
"487 594 OFFCURVE",
"506 506 CURVE",
"519 507 LINE",
"504 700 LINE",
"218 700 LINE",
"218 665 LINE",
"324 665 LINE SMOOTH"
);
},
{
closed = 1;
nodes = (
"218 36 LINE",
"218 0 LINE",
"517 0 LINE",
"542 223 LINE",
"529 224 LINE",
"500 108 OFFCURVE",
"455 36 OFFCURVE",
"337 36 CURVE SMOOTH"
);
},
{
closed = 1;
nodes = (
"411 430 OFFCURVE",
"385 378 OFFCURVE",
"304 378 CURVE SMOOTH",
"168 378 LINE",
"166 342 LINE",
"304 342 LINE SMOOTH",
"385 342 OFFCURVE",
"411 290 OFFCURVE",
"411 232 CURVE",
"426 232 LINE",
"426 488 LINE",
"411 488 LINE"
);
}
);
width = 608;
},
{
components = (
{
name = Serif_cap;
transform = "{1, 0, 0, 1, -35, 0}";
},
{
name = Serif_cap;
transform = "{1, 0, 0, -1, -35, 700}";
}
);
layerId = "49567DAC-64C1-4764-83F5-5952E919F015";
paths = (
{
closed = 1;
nodes = (
"125 0 LINE",
"219 0 LINE",
"219 700 LINE",
"125 700 LINE"
);
},
{
closed = 1;
nodes = (
"442 665 OFFCURVE",
"487 594 OFFCURVE",
"506 506 CURVE",
"519 507 LINE",
"504 700 LINE",
"218 700 LINE",
"218 665 LINE",
"324 665 LINE SMOOTH"
);
},
{
closed = 1;
nodes = (
"218 36 LINE",
"218 0 LINE",
"517 0 LINE",
"542 223 LINE",
"529 224 LINE",
"500 108 OFFCURVE",
"455 36 OFFCURVE",
"337 36 CURVE SMOOTH"
);
},
{
closed = 1;
nodes = (
"411 430 OFFCURVE",
"385 378 OFFCURVE",
"304 378 CURVE SMOOTH",
"168 378 LINE",
"166 342 LINE",
"304 342 LINE SMOOTH",
"385 342 OFFCURVE",
"411 290 OFFCURVE",
"411 232 CURVE",
"426 232 LINE",
"426 488 LINE",
"411 488 LINE"
);
}
);
width = 608;
}
);
unicode = 0042;
},
{
glyphname = C;
lastChange = "2019-10-09 15:28:53 +0000";
layers = (
{
layerId = "15398AEC-D437-4D9F-8CD1-FC2630A97B3B";
width = 600;
},
{
background = {
paths = (
{
closed = 1;
nodes = (
"451 -8 OFFCURVE",
"530 23 OFFCURVE",
"609 81 CURVE",
"610 86 LINE",
"596 101 OFFCURVE",
"592 119 OFFCURVE",
"592 140 CURVE",
"592 317 LINE",
"500 317 LINE",
"500 54 LINE",
"538 90 LINE",
"482 54 OFFCURVE",
"419 34 OFFCURVE",
"362 34 CURVE SMOOTH",
"246 34 OFFCURVE",
"134 131 OFFCURVE",
"134 352 CURVE SMOOTH",
"134 567 OFFCURVE",
"233 670 OFFCURVE",
"360 670 CURVE SMOOTH",
"501 670 OFFCURVE",
"557 547 OFFCURVE",
"530 424 CURVE",
"545 419 LINE",
"601 622 LINE",
"540 671 OFFCURVE",
"459 712 OFFCURVE",
"356 712 CURVE SMOOTH",
"173 712 OFFCURVE",
"34 584 OFFCURVE",
"34 352 CURVE SMOOTH",
"34 114 OFFCURVE",
"176 -8 OFFCURVE",
"363 -8 CURVE SMOOTH"
);
},
{
closed = 1;
nodes = (
"592 214 LINE",
"592 277 OFFCURVE",
"610 301 OFFCURVE",
"663 301 CURVE",
"663 317 LINE",
"569 317 LINE",
"569 214 LINE"
);
}
);
};
guideLines = (
{
angle = 107.8787;
position = "{690, 82}";
}
);
layerId = "263FFEFB-F93F-4256-96DD-DB57701D3362";
paths = (
{
closed = 1;
nodes = (
"454 -8 OFFCURVE",
"533 23 OFFCURVE",
"600 76 CURVE",
"584 298 LINE",
"568 297 LINE",
"567 141 OFFCURVE",
"486 34 OFFCURVE",
"365 34 CURVE SMOOTH",
"252 34 OFFCURVE",
"144 131 OFFCURVE",
"144 352 CURVE SMOOTH",
"144 567 OFFCURVE",
"239 670 OFFCURVE",
"354 670 CURVE SMOOTH",
"483 670 OFFCURVE",
"545 542 OFFCURVE",
"515 409 CURVE",
"530 404 LINE",
"601 622 LINE",
"540 671 OFFCURVE",
"458 712 OFFCURVE",
"357 712 CURVE SMOOTH",
"179 712 OFFCURVE",
"44 584 OFFCURVE",
"44 352 CURVE SMOOTH",
"44 114 OFFCURVE",
"182 -8 OFFCURVE",
"363 -8 CURVE SMOOTH"
);
}
);
width = 641;
},
{
background = {
paths = (
{
closed = 1;
nodes = (
"527 712 OFFCURVE",
"662 585 OFFCURVE",
"662 350 CURVE SMOOTH",
"662 115 OFFCURVE",
"527 -11 OFFCURVE",
"353 -11 CURVE SMOOTH",
"179 -11 OFFCURVE",
"44 116 OFFCURVE",
"44 350 CURVE SMOOTH",
"44 584 OFFCURVE",
"179 712 OFFCURVE",
"353 712 CURVE SMOOTH"
);
},
{
closed = 1;
nodes = (
"471 31 OFFCURVE",
"562 134 OFFCURVE",
"562 350 CURVE SMOOTH",
"562 566 OFFCURVE",
"471 670 OFFCURVE",
"353 670 CURVE SMOOTH",
"235 670 OFFCURVE",
"144 567 OFFCURVE",
"144 352 CURVE SMOOTH",
"144 135 OFFCURVE",
"235 31 OFFCURVE",
"353 31 CURVE SMOOTH"
);
}
);
};
guideLines = (
{
angle = 107.8787;
position = "{690, 82}";
}
);
layerId = "49567DAC-64C1-4764-83F5-5952E919F015";
paths = (
{
closed = 1;
nodes = (
"454 -8 OFFCURVE",
"557 23 OFFCURVE",
"600 62 CURVE",
"584 328 LINE",
"578 328 LINE",
"577 243 OFFCURVE",
"507 4 OFFCURVE",
"363 4 CURVE SMOOTH",
"267 4 OFFCURVE",
"164 110 OFFCURVE",
"164 352 CURVE SMOOTH",
"164 587 OFFCURVE",
"249 700 OFFCURVE",
"359 700 CURVE SMOOTH",
"481 700 OFFCURVE",
"557 555 OFFCURVE",
"525 406 CURVE",
"530 404 LINE",
"601 642 LINE",
"540 685 OFFCURVE",
"458 712 OFFCURVE",
"357 712 CURVE SMOOTH",
"145 712 OFFCURVE",
"-16 584 OFFCURVE",
"-16 352 CURVE SMOOTH",
"-16 114 OFFCURVE",
"148 -8 OFFCURVE",
"352 -8 CURVE SMOOTH"
);
}
);
width = 614;
}
);
unicode = 0043;
},
{
color = 4;
glyphname = D;
lastChange = "2019-10-09 20:14:58 +0000";
layers = (
{
layerId = "15398AEC-D437-4D9F-8CD1-FC2630A97B3B";
width = 600;
},
{
background = {
paths = (
{
closed = 1;
nodes = (
"355 700 LINE",
"529 700 OFFCURVE",
"664 577 OFFCURVE",
"664 350 CURVE SMOOTH",
"664 122 OFFCURVE",
"529 0 OFFCURVE",
"355 0 CURVE",
"355 36 LINE",
"473 36 OFFCURVE",
"564 137 OFFCURVE",
"564 350 CURVE SMOOTH",
"564 562 OFFCURVE",
"473 664 OFFCURVE",
"355 664 CURVE"
);
}
);
};
components = (
{
name = Serif_cap;
transform = "{1, 0, 0, 1, -35, 0}";
},
{
name = Serif_cap;
transform = "{1, 0, 0, -1, -35, 700}";
}
);
layerId = "263FFEFB-F93F-4256-96DD-DB57701D3362";
paths = (
{
closed = 1;
nodes = (
"519 0 OFFCURVE",
"654 122 OFFCURVE",
"654 350 CURVE SMOOTH",
"654 577 OFFCURVE",
"519 700 OFFCURVE",
"345 700 CURVE",
"345 664 LINE",
"463 664 OFFCURVE",
"554 562 OFFCURVE",
"554 350 CURVE SMOOTH",
"554 137 OFFCURVE",
"463 36 OFFCURVE",
"345 36 CURVE",
"345 0 LINE"
);
},
{
closed = 1;
nodes = (
"219 0 LINE",
"219 700 LINE",
"125 700 LINE",
"125 0 LINE"
);
},
{
closed = 1;
nodes = (
"355 664 LINE",
"355 700 LINE",
"209 700 LINE",
"215 664 LINE"
);
},
{
closed = 1;
nodes = (
"355 0 LINE",
"355 36 LINE",
"209 36 LINE",
"215 0 LINE"
);
}
);
width = 698;
},
{
background = {
paths = (
{
closed = 1;
nodes = (
"355 700 LINE",
"529 700 OFFCURVE",
"664 577 OFFCURVE",
"664 350 CURVE SMOOTH",
"664 122 OFFCURVE",
"529 0 OFFCURVE",
"355 0 CURVE",
"355 36 LINE",
"473 36 OFFCURVE",
"564 137 OFFCURVE",
"564 350 CURVE SMOOTH",
"564 562 OFFCURVE",
"473 664 OFFCURVE",
"355 664 CURVE"
);
}
);
};
components = (
{
name = Serif_cap;
transform = "{1, 0, 0, 1, -35, 0}";
},
{
name = Serif_cap;
transform = "{1, 0, 0, -1, -35, 700}";
}
);
layerId = "49567DAC-64C1-4764-83F5-5952E919F015";
paths = (
{
closed = 1;
nodes = (
"519 0 OFFCURVE",
"654 122 OFFCURVE",
"654 350 CURVE SMOOTH",
"654 577 OFFCURVE",
"519 700 OFFCURVE",
"345 700 CURVE",
"345 664 LINE",
"463 664 OFFCURVE",
"554 562 OFFCURVE",
"554 350 CURVE SMOOTH",
"554 137 OFFCURVE",
"463 36 OFFCURVE",
"345 36 CURVE",
"345 0 LINE"
);
},
{
closed = 1;
nodes = (
"219 0 LINE",
"219 700 LINE",
"125 700 LINE",
"125 0 LINE"
);
},
{
closed = 1;
nodes = (
"355 664 LINE",
"355 700 LINE",
"209 700 LINE",
"215 664 LINE"
);
},
{
closed = 1;
nodes = (
"355 0 LINE",
"355 36 LINE",
"209 36 LINE",
"215 0 LINE"
);
}
);
width = 698;
}
);
leftMetricsKey = I;
rightMetricsKey = O;
unicode = 0044;
},
{
color = 4;
glyphname = E;
lastChange = "2019-10-10 09:22:49 +0000";
layers = (
{
layerId = "15398AEC-D437-4D9F-8CD1-FC2630A97B3B";
width = 600;
},
{
anchors = (
{
name = bottom;
position = "{299, 0}";
},
{
name = ogonek;
position = "{537, 10}";
},
{
name = top;
position = "{305, 700}";
},
{
name = topleft;
position = "{20, 700}";
}
);
background = {
paths = (
{
closed = 1;
nodes = (
"345 340 LINE",
"408 340 OFFCURVE",
"432 300 OFFCURVE",
"432 239 CURVE",
"448 239 LINE",
"448 374 LINE",
"345 374 LINE"
);
},
{
closed = 1;
nodes = (
"448 340 LINE",
"448 475 LINE",
"432 475 LINE",
"432 414 OFFCURVE",
"408 374 OFFCURVE",
"345 374 CURVE",
"345 340 LINE"
);
}
);
};
components = (
{
name = Serif_cap;
transform = "{1, 0, 0, 1, -35, 0}";
},
{
name = Serif_cap;
transform = "{1, 0, 0, -1, -35, 700}";
}
);
layerId = "263FFEFB-F93F-4256-96DD-DB57701D3362";
paths = (
{
closed = 1;
nodes = (
"125 0 LINE",
"219 0 LINE",
"219 700 LINE",
"125 700 LINE"
);
},
{
closed = 1;
nodes = (
"441 665 OFFCURVE",
"486 594 OFFCURVE",
"505 506 CURVE",
"519 507 LINE",
"504 700 LINE",
"218 700 LINE",
"218 665 LINE",
"324 665 LINE SMOOTH"
);
},
{
closed = 1;
nodes = (
"218 36 LINE",
"218 0 LINE",
"517 0 LINE",
"542 223 LINE",
"528 224 LINE",
"499 108 OFFCURVE",
"454 36 OFFCURVE",
"337 36 CURVE SMOOTH"
);
},
{
closed = 1;
nodes = (
"411 430 OFFCURVE",
"385 378 OFFCURVE",
"304 378 CURVE SMOOTH",
"168 378 LINE",
"166 342 LINE",
"304 342 LINE SMOOTH",
"385 342 OFFCURVE",
"411 290 OFFCURVE",
"411 232 CURVE",
"426 232 LINE",
"426 488 LINE",
"411 488 LINE"
);
}
);
width = 597;
},
{
anchors = (
{
name = bottom;
position = "{366, 0}";
},
{
name = ogonek;
position = "{604, 10}";
},
{
name = top;
position = "{372, 700}";
},
{
name = topleft;
position = "{87, 700}";
}
);
background = {
paths = (
{
closed = 1;
nodes = (
"412 340 LINE",
"475 340 OFFCURVE",
"499 300 OFFCURVE",
"499 239 CURVE",
"515 239 LINE",
"515 374 LINE",
"412 374 LINE"
);
},
{
closed = 1;
nodes = (
"515 340 LINE",
"515 475 LINE",
"499 475 LINE",
"499 414 OFFCURVE",
"475 374 OFFCURVE",
"412 374 CURVE",
"412 340 LINE"
);
}
);
};
components = (
{
name = Serif_cap;
transform = "{1, 0, 0, 1, -19, 0}";
},
{
name = Serif_cap;
transform = "{1, 0, 0, -1, -18, 700}";
}
);
layerId = "49567DAC-64C1-4764-83F5-5952E919F015";
paths = (
{
closed = 1;
nodes = (
"142 0 LINE",
"306 0 LINE",
"306 700 LINE",
"142 700 LINE"
);
},
{
closed = 1;
nodes = (
"489 690 OFFCURVE",
"572 570 OFFCURVE",
"590 466 CURVE",
"596 467 LINE",
"571 700 LINE",
"305 700 LINE",
"305 690 LINE",
"309 690 LINE SMOOTH"
);
},
{
closed = 1;
nodes = (
"305 10 LINE",
"305 0 LINE",
"584 0 LINE",
"619 253 LINE",
"613 254 LINE",
"584 144 OFFCURVE",
"496 10 OFFCURVE",
"314 10 CURVE SMOOTH"
);
},
{
closed = 1;
nodes = (
"485 430 OFFCURVE",
"470 365 OFFCURVE",
"311 365 CURVE SMOOTH",
"225 365 LINE",
"183 355 LINE",
"311 355 LINE SMOOTH",
"470 355 OFFCURVE",
"485 290 OFFCURVE",
"488 202 CURVE",
"493 202 LINE",
"493 518 LINE",
"488 518 LINE"
);
}
);
width = 624;
}
);
leftMetricsKey = I;
unicode = 0045;
},
{
color = 4;
glyphname = F;
lastChange = "2019-10-10 09:22:30 +0000";
layers = (
{
layerId = "15398AEC-D437-4D9F-8CD1-FC2630A97B3B";
width = 600;
},
{
components = (
{
name = Serif_cap;
transform = "{1, 0, 0, 1, -35, 0}";
},
{
name = Serif_cap;
transform = "{1, 0, 0, -1, -35, 700}";
},
{
name = serif_cap_long;
transform = "{1, 0, 0, 1, 108, 0}";
}
);
layerId = "263FFEFB-F93F-4256-96DD-DB57701D3362";
paths = (
{
closed = 1;
nodes = (
"125 0 LINE",
"219 0 LINE",
"219 700 LINE",
"125 700 LINE"
);
},
{
closed = 1;
nodes = (
"434 666 OFFCURVE",
"479 595 OFFCURVE",
"498 506 CURVE",
"512 507 LINE",
"497 700 LINE",
"218 700 LINE",
"218 666 LINE",
"317 666 LINE SMOOTH"
);
},
{
closed = 1;
nodes = (
"411 410 OFFCURVE",
"385 358 OFFCURVE",
"304 358 CURVE SMOOTH",
"168 358 LINE",
"166 322 LINE",
"304 322 LINE SMOOTH",
"385 322 OFFCURVE",
"411 270 OFFCURVE",
"411 212 CURVE",
"426 212 LINE",
"426 468 LINE",
"411 468 LINE"
);
}
);
width = 532;
},
{
components = (
{
name = Serif_cap;
transform = "{1, 0, 0, 1, -35, 0}";
},
{
name = Serif_cap;
transform = "{1, 0, 0, -1, -35, 700}";
},
{
name = serif_cap_long;
transform = "{1, 0, 0, 1, 108, 0}";
}
);
layerId = "49567DAC-64C1-4764-83F5-5952E919F015";
paths = (
{
closed = 1;
nodes = (
"125 0 LINE",
"219 0 LINE",
"219 700 LINE",
"125 700 LINE"
);
},
{
closed = 1;
nodes = (
"435 666 OFFCURVE",
"480 595 OFFCURVE",
"499 506 CURVE",
"512 507 LINE",
"497 700 LINE",
"218 700 LINE",
"218 666 LINE",
"317 666 LINE SMOOTH"
);
},
{
closed = 1;
nodes = (
"411 410 OFFCURVE",
"385 358 OFFCURVE",
"304 358 CURVE SMOOTH",
"168 358 LINE",
"166 322 LINE",
"304 322 LINE SMOOTH",
"385 322 OFFCURVE",
"411 270 OFFCURVE",
"411 212 CURVE",
"426 212 LINE",
"426 468 LINE",
"411 468 LINE"
);
}
);
width = 532;
}
);
unicode = 0046;
},
{
color = 3;
glyphname = G;
lastChange = "2019-10-09 20:16:17 +0000";
layers = (
{
layerId = "15398AEC-D437-4D9F-8CD1-FC2630A97B3B";
width = 600;
},
{
background = {
paths = (
{
closed = 1;
nodes = (
"602 194 LINE",
"602 257 OFFCURVE",
"642 281 OFFCURVE",
"703 281 CURVE",
"703 297 LINE",
"579 297 LINE",
"579 194 LINE"
);
}
);
};
components = (
{
name = serif_cap_long;
transform = "{-1, 0, 0, -1, 620, 317}";
}
);
layerId = "263FFEFB-F93F-4256-96DD-DB57701D3362";
paths = (
{
closed = 1;
nodes = (
"461 -8 OFFCURVE",
"540 23 OFFCURVE",
"619 81 CURVE",
"620 86 LINE",
"606 101 OFFCURVE",
"602 119 OFFCURVE",
"602 140 CURVE",
"602 317 LINE",
"510 317 LINE",
"510 54 LINE",
"548 90 LINE",
"492 54 OFFCURVE",
"429 34 OFFCURVE",
"372 34 CURVE SMOOTH",
"256 34 OFFCURVE",
"144 131 OFFCURVE",
"144 352 CURVE SMOOTH",
"144 567 OFFCURVE",
"243 670 OFFCURVE",
"370 670 CURVE SMOOTH",
"511 670 OFFCURVE",
"567 547 OFFCURVE",
"540 434 CURVE",
"555 429 LINE",
"611 622 LINE",
"550 671 OFFCURVE",
"469 712 OFFCURVE",
"366 712 CURVE SMOOTH",
"183 712 OFFCURVE",
"44 584 OFFCURVE",
"44 352 CURVE SMOOTH",
"44 114 OFFCURVE",
"186 -8 OFFCURVE",
"373 -8 CURVE SMOOTH"
);
},
{
closed = 1;
nodes = (
"602 214 LINE",
"602 277 OFFCURVE",
"620 301 OFFCURVE",
"673 301 CURVE",
"673 317 LINE",
"579 317 LINE",
"579 214 LINE"
);
}
);
width = 707;
},
{
layerId = "49567DAC-64C1-4764-83F5-5952E919F015";
width = 608;
}
);
leftKerningGroup = O;
leftMetricsKey = O;
unicode = 0047;
},
{
color = 4;
glyphname = H;
lastChange = "2019-10-10 08:00:14 +0000";
layers = (
{
layerId = "15398AEC-D437-4D9F-8CD1-FC2630A97B3B";
width = 600;
},
{
layerId = "49567DAC-64C1-4764-83F5-5952E919F015";
paths = (
{
closed = 1;
nodes = (
"865 0 LINE",
"865 6 LINE",
"804 6 OFFCURVE",
"734 30 OFFCURVE",
"734 93 CURVE SMOOTH",
"734 607 LINE SMOOTH",
"734 670 OFFCURVE",
"804 694 OFFCURVE",
"865 694 CURVE",
"865 700 LINE",
"459 700 LINE",
"459 694 LINE",
"513 694 OFFCURVE",
"570 670 OFFCURVE",
"570 596 CURVE SMOOTH",
"570 93 LINE SMOOTH",
"570 30 OFFCURVE",
"513 6 OFFCURVE",
"459 6 CURVE",
"459 0 LINE"
);
},
{
closed = 1;
nodes = (
"416 0 LINE",
"416 6 LINE",
"362 6 OFFCURVE",
"305 30 OFFCURVE",
"305 93 CURVE SMOOTH",
"305 596 LINE SMOOTH",
"305 670 OFFCURVE",
"362 694 OFFCURVE",
"416 694 CURVE",
"416 700 LINE",
"10 700 LINE",
"10 694 LINE",
"71 694 OFFCURVE",
"141 670 OFFCURVE",
"141 607 CURVE SMOOTH",
"141 93 LINE SMOOTH",
"141 30 OFFCURVE",
"71 6 OFFCURVE",
"10 6 CURVE",
"10 0 LINE"
);
},
{
closed = 1;
nodes = (
"674 358 LINE",
"676 370 LINE",
"219 370 LINE",
"217 358 LINE"
);
}
);
width = 875;
},
{
associatedMasterId = "263FFEFB-F93F-4256-96DD-DB57701D3362";
layerId = "9E8AFE3B-200F-4F90-B880-1F7A047AF238";
name = "Oct 9 19, 21:06";
paths = (
{
closed = 1;
nodes = (
"320 0 LINE",
"320 15 LINE",
"259 15 OFFCURVE",
"219 39 OFFCURVE",
"219 102 CURVE SMOOTH",
"219 338 LINE",
"535 338 LINE",
"535 102 LINE SMOOTH",
"535 39 OFFCURVE",
"495 15 OFFCURVE",
"434 15 CURVE",
"434 0 LINE",
"730 0 LINE",
"730 15 LINE",
"669 15 OFFCURVE",
"629 39 OFFCURVE",
"629 102 CURVE SMOOTH",
"629 598 LINE SMOOTH",
"629 661 OFFCURVE",
"669 685 OFFCURVE",
"730 685 CURVE",
"730 700 LINE",
"434 700 LINE",
"434 685 LINE",
"495 685 OFFCURVE",
"535 661 OFFCURVE",
"535 598 CURVE SMOOTH",
"535 374 LINE",
"219 374 LINE",
"219 598 LINE SMOOTH",
"219 661 OFFCURVE",
"259 685 OFFCURVE",
"320 685 CURVE",
"320 700 LINE",
"24 700 LINE",
"24 685 LINE",
"85 685 OFFCURVE",
"125 661 OFFCURVE",
"125 598 CURVE SMOOTH",
"125 102 LINE SMOOTH",
"125 39 OFFCURVE",
"85 15 OFFCURVE",
"24 15 CURVE",
"24 0 LINE"
);
}
);
width = 754;
},
{
layerId = "263FFEFB-F93F-4256-96DD-DB57701D3362";
paths = (
{
closed = 1;
nodes = (
"730 0 LINE",
"730 15 LINE",
"669 15 OFFCURVE",
"629 39 OFFCURVE",
"629 102 CURVE SMOOTH",
"629 598 LINE SMOOTH",
"629 661 OFFCURVE",
"669 685 OFFCURVE",
"730 685 CURVE",
"730 700 LINE",
"434 700 LINE",
"434 685 LINE",
"495 685 OFFCURVE",
"535 661 OFFCURVE",
"535 598 CURVE SMOOTH",
"535 102 LINE SMOOTH",
"535 39 OFFCURVE",
"495 15 OFFCURVE",
"434 15 CURVE",
"434 0 LINE"
);
},
{
closed = 1;
nodes = (
"320 0 LINE",
"320 15 LINE",
"259 15 OFFCURVE",
"219 39 OFFCURVE",
"219 102 CURVE SMOOTH",
"219 598 LINE SMOOTH",
"219 661 OFFCURVE",
"259 685 OFFCURVE",
"320 685 CURVE",
"320 700 LINE",
"24 700 LINE",
"24 685 LINE",
"85 685 OFFCURVE",
"125 661 OFFCURVE",
"125 598 CURVE SMOOTH",
"125 102 LINE SMOOTH",
"125 39 OFFCURVE",
"85 15 OFFCURVE",
"24 15 CURVE",
"24 0 LINE"
);
},
{
closed = 1;
nodes = (
"611 338 LINE",
"613 374 LINE",
"156 374 LINE",
"154 338 LINE"
);
}
);
width = 754;
}
);
leftMetricsKey = I;
rightMetricsKey = I;
unicode = 0048;
},
{
color = 4;
glyphname = I;
lastChange = "2019-10-10 08:00:14 +0000";
layers = (
{
layerId = "15398AEC-D437-4D9F-8CD1-FC2630A97B3B";
width = 600;
},
{
anchors = (
{
name = bottom;
position = "{172, 0}";
},
{
name = ogonek;
position = "{310, 10}";
},
{
name = top;
position = "{172, 700}";
},
{
name = topleft;
position = "{20, 700}";
}
);
components = (
{
alignment = -1;
name = Serif_long;
transform = "{1, 0, 0, 1, -35, 0}";
},
{
alignment = -1;
name = Serif_long;
transform = "{-1, 0, 0, 1, 379, 0}";
},
{
alignment = -1;
name = Serif_long;
transform = "{1, 0, 0, -1, -35, 700}";
},
{
alignment = -1;
name = Serif_long;
transform = "{-1, 0, 0, -1, 379, 700}";
}
);
layerId = "263FFEFB-F93F-4256-96DD-DB57701D3362";
paths = (
{
closed = 1;
nodes = (
"125 0 LINE",
"219 0 LINE",
"219 700 LINE",
"125 700 LINE"
);
}
);
width = 344;
},
{
anchors = (
{
name = bottom;
position = "{158, 0}";
},
{
name = ogonek;
position = "{296, 10}";
},
{
name = top;
position = "{158, 700}";
},
{
name = topleft;
position = "{6, 700}";
}
);
components = (
{
alignment = -1;
name = Serif_long;
transform = "{1, 0, 0, 1, -49, 0}";
},
{
alignment = -1;
name = Serif_long;
transform = "{-1, 0, 0, 1, 365, 0}";
},
{
alignment = -1;
name = Serif_long;
transform = "{1, 0, 0, -1, -49, 700}";
},
{
alignment = -1;
name = Serif_long;
transform = "{-1, 0, 0, -1, 365, 700}";
}
);
layerId = "49567DAC-64C1-4764-83F5-5952E919F015";
paths = (
{
closed = 1;
nodes = (
"111 0 LINE",
"205 0 LINE",
"205 700 LINE",
"111 700 LINE"
);
}
);
width = 316;
}
);
unicode = 0049;
},
{
glyphname = K;
lastChange = "2019-10-09 18:22:31 +0000";
layers = (
{
layerId = "15398AEC-D437-4D9F-8CD1-FC2630A97B3B";
width = 600;
},
{
components = (
{
alignment = -1;
name = Serif_long;
transform = "{1, 0, 0, 1, -35, 0}";
},
{
alignment = -1;
name = Serif_long;
transform = "{-1, 0, 0, 1, 379, 0}";
},
{
alignment = -1;
name = Serif_long;
transform = "{1, 0, 0, -1, -35, 700}";
},
{
alignment = -1;
name = Serif_long;
transform = "{-1, 0, 0, -1, 379, 700}";
}
);
layerId = "263FFEFB-F93F-4256-96DD-DB57701D3362";
paths = (
{
closed = 1;
nodes = (
"125 0 LINE",
"219 0 LINE",
"219 700 LINE",
"125 700 LINE"
);
},
{
closed = 1;
nodes = (
"195 269 LINE",
"419 534 LINE SMOOTH",
"533 669 OFFCURVE",
"590 684 OFFCURVE",
"641 684 CURVE",
"641 700 LINE",
"401 700 LINE",
"401 684 LINE",
"482 684 OFFCURVE",
"469 649 OFFCURVE",
"395 559 CURVE SMOOTH",
"194 314 LINE"
);
},
{
closed = 1;
nodes = (
"283 380 LINE",
"471 96 LINE SMOOTH",
"547 -19 OFFCURVE",
"638 -95 OFFCURVE",
"731 -146 CURVE",
"738 -135 LINE",
"691 -79 OFFCURVE",
"640 -4 OFFCURVE",
"565 113 CURVE SMOOTH",
"348 451 LINE"
);
}
);
width = 634;
},
{
components = (
{
alignment = -1;
name = Serif_long;
transform = "{1, 0, 0, 1, -35, 0}";
},
{
alignment = -1;
name = Serif_long;
transform = "{-1, 0, 0, 1, 379, 0}";
},
{
alignment = -1;
name = Serif_long;
transform = "{1, 0, 0, -1, -35, 700}";
},
{
alignment = -1;
name = Serif_long;
transform = "{-1, 0, 0, -1, 379, 700}";
}
);
layerId = "49567DAC-64C1-4764-83F5-5952E919F015";
paths = (
{
closed = 1;
nodes = (
"125 0 LINE",
"219 0 LINE",
"219 700 LINE",
"125 700 LINE"
);
},
{
closed = 1;
nodes = (
"195 269 LINE",
"419 534 LINE SMOOTH",
"533 669 OFFCURVE",
"590 684 OFFCURVE",
"641 684 CURVE",
"641 700 LINE",
"401 700 LINE",
"401 684 LINE",
"482 684 OFFCURVE",
"469 649 OFFCURVE",
"395 559 CURVE SMOOTH",
"194 314 LINE"
);
},
{
closed = 1;
nodes = (
"283 380 LINE",
"471 96 LINE SMOOTH",
"547 -19 OFFCURVE",
"638 -95 OFFCURVE",
"731 -146 CURVE",
"738 -135 LINE",
"691 -79 OFFCURVE",
"640 -4 OFFCURVE",
"565 113 CURVE SMOOTH",
"348 451 LINE"
);
}
);
width = 634;
}
);
unicode = 004B;
},
{
color = 4;
glyphname = L;
lastChange = "2019-10-10 09:22:42 +0000";
layers = (
{
layerId = "15398AEC-D437-4D9F-8CD1-FC2630A97B3B";
width = 600;
},
{
background = {
paths = (
{
closed = 1;
nodes = (
"204 34 LINE",
"204 0 LINE",
"503 0 LINE",
"528 223 LINE",
"515 224 LINE",
"486 107 OFFCURVE",
"441 34 OFFCURVE",
"323 34 CURVE"
);
}
);
};
components = (
{
name = Serif_cap;
transform = "{1, 0, 0, 1, -35, 0}";
},
{
name = Serif_cap;
transform = "{1, 0, 0, -1, -35, 700}";
},
{
name = Serif_cap;
transform = "{-1, 0, 0, -1, 379, 700}";
}
);
layerId = "263FFEFB-F93F-4256-96DD-DB57701D3362";
paths = (
{
closed = 1;
nodes = (
"125 0 LINE",
"219 0 LINE",
"219 700 LINE",
"125 700 LINE"
);
},
{
closed = 1;
nodes = (
"218 36 LINE",
"218 0 LINE",
"495 0 LINE",
"522 234 LINE",
"508 235 LINE",
"478 116 OFFCURVE",
"430 36 OFFCURVE",
"314 36 CURVE SMOOTH"
);
}
);
width = 542;
},
{
background = {
paths = (
{
closed = 1;
nodes = (
"204 34 LINE",
"204 0 LINE",
"503 0 LINE",
"528 223 LINE",
"515 224 LINE",
"486 107 OFFCURVE",
"441 34 OFFCURVE",
"323 34 CURVE"
);
}
);
};
components = (
{
name = Serif_cap;
transform = "{1, 0, 0, 1, -35, 0}";
},
{
name = Serif_cap;
transform = "{1, 0, 0, -1, -35, 700}";
},
{
name = Serif_cap;
transform = "{-1, 0, 0, -1, 379, 700}";
}
);
layerId = "49567DAC-64C1-4764-83F5-5952E919F015";
paths = (
{
closed = 1;
nodes = (
"125 0 LINE",
"219 0 LINE",
"219 700 LINE",
"125 700 LINE"
);
},
{
closed = 1;
nodes = (
"218 36 LINE",
"218 0 LINE",
"495 0 LINE",
"522 234 LINE",
"509 235 LINE",
"479 116 OFFCURVE",
"431 36 OFFCURVE",
"314 36 CURVE SMOOTH"
);
}
);
width = 608;
}
);
rightKerningGroup = L;
unicode = 004C;
},
{
color = 3;
glyphname = M;
lastChange = "2019-10-09 20:14:39 +0000";
layers = (
{
layerId = "15398AEC-D437-4D9F-8CD1-FC2630A97B3B";
width = 600;
},
{
components = (
{
name = serif_cap_long;
transform = "{1, 0, 0, 1, 61, 0}";
},
{
name = Serif_cap;
transform = "{1, 0, 0, 1, -35, 0}";
},
{
alignment = -1;
name = Serif_long;
transform = "{1, 0, 0, 1, 465, 0}";
},
{
alignment = -1;
name = Serif_long;
transform = "{-1, 0, 0, 1, 879, 0}";
},
{
alignment = -1;
name = Serif_long;
transform = "{-1, 0, 0, -1, 879, 700}";
}
);
layerId = "263FFEFB-F93F-4256-96DD-DB57701D3362";
paths = (
{
closed = 1;
nodes = (
"125 68 LINE",
"171 6 LINE",
"171 700 LINE",
"125 700 LINE"
);
},
{
closed = 1;
nodes = (
"625 700 LINE",
"392 45 LINE",
"433 129 LINE",
"183 700 LINE",
"24 700 LINE",
"24 685 LINE",
"63 685 OFFCURVE",
"105 669 OFFCURVE",
"148 570 CURVE SMOOTH",
"402 -10 LINE",
"408 -10 LINE",
"635 627 LINE"
);
},
{
closed = 1;
nodes = (
"625 0 LINE",
"719 0 LINE",
"719 700 LINE",
"625 700 LINE"
);
}
);
width = 844;
},
{
components = (
{
name = serif_cap_long;
transform = "{1, 0, 0, 1, 61, 0}";
},
{
name = Serif_cap;
transform = "{1, 0, 0, 1, -35, 0}";
},
{
alignment = -1;
name = Serif_long;
transform = "{1, 0, 0, 1, 465, 0}";
},
{
alignment = -1;
name = Serif_long;
transform = "{-1, 0, 0, 1, 879, 0}";
},
{
alignment = -1;
name = Serif_long;
transform = "{-1, 0, 0, -1, 879, 700}";
}
);
layerId = "49567DAC-64C1-4764-83F5-5952E919F015";
paths = (
{
closed = 1;
nodes = (
"125 68 LINE",
"171 6 LINE",
"171 700 LINE",
"125 700 LINE"
);
},
{
closed = 1;
nodes = (
"625 700 LINE",
"392 45 LINE",
"433 129 LINE",
"183 700 LINE",
"24 700 LINE",
"24 685 LINE",
"63 685 OFFCURVE",
"105 669 OFFCURVE",
"148 570 CURVE SMOOTH",
"402 -10 LINE",
"408 -10 LINE",
"635 627 LINE"
);
},
{
closed = 1;
nodes = (
"625 0 LINE",
"719 0 LINE",
"719 700 LINE",
"625 700 LINE"
);
}
);
width = 844;
}
);
leftMetricsKey = N;
rightMetricsKey = N;
unicode = 004D;
},
{
color = 3;
glyphname = N;
lastChange = "2019-10-09 20:14:39 +0000";
layers = (
{
layerId = "15398AEC-D437-4D9F-8CD1-FC2630A97B3B";
width = 600;
},
{
background = {
paths = (
{
closed = 1;
nodes = (
"134 0 LINE",
"268 0 LINE",
"268 16 LINE",
"217 16 OFFCURVE",
"177 40 OFFCURVE",
"177 103 CURVE",
"134 103 LINE"
);
},
{
closed = 1;
nodes = (
"174 700 LINE",
"40 700 LINE",
"40 684 LINE",
"91 684 OFFCURVE",
"131 660 OFFCURVE",
"172 597 CURVE",
"215 597 LINE"
);
}
);
};
components = (
{
name = serif_cap_long;
transform = "{1, 0, 0, 1, 61, 0}";
},
{
name = serif_cap_long;
transform = "{-1, 0, 0, -1, 650, 700}";
},
{
name = Serif_cap;
transform = "{1, 0, 0, 1, -35, 0}";
},
{
name = Serif_cap;
transform = "{-1, 0, 0, -1, 746, 700}";
}
);
layerId = "263FFEFB-F93F-4256-96DD-DB57701D3362";
paths = (
{
closed = 1;
nodes = (
"24 700 LINE",
"24 684 LINE",
"85 684 OFFCURVE",
"124 665 OFFCURVE",
"166 602 CURVE SMOOTH",
"575 -11 LINE",
"586 -11 LINE",
"557 182 LINE",
"209 700 LINE"
);
},
{
closed = 1;
nodes = (
"540 68 LINE",
"586 -11 LINE",
"586 700 LINE",
"540 700 LINE"
);
},
{
closed = 1;
nodes = (
"125 68 LINE",
"171 6 LINE",
"171 700 LINE",
"125 700 LINE"
);
}
);
width = 711;
},
{
background = {
paths = (
{
closed = 1;
nodes = (
"180 0 LINE",
"314 0 LINE",
"314 16 LINE",
"263 16 OFFCURVE",
"223 40 OFFCURVE",
"223 103 CURVE",
"180 103 LINE"
);
},
{
closed = 1;
nodes = (
"220 700 LINE",
"86 700 LINE",
"86 684 LINE",
"137 684 OFFCURVE",
"177 660 OFFCURVE",
"218 597 CURVE",
"261 597 LINE"
);
}
);
};
layerId = "49567DAC-64C1-4764-83F5-5952E919F015";
paths = (
{
closed = 1;
nodes = (
"652 -11 LINE",
"652 219 LINE",
"266 700 LINE",
"10 700 LINE",
"10 694 LINE",
"67 694 OFFCURVE",
"105 662 OFFCURVE",
"165 587 CURVE SMOOTH",
"641 -11 LINE"
);
},
{
closed = 1;
nodes = (
"354 0 LINE",
"354 6 LINE",
"207 7 OFFCURVE",
"173 129 OFFCURVE",
"173 403 CURVE SMOOTH",
"173 700 LINE",
"161 700 LINE",
"161 393 LINE SMOOTH",
"161 130 OFFCURVE",
"121 6 OFFCURVE",
"30 6 CURVE",
"30 0 LINE"
);
},
{
closed = 1;
nodes = (
"612 597 LINE",
"612 700 LINE",
"485 700 LINE",
"485 694 LINE",
"565 693 OFFCURVE",
"606 671 OFFCURVE",
"606 597 CURVE"
);
},
{
closed = 1;
nodes = (
"652 607 LINE",
"652 670 OFFCURVE",
"692 694 OFFCURVE",
"753 694 CURVE",
"753 700 LINE",
"645 700 LINE",
"645 607 LINE"
);
},
{
closed = 1;
nodes = (
"459 700 LINE",
"459 694 LINE",
"606 693 OFFCURVE",
"640 571 OFFCURVE",
"640 297 CURVE SMOOTH",
"640 -11 LINE",
"652 -11 LINE",
"652 307 LINE SMOOTH",
"652 570 OFFCURVE",
"692 694 OFFCURVE",
"783 694 CURVE",
"783 700 LINE"
);
}
);
width = 793;
}
);
leftMetricsKey = I;
rightMetricsKey = I;
unicode = 004E;
},
{
color = 4;
glyphname = O;
lastChange = "2019-10-09 20:14:58 +0000";
layers = (
{
layerId = "15398AEC-D437-4D9F-8CD1-FC2630A97B3B";
width = 600;
},
{
anchors = (
{
name = bottom;
position = "{353, 0}";
},
{
name = center;
position = "{353, 350}";
},
{
name = ogonek;
position = "{635, 10}";
},
{
name = top;
position = "{353, 700}";
},
{
name = topleft;
position = "{20, 700}";
},
{
name = topright;
position = "{686, 700}";
}
);
layerId = "263FFEFB-F93F-4256-96DD-DB57701D3362";
paths = (
{
closed = 1;
nodes = (
"527 712 OFFCURVE",
"662 585 OFFCURVE",
"662 350 CURVE SMOOTH",
"662 115 OFFCURVE",
"527 -11 OFFCURVE",
"353 -11 CURVE SMOOTH",
"179 -11 OFFCURVE",
"44 116 OFFCURVE",
"44 350 CURVE SMOOTH",
"44 584 OFFCURVE",
"179 712 OFFCURVE",
"353 712 CURVE SMOOTH"
);
},
{
closed = 1;
nodes = (
"471 31 OFFCURVE",
"562 134 OFFCURVE",
"562 350 CURVE SMOOTH",
"562 566 OFFCURVE",
"471 670 OFFCURVE",
"353 670 CURVE SMOOTH",
"235 670 OFFCURVE",
"144 567 OFFCURVE",
"144 352 CURVE SMOOTH",
"144 135 OFFCURVE",
"235 31 OFFCURVE",
"353 31 CURVE SMOOTH"
);
}
);
width = 706;
},
{
anchors = (
{
name = bottom;
position = "{353, 0}";
},
{
name = center;
position = "{353, 350}";
},
{
name = ogonek;
position = "{635, 10}";
},
{
name = top;
position = "{353, 700}";
},
{
name = topleft;
position = "{20, 700}";
},
{
name = topright;
position = "{686, 700}";
}
);
layerId = "49567DAC-64C1-4764-83F5-5952E919F015";
paths = (
{
closed = 1;
nodes = (
"527 712 OFFCURVE",
"662 585 OFFCURVE",
"662 350 CURVE SMOOTH",
"662 115 OFFCURVE",
"527 -11 OFFCURVE",
"353 -11 CURVE SMOOTH",
"179 -11 OFFCURVE",
"44 116 OFFCURVE",
"44 350 CURVE SMOOTH",
"44 584 OFFCURVE",
"179 712 OFFCURVE",
"353 712 CURVE SMOOTH"
);
},
{
closed = 1;
nodes = (
"471 31 OFFCURVE",
"562 134 OFFCURVE",
"562 350 CURVE SMOOTH",
"562 566 OFFCURVE",
"471 670 OFFCURVE",
"353 670 CURVE SMOOTH",
"235 670 OFFCURVE",
"144 567 OFFCURVE",
"144 352 CURVE SMOOTH",
"144 135 OFFCURVE",
"235 31 OFFCURVE",
"353 31 CURVE SMOOTH"
);
}
);
width = 706;
}
);
rightKerningGroup = O;
unicode = 004F;
},
{
color = 3;
glyphname = Q;
lastChange = "2019-10-09 20:14:39 +0000";
layers = (
{
layerId = "15398AEC-D437-4D9F-8CD1-FC2630A97B3B";
width = 600;
},
{
components = (
{
name = O;
}
);
layerId = "263FFEFB-F93F-4256-96DD-DB57701D3362";
paths = (
{
closed = 1;
nodes = (
"585 -142 OFFCURVE",
"459 -95 OFFCURVE",
"320 -8 CURVE",
"399 33 LINE",
"542 -57 OFFCURVE",
"628 -111 OFFCURVE",
"726 -160 CURVE",
"726 -171 LINE"
);
}
);
width = 706;
},
{
components = (
{
name = O;
}
);
layerId = "49567DAC-64C1-4764-83F5-5952E919F015";
paths = (
{
closed = 1;
nodes = (
"585 -142 OFFCURVE",
"459 -95 OFFCURVE",
"320 -8 CURVE",
"399 33 LINE",
"542 -57 OFFCURVE",
"628 -111 OFFCURVE",
"726 -160 CURVE",
"726 -171 LINE"
);
}
);
width = 706;
}
);
leftMetricsKey = O;
unicode = 0051;
},
{
color = 0;
glyphname = R;
lastChange = "2019-10-09 20:24:23 +0000";
layers = (
{
layerId = "15398AEC-D437-4D9F-8CD1-FC2630A97B3B";
width = 600;
},
{
layerId = "263FFEFB-F93F-4256-96DD-DB57701D3362";
paths = (
{
closed = 1;
nodes = (
"283 280 LINE",
"471 -4 LINE SMOOTH",
"547 -119 OFFCURVE",
"638 -195 OFFCURVE",
"731 -246 CURVE",
"738 -235 LINE",
"691 -179 OFFCURVE",
"640 -104 OFFCURVE",
"565 13 CURVE SMOOTH",
"348 351 LINE"
);
}
);
width = 608;
},
{
layerId = "49567DAC-64C1-4764-83F5-5952E919F015";
width = 608;
}
);
unicode = 0052;
},
{
color = 0;
glyphname = S;
lastChange = "2019-10-10 09:27:13 +0000";
layers = (
{
layerId = "15398AEC-D437-4D9F-8CD1-FC2630A97B3B";
width = 600;
},
{
layerId = "263FFEFB-F93F-4256-96DD-DB57701D3362";
paths = (
{
closed = 1;
nodes = (
"194 376 OFFCURVE",
"553 384 OFFCURVE",
"553 173 CURVE SMOOTH",
"553 42 OFFCURVE",
"426 -7 OFFCURVE",
"318 -7 CURVE SMOOTH",
"217 -7 OFFCURVE",
"118 36 OFFCURVE",
"54 102 CURVE",
"129 320 LINE",
"143 316 LINE",
"104 163 OFFCURVE",
"181 35 OFFCURVE",
"321 35 CURVE SMOOTH",
"398 35 OFFCURVE",
"451 78 OFFCURVE",
"451 147 CURVE SMOOTH",
"451 326 OFFCURVE",
"94 322 OFFCURVE",
"94 538 CURVE SMOOTH",
"94 646 OFFCURVE",
"182 707 OFFCURVE",
"302 707 CURVE SMOOTH",
"373 707 OFFCURVE",
"441 681 OFFCURVE",
"528 623 CURVE",
"461 413 LINE",
"447 417 LINE",
"473 554 OFFCURVE",
"424 665 OFFCURVE",
"303 665 CURVE SMOOTH",
"236 665 OFFCURVE",
"194 629 OFFCURVE",
"194 565 CURVE SMOOTH"
);
}
);
width = 608;
},
{
layerId = "49567DAC-64C1-4764-83F5-5952E919F015";
width = 608;
}
);
unicode = 0053;
},
{
color = 3;
glyphname = T;
lastChange = "2019-10-10 09:22:40 +0000";
layers = (
{
layerId = "15398AEC-D437-4D9F-8CD1-FC2630A97B3B";
width = 600;
},
{
components = (
{
name = serif_cap_long;
transform = "{-1, 0, 0, 1, 348, 0}";
},
{
name = serif_cap_long;
transform = "{1, 0, 0, 1, 222, 0}";
}
);
layerId = "263FFEFB-F93F-4256-96DD-DB57701D3362";
paths = (
{
closed = 1;
nodes = (
"238 0 LINE",
"332 0 LINE",
"332 700 LINE",
"238 700 LINE"
);
},
{
closed = 1;
nodes = (
"473 664 OFFCURVE",
"519 594 OFFCURVE",
"551 465 CURVE",
"565 466 LINE",
"538 700 LINE",
"332 700 LINE",
"332 664 LINE",
"357 664 LINE SMOOTH"
);
},
{
closed = 1;
nodes = (
"238 664 LINE",
"238 700 LINE",
"32 700 LINE",
"5 466 LINE",
"19 465 LINE",
"51 594 OFFCURVE",
"97 664 OFFCURVE",
"213 664 CURVE SMOOTH"
);
}
);
width = 570;
},
{
components = (
{
name = serif_cap_long;
transform = "{-1, 0, 0, 1, 381, 0}";
},
{
name = serif_cap_long;
transform = "{1, 0, 0, 1, 325, 0}";
}
);
layerId = "49567DAC-64C1-4764-83F5-5952E919F015";
paths = (
{
closed = 1;
nodes = (
"271 0 LINE",
"435 0 LINE",
"435 700 LINE",
"271 700 LINE"
);
},
{
closed = 1;
nodes = (
"546 690 OFFCURVE",
"673 540 OFFCURVE",
"689 406 CURVE",
"695 407 LINE",
"670 700 LINE",
"434 700 LINE",
"434 690 LINE",
"438 690 LINE SMOOTH"
);
},
{
closed = 1;
nodes = (
"271 690 LINE",
"271 700 LINE",
"35 700 LINE",
"10 407 LINE",
"16 406 LINE",
"32 540 OFFCURVE",
"159 690 OFFCURVE",
"267 690 CURVE SMOOTH"
);
}
);
width = 705;
}
);
unicode = 0054;
},
{
color = 3;
glyphname = V;
lastChange = "2019-10-09 20:14:39 +0000";
layers = (
{
layerId = "15398AEC-D437-4D9F-8CD1-FC2630A97B3B";
width = 600;
},
{
layerId = "263FFEFB-F93F-4256-96DD-DB57701D3362";
paths = (
{
closed = 1;
nodes = (
"406 695 LINE",
"510 695 OFFCURVE",
"506 645 OFFCURVE",
"470 537 CURVE SMOOTH",
"309 52 LINE",
"360 146 LINE",
"217 578 LINE SMOOTH",
"189 662 OFFCURVE",
"194 695 OFFCURVE",
"287 695 CURVE",
"287 710 LINE",
"6 710 LINE",
"6 695 LINE",
"45 695 OFFCURVE",
"86 681 OFFCURVE",
"120 580 CURVE SMOOTH",
"318 0 LINE",
"324 0 LINE",
"522 570 LINE SMOOTH",
"552 655 OFFCURVE",
"578 695 OFFCURVE",
"627 695 CURVE",
"627 710 LINE",
"406 710 LINE"
);
}
);
width = 633;
},
{
layerId = "49567DAC-64C1-4764-83F5-5952E919F015";
paths = (
{
closed = 1;
nodes = (
"396 695 LINE",
"489 695 OFFCURVE",
"545 613 OFFCURVE",
"493 460 CURVE SMOOTH",
"352 42 LINE",
"406 190 LINE",
"271 494 LINE SMOOTH",
"220 609 OFFCURVE",
"213 695 OFFCURVE",
"327 695 CURVE",
"327 700 LINE",
"-84 700 LINE",
"-84 695 LINE",
"-18 695 OFFCURVE",
"17 664 OFFCURVE",
"79 532 CURVE SMOOTH",
"336 -10 LINE",
"342 -10 LINE",
"504 455 LINE SMOOTH",
"565 630 OFFCURVE",
"616 695 OFFCURVE",
"707 695 CURVE",
"707 700 LINE",
"396 700 LINE"
);
}
);
width = 608;
}
);
leftKerningGroup = V;
rightKerningGroup = V;
unicode = 0056;
},
{
color = 0;
glyphname = Y;
lastChange = "2019-10-10 09:35:21 +0000";
layers = (
{
layerId = "15398AEC-D437-4D9F-8CD1-FC2630A97B3B";
width = 600;
},
{
layerId = "263FFEFB-F93F-4256-96DD-DB57701D3362";
paths = (
{
closed = 1;
nodes = (
"406 695 LINE",
"510 695 OFFCURVE",
"526 636 OFFCURVE",
"470 537 CURVE SMOOTH",
"309 252 LINE",
"366 337 LINE",
"217 578 LINE SMOOTH",
"171 653 OFFCURVE",
"194 695 OFFCURVE",
"287 695 CURVE",
"287 710 LINE",
"6 710 LINE",
"6 695 LINE",
"45 695 OFFCURVE",
"70 675 OFFCURVE",
"120 580 CURVE SMOOTH",
"318 200 LINE",
"324 200 LINE",
"522 570 LINE SMOOTH",
"565 649 OFFCURVE",
"578 695 OFFCURVE",
"627 695 CURVE",
"627 710 LINE",
"406 710 LINE"
);
}
);
width = 608;
},
{
layerId = "49567DAC-64C1-4764-83F5-5952E919F015";
width = 608;
}
);
unicode = 0059;
},
{
color = 4;
glyphname = a;
lastChange = "2019-10-09 20:13:14 +0000";
layers = (
{
associatedMasterId = "15398AEC-D437-4D9F-8CD1-FC2630A97B3B";
backgroundImage = {
crop = "{{0, 0}, {465, 524}}";
imagePath = "../Desktop/Capture d’écran 2019-10-07 à 16.10.18.png";
locked = "1";
transform = "{1.18, 0, 0, 1.18, -6, -61}";
};
guideLines = (
{
angle = 229.2892;
position = "{319, 113}";
},
{
angle = 229.2892;
position = "{319, 137}";
},
{
angle = 201.8735;
position = "{491, 47}";
}
);
layerId = "2AFDBE3C-43B3-4C09-AD19-D8638D633ADD";
name = "Oct 7 19, 16:44";
paths = (
{
closed = 1;
nodes = (
"191 -11 OFFCURVE",
"231 11 OFFCURVE",
"294 84 CURVE SMOOTH",
"319 113 LINE",
"320 138 LINE",
"286 99 LINE SMOOTH",
"254 61 OFFCURVE",
"229 42 OFFCURVE",
"192 42 CURVE SMOOTH",
"149 42 OFFCURVE",
"131 68 OFFCURVE",
"131 118 CURVE SMOOTH",
"131 178 OFFCURVE",
"156 228 OFFCURVE",
"241 278 CURVE SMOOTH",
"313 320 LINE",
"312 338 LINE",
"204 275 LINE SMOOTH",
"77 202 OFFCURVE",
"39 161 OFFCURVE",
"39 96 CURVE SMOOTH",
"39 28 OFFCURVE",
"81 -12 OFFCURVE",
"143 -12 CURVE"
);
},
{
closed = 1;
nodes = (
"430 23 OFFCURVE",
"395 48 OFFCURVE",
"395 114 CURVE SMOOTH",
"395 377 LINE SMOOTH",
"395 487 OFFCURVE",
"310 512 OFFCURVE",
"216 512 CURVE",
"216 494 LINE",
"260 494 OFFCURVE",
"309 475 OFFCURVE",
"309 387 CURVE",
"309 114 LINE SMOOTH",
"309 61 OFFCURVE",
"321 30 OFFCURVE",
"356 -12 CURVE",
"493 43 LINE",
"491 47 LINE"
);
},
{
closed = 1;
nodes = (
"123 306 LINE",
"74 443 LINE",
"104 482 OFFCURVE",
"152 512 OFFCURVE",
"216 512 CURVE",
"216 494 LINE",
"154 494 OFFCURVE",
"116 403 OFFCURVE",
"128 308 CURVE"
);
}
);
width = 600;
},
{
associatedMasterId = "15398AEC-D437-4D9F-8CD1-FC2630A97B3B";
backgroundImage = {
crop = "{{0, 0}, {465, 524}}";
imagePath = "../Desktop/Capture d’écran 2019-10-07 à 16.10.18.png";
locked = "1";
transform = "{1.18, 0, 0, 1.18, -6, -61}";
};
guideLines = (
{
angle = 229.2892;
position = "{319, 113}";
},
{
angle = 229.2892;
position = "{319, 137}";
},
{
angle = 201.8735;
position = "{491, 47}";
}
);
layerId = "8E2002A8-C9EA-4033-A85D-AE53BE3FC960";
name = "Oct 7 19, 16:52";
paths = (
{
closed = 1;
nodes = (
"205 -11 OFFCURVE",
"246 17 OFFCURVE",
"297 84 CURVE SMOOTH",
"319 113 LINE",
"320 138 LINE",
"289 99 LINE SMOOTH",
"255 56 OFFCURVE",
"228 42 OFFCURVE",
"195 42 CURVE SMOOTH",
"152 42 OFFCURVE",
"131 67 OFFCURVE",
"131 126 CURVE SMOOTH",
"131 194 OFFCURVE",
"160 252 OFFCURVE",
"241 288 CURVE SMOOTH",
"313 320 LINE",
"312 338 LINE",
"204 285 LINE SMOOTH",
"72 220 OFFCURVE",
"39 174 OFFCURVE",
"39 105 CURVE SMOOTH",
"39 33 OFFCURVE",
"76 -12 OFFCURVE",
"149 -12 CURVE"
);
},
{
closed = 1;
nodes = (
"439 26 OFFCURVE",
"395 48 OFFCURVE",
"395 134 CURVE SMOOTH",
"395 393 LINE SMOOTH",
"395 472 OFFCURVE",
"319 512 OFFCURVE",
"221 512 CURVE SMOOTH",
"151 512 OFFCURVE",
"105 491 OFFCURVE",
"53 446 CURVE",
"103 306 LINE",
"108 308 LINE",
"94 416 OFFCURVE",
"143 494 OFFCURVE",
"221 494 CURVE SMOOTH",
"277 494 OFFCURVE",
"309 453 OFFCURVE",
"309 387 CURVE SMOOTH",
"309 114 LINE SMOOTH",
"309 62 OFFCURVE",
"324 17 OFFCURVE",
"360 -12 CURVE",
"493 43 LINE",
"491 47 LINE"
);
}
);
width = 600;
},
{
associatedMasterId = "15398AEC-D437-4D9F-8CD1-FC2630A97B3B";
backgroundImage = {
crop = "{{0, 0}, {465, 524}}";
imagePath = "../Desktop/Capture d’écran 2019-10-07 à 16.10.18.png";
locked = "1";
transform = "{1.18, 0, 0, 1.18, -35, -61}";
};
components = (
{
name = attaque;
transform = "{-1, 0, 0, -1, 522, 500}";
}
);
guideLines = (
{
angle = 229.2892;
position = "{290, 113}";
},
{
angle = 229.2892;
position = "{290, 137}";
},
{
angle = 201.8735;
position = "{462, 47}";
}
);
layerId = "0DDAB6E9-EEAE-4039-995F-0C913B951555";
name = "Oct 7 19, 17:31";
paths = (
{
closed = 1;
nodes = (
"173 -12 OFFCURVE",
"208 14 OFFCURVE",
"266 84 CURVE SMOOTH",
"290 113 LINE",
"291 138 LINE",
"257 99 LINE SMOOTH",
"222 57 OFFCURVE",
"197 42 OFFCURVE",
"166 42 CURVE SMOOTH",
"124 42 OFFCURVE",
"102 67 OFFCURVE",
"102 119 CURVE SMOOTH",
"102 184 OFFCURVE",
"135 233 OFFCURVE",
"212 278 CURVE SMOOTH",
"284 320 LINE",
"283 338 LINE",
"175 275 LINE SMOOTH",
"48 202 OFFCURVE",
"10 164 OFFCURVE",
"10 97 CURVE SMOOTH",
"10 33 OFFCURVE",
"47 -12 OFFCURVE",
"116 -12 CURVE SMOOTH"
);
},
{
closed = 1;
nodes = (
"366 134 LINE",
"366 386 LINE SMOOTH",
"366 483 OFFCURVE",
"280 512 OFFCURVE",
"192 512 CURVE SMOOTH",
"114 512 OFFCURVE",
"63 482 OFFCURVE",
"24 438 CURVE",
"74 298 LINE",
"79 299 LINE",
"76 314 OFFCURVE",
"74 330 OFFCURVE",
"74 345 CURVE SMOOTH",
"74 420 OFFCURVE",
"103 494 OFFCURVE",
"184 494 CURVE SMOOTH",
"255 494 OFFCURVE",
"280 453 OFFCURVE",
"280 383 CURVE SMOOTH",
"280 114 LINE"
);
}
);
width = 474;
},
{
associatedMasterId = "15398AEC-D437-4D9F-8CD1-FC2630A97B3B";
backgroundImage = {
crop = "{{0, 0}, {465, 524}}";
imagePath = "../Desktop/Capture d’écran 2019-10-07 à 16.10.18.png";
locked = "1";
transform = "{1.18, 0, 0, 1.18, -35, -61}";
};
components = (
{
name = attaque;
transform = "{-1, 0, 0, -1, 522, 500}";
}
);
guideLines = (
{
angle = 229.2892;
position = "{290, 113}";
},
{
angle = 229.2892;
position = "{290, 137}";
},
{
angle = 201.8735;
position = "{462, 47}";
}
);
layerId = "50C5AC47-B7EE-46E3-B645-00FB950305BB";
name = "Oct 7 19, 17:34";
paths = (
{
closed = 1;
nodes = (
"189 -12 OFFCURVE",
"216 12 OFFCURVE",
"290 113 CURVE",
"291 138 LINE",
"219 63 OFFCURVE",
"195 42 OFFCURVE",
"166 42 CURVE SMOOTH",
"124 42 OFFCURVE",
"101 66 OFFCURVE",
"102 119 CURVE SMOOTH",
"104 204 OFFCURVE",
"175 256 OFFCURVE",
"284 320 CURVE",
"283 338 LINE",
"166 274 OFFCURVE",
"10 196 OFFCURVE",
"10 93 CURVE SMOOTH",
"10 33 OFFCURVE",
"45 -12 OFFCURVE",
"114 -12 CURVE SMOOTH"
);
},
{
closed = 1;
nodes = (
"366 134 LINE",
"366 386 LINE SMOOTH",
"366 483 OFFCURVE",
"280 512 OFFCURVE",
"192 512 CURVE SMOOTH",
"114 512 OFFCURVE",
"63 482 OFFCURVE",
"24 438 CURVE",
"74 298 LINE",
"79 299 LINE",
"76 314 OFFCURVE",
"74 330 OFFCURVE",
"74 345 CURVE SMOOTH",
"74 420 OFFCURVE",
"103 494 OFFCURVE",
"184 494 CURVE SMOOTH",
"255 494 OFFCURVE",
"280 453 OFFCURVE",
"280 383 CURVE SMOOTH",
"280 114 LINE"
);
}
);
width = 474;
},
{
associatedMasterId = "15398AEC-D437-4D9F-8CD1-FC2630A97B3B";
components = (
{
name = serif_bas;
}
);
guideLines = (
{
angle = 229.2892;
position = "{316, 113}";
},
{
angle = 229.2892;
position = "{316, 137}";
},
{
angle = 201.8735;
position = "{488, 47}";
}
);
layerId = "DCD0716A-81A0-4B30-BD15-BAEABC501CB9";
name = base;
paths = (
{
closed = 1;
nodes = (
"392 104 LINE",
"392 372 LINE SMOOTH",
"392 472 OFFCURVE",
"322 512 OFFCURVE",
"226 512 CURVE SMOOTH",
"147 512 OFFCURVE",
"104 485 OFFCURVE",
"50 438 CURVE",
"102 287 LINE",
"107 288 LINE",
"83 396 OFFCURVE",
"134 492 OFFCURVE",
"218 492 CURVE SMOOTH",
"272 492 OFFCURVE",
"306 452 OFFCURVE",
"306 386 CURVE SMOOTH",
"306 114 LINE"
);
},
{
closed = 1;
nodes = (
"205 -12 OFFCURVE",
"254 26 OFFCURVE",
"316 113 CURVE",
"317 140 LINE",
"253 56 OFFCURVE",
"222 42 OFFCURVE",
"192 42 CURVE SMOOTH",
"148 42 OFFCURVE",
"128 72 OFFCURVE",
"128 121 CURVE SMOOTH",
"128 201 OFFCURVE",
"181 256 OFFCURVE",
"310 320 CURVE",
"309 339 LINE",
"236 304 LINE SMOOTH",
"84 231 OFFCURVE",
"36 166 OFFCURVE",
"36 95 CURVE SMOOTH",
"36 27 OFFCURVE",
"80 -12 OFFCURVE",
"143 -12 CURVE SMOOTH"
);
}
);
width = 493;
},
{
associatedMasterId = "15398AEC-D437-4D9F-8CD1-FC2630A97B3B";
background = {
paths = (
{
closed = 1;
nodes = (
"310 459 OFFCURVE",
"272 492 OFFCURVE",
"221 492 CURVE SMOOTH",
"139 492 OFFCURVE",
"85 404 OFFCURVE",
"109 298 CURVE",
"104 297 LINE",
"50 454 LINE",
"107 494 OFFCURVE",
"162 512 OFFCURVE",
"225 512 CURVE SMOOTH",
"332 512 OFFCURVE",
"396 461 OFFCURVE",
"396 385 CURVE SMOOTH",
"396 226 OFFCURVE",
"116 214 OFFCURVE",
"116 92 CURVE SMOOTH",
"116 52 OFFCURVE",
"146 8 OFFCURVE",
"219 8 CURVE SMOOTH",
"329 8 OFFCURVE",
"385 107 OFFCURVE",
"361 242 CURVE",
"366 243 LINE",
"424 63 LINE",
"380 20 OFFCURVE",
"300 -15 OFFCURVE",
"215 -15 CURVE SMOOTH",
"126 -15 OFFCURVE",
"30 23 OFFCURVE",
"30 120 CURVE SMOOTH",
"30 286 OFFCURVE",
"310 282 OFFCURVE",
"310 411 CURVE SMOOTH"
);
}
);
};
components = (
{
name = serif_bas;
}
);
guideLines = (
{
angle = 229.2892;
position = "{316, 113}";
},
{
angle = 229.2892;
position = "{316, 137}";
},
{
angle = 201.8735;
position = "{488, 47}";
}
);
layerId = "F31BF980-54A3-4FF8-8DDF-B191528D7AAE";
name = Sharper;
paths = (
{
closed = 1;
nodes = (
"392 104 LINE",
"392 372 LINE SMOOTH",
"392 461 OFFCURVE",
"331 512 OFFCURVE",
"223 512 CURVE SMOOTH",
"162 512 OFFCURVE",
"112 494 OFFCURVE",
"51 454 CURVE",
"102 277 LINE",
"107 278 LINE",
"87 395 OFFCURVE",
"132 492 OFFCURVE",
"215 492 CURVE SMOOTH",
"272 492 OFFCURVE",
"306 451 OFFCURVE",
"306 383 CURVE SMOOTH",
"306 114 LINE"
);
},
{
closed = 1;
nodes = (
"196 -12 OFFCURVE",
"236 12 OFFCURVE",
"279 66 CURVE SMOOTH",
"316 113 LINE",
"317 140 LINE",
"263 69 OFFCURVE",
"231 42 OFFCURVE",
"191 42 CURVE SMOOTH",
"151 42 OFFCURVE",
"128 69 OFFCURVE",
"128 121 CURVE SMOOTH",
"128 200 OFFCURVE",
"179 255 OFFCURVE",
"310 320 CURVE",
"309 339 LINE",
"236 304 LINE SMOOTH",
"97 237 OFFCURVE",
"36 173 OFFCURVE",
"36 94 CURVE SMOOTH",
"36 29 OFFCURVE",
"78 -12 OFFCURVE",
"145 -12 CURVE SMOOTH"
);
}
);
width = 493;
},
{
associatedMasterId = "15398AEC-D437-4D9F-8CD1-FC2630A97B3B";
background = {
paths = (
{
closed = 1;
nodes = (
"308 459 OFFCURVE",
"270 492 OFFCURVE",
"219 492 CURVE SMOOTH",
"137 492 OFFCURVE",
"83 404 OFFCURVE",
"107 298 CURVE",
"102 297 LINE",
"48 454 LINE",
"105 494 OFFCURVE",
"160 512 OFFCURVE",
"223 512 CURVE SMOOTH",
"330 512 OFFCURVE",
"394 461 OFFCURVE",
"394 385 CURVE SMOOTH",
"394 226 OFFCURVE",
"114 214 OFFCURVE",
"114 92 CURVE SMOOTH",
"114 52 OFFCURVE",
"144 8 OFFCURVE",
"217 8 CURVE SMOOTH",
"327 8 OFFCURVE",
"383 107 OFFCURVE",
"359 242 CURVE",
"364 243 LINE",
"422 63 LINE",
"378 20 OFFCURVE",
"298 -15 OFFCURVE",
"213 -15 CURVE SMOOTH",
"124 -15 OFFCURVE",
"28 23 OFFCURVE",
"28 120 CURVE SMOOTH",
"28 286 OFFCURVE",
"308 282 OFFCURVE",
"308 411 CURVE SMOOTH"
);
}
);
};
components = (
{
name = serif_bas;
}
);
guideLines = (
{
angle = 201.8735;
position = "{488, 47}";
}
);
layerId = "1F0E5D4C-6AE6-4075-B57D-2105569A47FF";
name = "+ horizontale";
paths = (
{
closed = 1;
nodes = (
"392 104 LINE",
"392 376 LINE SMOOTH",
"392 465 OFFCURVE",
"329 512 OFFCURVE",
"218 512 CURVE SMOOTH",
"155 512 OFFCURVE",
"100 491 OFFCURVE",
"48 454 CURVE",
"106 285 LINE",
"111 286 LINE",
"90 399 OFFCURVE",
"133 492 OFFCURVE",
"213 492 CURVE SMOOTH",
"266 492 OFFCURVE",
"306 451 OFFCURVE",
"306 383 CURVE SMOOTH",
"306 114 LINE"
);
},
{
closed = 1;
nodes = (
"199 -12 OFFCURVE",
"242 7 OFFCURVE",
"289 75 CURVE SMOOTH",
"315 113 LINE",
"316 147 LINE",
"269 71 OFFCURVE",
"235 39 OFFCURVE",
"194 39 CURVE SMOOTH",
"149 39 OFFCURVE",
"128 77 OFFCURVE",
"128 125 CURVE SMOOTH",
"128 198 OFFCURVE",
"179 262 OFFCURVE",
"310 308 CURVE",
"309 328 LINE",
"236 301 LINE SMOOTH",
"93 248 OFFCURVE",
"36 183 OFFCURVE",
"36 106 CURVE SMOOTH",
"36 39 OFFCURVE",
"77 -12 OFFCURVE",
"152 -12 CURVE SMOOTH"
);
},
{
closed = 0;
nodes = (
"246.828 627.881 LINE",
"256.011 646.548 OFFCURVE",
"257.297 669.266 OFFCURVE",
"258.507 689.714 CURVE"
);
},
{
closed = 0;
nodes = (
"242.794 672 LINE",
"253.214 657.909 OFFCURVE",
"274.109 644.493 OFFCURVE",
"291.059 639.248 CURVE"
);
}
);
width = 493;
},
{
associatedMasterId = "15398AEC-D437-4D9F-8CD1-FC2630A97B3B";
background = {
paths = (
{
closed = 1;
nodes = (
"304 459 OFFCURVE",
"266 492 OFFCURVE",
"215 492 CURVE SMOOTH",
"133 492 OFFCURVE",
"79 404 OFFCURVE",
"103 298 CURVE",
"98 297 LINE",
"44 454 LINE",
"101 494 OFFCURVE",
"156 512 OFFCURVE",
"219 512 CURVE SMOOTH",
"326 512 OFFCURVE",
"390 461 OFFCURVE",
"390 385 CURVE SMOOTH",
"390 226 OFFCURVE",
"110 214 OFFCURVE",
"110 92 CURVE SMOOTH",
"110 52 OFFCURVE",
"140 8 OFFCURVE",
"213 8 CURVE SMOOTH",
"323 8 OFFCURVE",
"379 107 OFFCURVE",
"355 242 CURVE",
"360 243 LINE",
"418 63 LINE",
"374 20 OFFCURVE",
"294 -15 OFFCURVE",
"209 -15 CURVE SMOOTH",
"120 -15 OFFCURVE",
"24 23 OFFCURVE",
"24 120 CURVE SMOOTH",
"24 286 OFFCURVE",
"304 282 OFFCURVE",
"304 411 CURVE SMOOTH"
);
}
);
};
components = (
{
name = serif_bas;
transform = "{1, 0, 0, 1, -4, 0}";
}
);
guideLines = (
{
angle = 229.2892;
position = "{312, 113}";
},
{
angle = 201.8735;
position = "{484, 47}";
},
{
angle = 107.8601;
position = "{44, 454}";
}
);
layerId = "C1C5539B-A7DD-4360-A550-FD41D0241B64";
name = "Oct 8 19, 11:37";
paths = (
{
closed = 1;
nodes = (
"388 104 LINE",
"388 376 LINE SMOOTH",
"388 465 OFFCURVE",
"325 512 OFFCURVE",
"214 512 CURVE SMOOTH",
"151 512 OFFCURVE",
"96 491 OFFCURVE",
"44 454 CURVE",
"98 285 LINE",
"103 286 LINE",
"86 399 OFFCURVE",
"129 492 OFFCURVE",
"209 492 CURVE SMOOTH",
"262 492 OFFCURVE",
"302 451 OFFCURVE",
"302 383 CURVE SMOOTH",
"302 114 LINE"
);
},
{
closed = 1;
nodes = (
"192 -12 OFFCURVE",
"232 12 OFFCURVE",
"282 75 CURVE SMOOTH",
"312 113 LINE",
"313 142 LINE",
"259 69 OFFCURVE",
"226 42 OFFCURVE",
"186 42 CURVE SMOOTH",
"146 42 OFFCURVE",
"124 69 OFFCURVE",
"124 121 CURVE SMOOTH",
"124 200 OFFCURVE",
"175 255 OFFCURVE",
"306 320 CURVE",
"305 339 LINE",
"232 304 LINE SMOOTH",
"93 237 OFFCURVE",
"32 173 OFFCURVE",
"32 94 CURVE SMOOTH",
"32 29 OFFCURVE",
"74 -12 OFFCURVE",
"141 -12 CURVE SMOOTH"
);
}
);
width = 482;
},
{
background = {
paths = (
{
closed = 1;
nodes = (
"308 459 OFFCURVE",
"270 492 OFFCURVE",
"219 492 CURVE SMOOTH",
"137 492 OFFCURVE",
"83 404 OFFCURVE",
"107 298 CURVE",
"102 297 LINE",
"48 454 LINE",
"105 494 OFFCURVE",
"160 512 OFFCURVE",
"223 512 CURVE SMOOTH",
"330 512 OFFCURVE",
"394 461 OFFCURVE",
"394 385 CURVE SMOOTH",
"394 226 OFFCURVE",
"114 214 OFFCURVE",
"114 92 CURVE SMOOTH",
"114 52 OFFCURVE",
"144 8 OFFCURVE",
"217 8 CURVE SMOOTH",
"327 8 OFFCURVE",
"383 107 OFFCURVE",
"359 242 CURVE",
"364 243 LINE",
"422 63 LINE",
"378 20 OFFCURVE",
"298 -15 OFFCURVE",
"213 -15 CURVE SMOOTH",
"124 -15 OFFCURVE",
"28 23 OFFCURVE",
"28 120 CURVE SMOOTH",
"28 286 OFFCURVE",
"308 282 OFFCURVE",
"308 411 CURVE SMOOTH"
);
}
);
};
components = (
{
name = serif_bas;
}
);
guideLines = (
{
angle = 201.8735;
position = "{488, 47}";
},
{
angle = 107.8601;
position = "{48, 454}";
}
);
layerId = "15398AEC-D437-4D9F-8CD1-FC2630A97B3B";
paths = (
{
closed = 1;
nodes = (
"392 104 LINE",
"392 376 LINE SMOOTH",
"392 465 OFFCURVE",
"323 512 OFFCURVE",
"218 512 CURVE SMOOTH",
"149 512 OFFCURVE",
"100 491 OFFCURVE",
"48 454 CURVE",
"102 286 LINE",
"107 287 LINE",
"86 399 OFFCURVE",
"134 492 OFFCURVE",
"215 492 CURVE SMOOTH",
"269 492 OFFCURVE",
"306 451 OFFCURVE",
"306 383 CURVE SMOOTH",
"306 114 LINE"
);
},
{
closed = 1;
nodes = (
"205 -12 OFFCURVE",
"247 15 OFFCURVE",
"289 75 CURVE SMOOTH",
"315 113 LINE",
"316 147 LINE",
"269 71 OFFCURVE",
"234 39 OFFCURVE",
"193 39 CURVE SMOOTH",
"149 39 OFFCURVE",
"128 77 OFFCURVE",
"128 126 CURVE SMOOTH",
"128 189 OFFCURVE",
"162 254 OFFCURVE",
"277 296 CURVE SMOOTH",
"310 308 LINE",
"309 326 LINE",
"123 275 OFFCURVE",
"36 210 OFFCURVE",
"36 110 CURVE SMOOTH",
"36 41 OFFCURVE",
"76 -12 OFFCURVE",
"151 -12 CURVE SMOOTH"
);
}
);
width = 493;
},
{
anchors = (
{
name = bottom;
position = "{262, 0}";
},
{
name = ogonek;
position = "{475, 10}";
},
{
name = top;
position = "{222, 500}";
}
);
components = (
{
alignment = -1;
name = serif_bas;
transform = "{1, 0, 0, 1, 18, -3}";
}
);
layerId = "263FFEFB-F93F-4256-96DD-DB57701D3362";
paths = (
{
closed = 1;
nodes = (
"414 104 LINE",
"414 371 LINE SMOOTH",
"414 462 OFFCURVE",
"352 507 OFFCURVE",
"240 507 CURVE SMOOTH",
"167 507 OFFCURVE",
"109 486 OFFCURVE",
"58 449 CURVE",
"108 299 LINE",
"121 302 LINE",
"99 396 OFFCURVE",
"139 471 OFFCURVE",
"231 471 CURVE SMOOTH",
"294 471 OFFCURVE",
"328 436 OFFCURVE",
"328 362 CURVE SMOOTH",
"328 114 LINE"
);
},
{
closed = 1;
nodes = (
"245 -9 OFFCURVE",
"293 19 OFFCURVE",
"328 80 CURVE SMOOTH",
"339 100 LINE",
"334 157 LINE",
"305 75 OFFCURVE",
"265 39 OFFCURVE",
"212 39 CURVE SMOOTH",
"166 39 OFFCURVE",
"140 67 OFFCURVE",
"140 126 CURVE SMOOTH",
"140 199 OFFCURVE",
"188 253 OFFCURVE",
"293 288 CURVE SMOOTH",
"332 301 LINE",
"331 332 LINE",
"124 276 OFFCURVE",
"48 213 OFFCURVE",
"48 118 CURVE SMOOTH",
"48 43 OFFCURVE",
"94 -9 OFFCURVE",
"181 -9 CURVE SMOOTH"
);
}
);
width = 518;
},
{
associatedMasterId = "263FFEFB-F93F-4256-96DD-DB57701D3362";
components = (
{
alignment = -1;
name = serif_bas;
transform = "{1, 0, 0, 1, 6, 0}";
}
);
layerId = "4235A903-4CE1-4F18-98D0-CA7050AB3F11";
name = "Oct 8 19, 21:04";
paths = (
{
closed = 1;
nodes = (
"398 104 LINE",
"398 376 LINE SMOOTH",
"398 467 OFFCURVE",
"336 512 OFFCURVE",
"224 512 CURVE SMOOTH",
"151 512 OFFCURVE",
"97 493 OFFCURVE",
"42 454 CURVE",
"92 299 LINE",
"105 302 LINE",
"83 401 OFFCURVE",
"123 476 OFFCURVE",
"215 476 CURVE SMOOTH",
"278 476 OFFCURVE",
"312 441 OFFCURVE",
"312 367 CURVE SMOOTH",
"312 114 LINE"
);
},
{
closed = 1;
nodes = (
"229 -12 OFFCURVE",
"276 18 OFFCURVE",
"312 80 CURVE SMOOTH",
"323 99 LINE",
"318 156 LINE",
"289 76 OFFCURVE",
"249 39 OFFCURVE",
"196 39 CURVE SMOOTH",
"150 39 OFFCURVE",
"124 67 OFFCURVE",
"124 123 CURVE SMOOTH",
"124 198 OFFCURVE",
"172 253 OFFCURVE",
"277 288 CURVE SMOOTH",
"316 301 LINE",
"315 332 LINE",
"108 276 OFFCURVE",
"32 212 OFFCURVE",
"32 115 CURVE SMOOTH",
"32 41 OFFCURVE",
"78 -12 OFFCURVE",
"164 -12 CURVE SMOOTH"
);
}
);
width = 493;
},
{
anchors = (
{
name = bottom;
position = "{262, 0}";
},
{
name = ogonek;
position = "{475, 10}";
},
{
name = top;
position = "{222, 500}";
}
);
components = (
{
alignment = -1;
name = serif_bas;
transform = "{1, 0, 0, 1, 18, -3}";
}
);
layerId = "49567DAC-64C1-4764-83F5-5952E919F015";
paths = (
{
closed = 1;
nodes = (
"414 104 LINE",
"414 371 LINE SMOOTH",
"414 462 OFFCURVE",
"352 507 OFFCURVE",
"240 507 CURVE SMOOTH",
"167 507 OFFCURVE",
"109 486 OFFCURVE",
"58 449 CURVE",
"108 299 LINE",
"121 302 LINE",
"99 396 OFFCURVE",
"139 471 OFFCURVE",
"231 471 CURVE SMOOTH",
"294 471 OFFCURVE",
"328 436 OFFCURVE",
"328 362 CURVE SMOOTH",
"328 114 LINE"
);
},
{
closed = 1;
nodes = (
"245 -9 OFFCURVE",
"293 19 OFFCURVE",
"328 80 CURVE SMOOTH",
"339 100 LINE",
"334 157 LINE",
"305 75 OFFCURVE",
"265 39 OFFCURVE",
"212 39 CURVE SMOOTH",
"166 39 OFFCURVE",
"140 67 OFFCURVE",
"140 126 CURVE SMOOTH",
"140 199 OFFCURVE",
"188 253 OFFCURVE",
"293 288 CURVE SMOOTH",
"332 301 LINE",
"331 332 LINE",
"124 276 OFFCURVE",
"48 213 OFFCURVE",
"48 118 CURVE SMOOTH",
"48 43 OFFCURVE",
"94 -9 OFFCURVE",
"181 -9 CURVE SMOOTH"
);
}
);
width = 518;
},
{
associatedMasterId = "49567DAC-64C1-4764-83F5-5952E919F015";
components = (
{
alignment = -1;
name = serif_bas;
transform = "{1, 0, 0, 1, 6, 0}";
}
);
layerId = "A4A87ACA-1D71-45E4-B7A4-18694A94D9D5";
name = "Oct 8 19, 21:04";
paths = (
{
closed = 1;
nodes = (
"398 104 LINE",
"398 376 LINE SMOOTH",
"398 467 OFFCURVE",
"336 512 OFFCURVE",
"224 512 CURVE SMOOTH",
"151 512 OFFCURVE",
"97 493 OFFCURVE",
"42 454 CURVE",
"92 299 LINE",
"105 302 LINE",
"83 401 OFFCURVE",
"123 476 OFFCURVE",
"215 476 CURVE SMOOTH",
"278 476 OFFCURVE",
"312 441 OFFCURVE",
"312 367 CURVE SMOOTH",
"312 114 LINE"
);
},
{
closed = 1;
nodes = (
"229 -12 OFFCURVE",
"276 18 OFFCURVE",
"312 80 CURVE SMOOTH",
"323 99 LINE",
"318 156 LINE",
"289 76 OFFCURVE",
"249 39 OFFCURVE",
"196 39 CURVE SMOOTH",
"150 39 OFFCURVE",
"124 67 OFFCURVE",
"124 123 CURVE SMOOTH",
"124 198 OFFCURVE",
"172 253 OFFCURVE",
"277 288 CURVE SMOOTH",
"316 301 LINE",
"315 332 LINE",
"108 276 OFFCURVE",
"32 212 OFFCURVE",
"32 115 CURVE SMOOTH",
"32 41 OFFCURVE",
"78 -12 OFFCURVE",
"164 -12 CURVE SMOOTH"
);
}
);
width = 493;
}
);
rightKerningGroup = u;
unicode = 0061;
},
{
color = 4;
glyphname = b;
lastChange = "2019-10-10 09:19:32 +0000";
layers = (
{
components = (
{
name = attaque_long;
transform = "{1, 0, 0, 1, -54, 220}";
},
{
name = sortie_qb;
transform = "{-1, 0, 0, -1, 596, 507}";
},
{
name = pd;
transform = "{1, 0, 0, 1, -2, 0}";
}
);
layerId = "15398AEC-D437-4D9F-8CD1-FC2630A97B3B";
paths = (
{
closed = 1;
nodes = (
"106 620 LINE",
"106 62 LINE",
"192 111 LINE",
"192 616 LINE"
);
}
);
width = 556;
},
{
components = (
{
alignment = -1;
name = attaque_long;
transform = "{1, 0, 0, 1, -78, 220}";
},
{
alignment = -1;
name = sortie_qb;
transform = "{-1, 0, 0, -1, 581, 497}";
},
{
name = bq;
transform = "{1, 0, 0, 1, -24, 0}";
}
);
guideLines = (
{
angle = 90;
position = "{250, 91}";
}
);
layerId = "263FFEFB-F93F-4256-96DD-DB57701D3362";
paths = (
{
closed = 1;
nodes = (
"87 620 LINE",
"87 62 LINE",
"173 101 LINE",
"173 616 LINE"
);
}
);
width = 560;
},
{
associatedMasterId = "263FFEFB-F93F-4256-96DD-DB57701D3362";
background = {
paths = (
{
closed = 1;
nodes = (
"282 512 OFFCURVE",
"235 482 OFFCURVE",
"204 439 CURVE SMOOTH",
"177 401 LINE",
"177 336 LINE",
"227 434 OFFCURVE",
"272 462 OFFCURVE",
"316 462 CURVE SMOOTH",
"370 462 OFFCURVE",
"440 420 OFFCURVE",
"440 250 CURVE SMOOTH",
"440 94 OFFCURVE",
"383 38 OFFCURVE",
"320 38 CURVE SMOOTH",
"262 38 OFFCURVE",
"212 86 OFFCURVE",
"177 160 CURVE",
"176 92 LINE",
"197 63 LINE SMOOTH",
"227 21 OFFCURVE",
"278 -12 OFFCURVE",
"343 -12 CURVE SMOOTH",
"454 -12 OFFCURVE",
"532 84 OFFCURVE",
"532 250 CURVE SMOOTH",
"532 424 OFFCURVE",
"445 512 OFFCURVE",
"342 512 CURVE SMOOTH"
);
}
);
};
components = (
{
alignment = -1;
name = attaque_long;
transform = "{1, 0, 0, 1, -55, 220}";
},
{
alignment = -1;
name = sortie_qb;
transform = "{-1, 0, 0, -1, 596, 507}";
},
{
name = bq;
transform = "{1, 0, 0, 1, -1, 0}";
}
);
guideLines = (
{
angle = 90;
position = "{192, 111}";
}
);
layerId = "D0979E5F-7A1B-48C3-874F-6599D50D8BDD";
name = "Oct 9 19, 10:29";
paths = (
{
closed = 1;
nodes = (
"106 620 LINE",
"106 62 LINE",
"192 111 LINE",
"192 616 LINE"
);
},
{
closed = 1;
nodes = (
"282 512 OFFCURVE",
"235 482 OFFCURVE",
"204 439 CURVE SMOOTH",
"177 401 LINE",
"177 336 LINE",
"227 434 OFFCURVE",
"272 462 OFFCURVE",
"316 462 CURVE SMOOTH",
"370 462 OFFCURVE",
"440 420 OFFCURVE",
"440 250 CURVE SMOOTH",
"440 94 OFFCURVE",
"383 38 OFFCURVE",
"320 38 CURVE SMOOTH",
"262 38 OFFCURVE",
"212 86 OFFCURVE",
"177 160 CURVE",
"167 97 LINE",
"189 68 LINE SMOOTH",
"220 27 OFFCURVE",
"278 -12 OFFCURVE",
"343 -12 CURVE SMOOTH",
"454 -12 OFFCURVE",
"532 84 OFFCURVE",
"532 250 CURVE SMOOTH",
"532 424 OFFCURVE",
"445 512 OFFCURVE",
"342 512 CURVE SMOOTH"
);
}
);
width = 564;
},
{
components = (
{
alignment = -1;
name = attaque_long;
transform = "{1, 0, 0, 1, -68, 220}";
},
{
alignment = -1;
name = sortie_qb;
transform = "{-1, 0, 0, -1, 591, 497}";
},
{
name = bq;
transform = "{1, 0, 0, 1, -14, 0}";
}
);
guideLines = (
{
angle = 90;
position = "{260, 91}";
}
);
layerId = "49567DAC-64C1-4764-83F5-5952E919F015";
paths = (
{
closed = 1;
nodes = (
"97 620 LINE",
"97 62 LINE",
"183 101 LINE",
"183 616 LINE"
);
}
);
width = 570;
},
{
associatedMasterId = "49567DAC-64C1-4764-83F5-5952E919F015";
background = {
paths = (
{
closed = 1;
nodes = (
"282 512 OFFCURVE",
"235 482 OFFCURVE",
"204 439 CURVE SMOOTH",
"177 401 LINE",
"177 336 LINE",
"227 434 OFFCURVE",
"272 462 OFFCURVE",
"316 462 CURVE SMOOTH",
"370 462 OFFCURVE",
"440 420 OFFCURVE",
"440 250 CURVE SMOOTH",
"440 94 OFFCURVE",
"383 38 OFFCURVE",
"320 38 CURVE SMOOTH",
"262 38 OFFCURVE",
"212 86 OFFCURVE",
"177 160 CURVE",
"176 92 LINE",
"197 63 LINE SMOOTH",
"227 21 OFFCURVE",
"278 -12 OFFCURVE",
"343 -12 CURVE SMOOTH",
"454 -12 OFFCURVE",
"532 84 OFFCURVE",
"532 250 CURVE SMOOTH",
"532 424 OFFCURVE",
"445 512 OFFCURVE",
"342 512 CURVE SMOOTH"
);
}
);
};
components = (
{
alignment = -1;
name = attaque_long;
transform = "{1, 0, 0, 1, -55, 220}";
},
{
alignment = -1;
name = sortie_qb;
transform = "{-1, 0, 0, -1, 596, 507}";
},
{
name = bq;
transform = "{1, 0, 0, 1, -1, 0}";
}
);
guideLines = (
{
angle = 90;
position = "{192, 111}";
}
);
layerId = "9A95BBC2-E480-4CF3-A36F-8E8A3F93AEA3";
name = "Oct 9 19, 10:29";
paths = (
{
closed = 1;
nodes = (
"106 620 LINE",
"106 62 LINE",
"192 111 LINE",
"192 616 LINE"
);
},
{
closed = 1;
nodes = (
"282 512 OFFCURVE",
"235 482 OFFCURVE",
"204 439 CURVE SMOOTH",
"177 401 LINE",
"177 336 LINE",
"227 434 OFFCURVE",
"272 462 OFFCURVE",
"316 462 CURVE SMOOTH",
"370 462 OFFCURVE",
"440 420 OFFCURVE",
"440 250 CURVE SMOOTH",
"440 94 OFFCURVE",
"383 38 OFFCURVE",
"320 38 CURVE SMOOTH",
"262 38 OFFCURVE",
"212 86 OFFCURVE",
"177 160 CURVE",
"167 97 LINE",
"189 68 LINE SMOOTH",
"220 27 OFFCURVE",
"278 -12 OFFCURVE",
"343 -12 CURVE SMOOTH",
"454 -12 OFFCURVE",
"532 84 OFFCURVE",
"532 250 CURVE SMOOTH",
"532 424 OFFCURVE",
"445 512 OFFCURVE",
"342 512 CURVE SMOOTH"
);
}
);
width = 564;
}
);
leftKerningGroup = p;
rightMetricsKey = "=|d";
unicode = 0062;
},
{
color = 4;
glyphname = c;
lastChange = "2019-10-10 09:32:09 +0000";
layers = (
{
background = {
paths = (
{
closed = 1;
nodes = (
"330 214 OFFCURVE",
"52 214 OFFCURVE",
"52 379 CURVE SMOOTH",
"52 475 OFFCURVE",
"149 512 OFFCURVE",
"237 512 CURVE SMOOTH",
"323 512 OFFCURVE",
"393 477 OFFCURVE",
"437 434 CURVE",
"379 254 LINE",
"374 255 LINE",
"398 392 OFFCURVE",
"343 492 OFFCURVE",
"237 492 CURVE SMOOTH",
"163 492 OFFCURVE",
"138 442 OFFCURVE",
"138 403 CURVE SMOOTH",
"138 279 OFFCURVE",
"416 274 OFFCURVE",
"416 110 CURVE SMOOTH",
"416 32 OFFCURVE",
"349 -15 OFFCURVE",
"244 -15 CURVE SMOOTH",
"179 -15 OFFCURVE",
"131 3 OFFCURVE",
"70 43 CURVE",
"128 200 LINE",
"133 199 LINE",
"109 93 OFFCURVE",
"164 5 OFFCURVE",
"244 5 CURVE SMOOTH",
"294 5 OFFCURVE",
"330 39 OFFCURVE",
"330 85 CURVE SMOOTH"
);
}
);
};
layerId = "15398AEC-D437-4D9F-8CD1-FC2630A97B3B";
paths = (
{
closed = 1;
nodes = (
"173 26 OFFCURVE",
"116 98 OFFCURVE",
"116 253 CURVE SMOOTH",
"116 415 OFFCURVE",
"167 492 OFFCURVE",
"252 492 CURVE SMOOTH",
"348 492 OFFCURVE",
"398 392 OFFCURVE",
"373 255 CURVE",
"380 254 LINE",
"436 435 LINE",
"393 477 OFFCURVE",
"335 512 OFFCURVE",
"252 512 CURVE SMOOTH",
"121 512 OFFCURVE",
"24 424 OFFCURVE",
"24 253 CURVE SMOOTH",
"24 87 OFFCURVE",
"115 -12 OFFCURVE",
"243 -12 CURVE SMOOTH",
"344 -12 OFFCURVE",
"410 50 OFFCURVE",
"430 183 CURVE",
"424 184 LINE",
"404 76 OFFCURVE",
"346 26 OFFCURVE",
"267 26 CURVE SMOOTH"
);
}
);
width = 460;
},
{
associatedMasterId = "15398AEC-D437-4D9F-8CD1-FC2630A97B3B";
background = {
paths = (
{
closed = 1;
nodes = (
"330 214 OFFCURVE",
"52 214 OFFCURVE",
"52 379 CURVE SMOOTH",
"52 475 OFFCURVE",
"149 512 OFFCURVE",
"237 512 CURVE SMOOTH",
"323 512 OFFCURVE",
"393 477 OFFCURVE",
"437 434 CURVE",
"379 254 LINE",
"374 255 LINE",
"398 392 OFFCURVE",
"343 492 OFFCURVE",
"237 492 CURVE SMOOTH",
"163 492 OFFCURVE",
"138 442 OFFCURVE",
"138 403 CURVE SMOOTH",
"138 279 OFFCURVE",
"416 274 OFFCURVE",
"416 110 CURVE SMOOTH",
"416 32 OFFCURVE",
"349 -15 OFFCURVE",
"244 -15 CURVE SMOOTH",
"179 -15 OFFCURVE",
"131 3 OFFCURVE",
"70 43 CURVE",
"128 200 LINE",
"133 199 LINE",
"109 93 OFFCURVE",
"164 5 OFFCURVE",
"244 5 CURVE SMOOTH",
"294 5 OFFCURVE",
"330 39 OFFCURVE",
"330 85 CURVE SMOOTH"
);
}
);
};
layerId = "88DFD84B-26C8-4B2F-985E-D0E7DB7951D7";
name = "Oct 8 19, 10:05";
paths = (
{
closed = 1;
nodes = (
"173 16 OFFCURVE",
"116 91 OFFCURVE",
"116 253 CURVE SMOOTH",
"116 415 OFFCURVE",
"167 492 OFFCURVE",
"252 492 CURVE SMOOTH",
"348 492 OFFCURVE",
"398 392 OFFCURVE",
"373 255 CURVE",
"380 254 LINE",
"436 435 LINE",
"393 477 OFFCURVE",
"335 512 OFFCURVE",
"252 512 CURVE SMOOTH",
"121 512 OFFCURVE",
"24 424 OFFCURVE",
"24 253 CURVE SMOOTH",
"24 87 OFFCURVE",
"115 -12 OFFCURVE",
"244 -12 CURVE SMOOTH",
"346 -12 OFFCURVE",
"405 50 OFFCURVE",
"428 173 CURVE",
"422 174 LINE",
"399 69 OFFCURVE",
"348 16 OFFCURVE",
"268 16 CURVE SMOOTH"
);
}
);
width = 447;
},
{
anchors = (
{
name = bottom;
position = "{252, 0}";
},
{
name = top;
position = "{272, 500}";
}
);
background = {
paths = (
{
closed = 1;
nodes = (
"450 173 LINE",
"428 80 OFFCURVE",
"379 38 OFFCURVE",
"301 38 CURVE SMOOTH",
"203 38 OFFCURVE",
"142 106 OFFCURVE",
"142 253 CURVE SMOOTH",
"142 408 OFFCURVE",
"196 482 OFFCURVE",
"266 482 CURVE SMOOTH",
"332 482 OFFCURVE",
"381 417 OFFCURVE",
"381 254 CURVE",
"472 254 LINE",
"472 432 OFFCURVE",
"379 512 OFFCURVE",
"266 512 CURVE SMOOTH",
"143 512 OFFCURVE",
"50 424 OFFCURVE",
"50 253 CURVE SMOOTH",
"50 88 OFFCURVE",
"142 -10 OFFCURVE",
"274 -10 CURVE SMOOTH",
"376 -10 OFFCURVE",
"445 48 OFFCURVE",
"464 170 CURVE"
);
},
{
closed = 1;
nodes = (
"100 254 LINE",
"472 254 LINE",
"469 284 LINE",
"100 284 LINE"
);
}
);
};
layerId = "263FFEFB-F93F-4256-96DD-DB57701D3362";
paths = (
{
closed = 1;
nodes = (
"206 39 OFFCURVE",
"142 107 OFFCURVE",
"142 253 CURVE SMOOTH",
"142 401 OFFCURVE",
"193 472 OFFCURVE",
"279 472 CURVE SMOOTH",
"376 472 OFFCURVE",
"421 380 OFFCURVE",
"394 256 CURVE",
"407 253 LINE",
"464 435 LINE",
"421 477 OFFCURVE",
"363 512 OFFCURVE",
"279 512 CURVE SMOOTH",
"147 512 OFFCURVE",
"50 424 OFFCURVE",
"50 253 CURVE SMOOTH",
"50 89 OFFCURVE",
"143 -9 OFFCURVE",
"272 -9 CURVE SMOOTH",
"373 -9 OFFCURVE",
"440 51 OFFCURVE",
"460 182 CURVE",
"446 185 LINE",
"425 86 OFFCURVE",
"373 39 OFFCURVE",
"297 39 CURVE SMOOTH"
);
}
);
width = 504;
},
{
anchors = (
{
name = bottom;
position = "{252, 0}";
},
{
name = top;
position = "{272, 500}";
}
);
background = {
paths = (
{
closed = 1;
nodes = (
"450 173 LINE",
"428 80 OFFCURVE",
"379 38 OFFCURVE",
"301 38 CURVE SMOOTH",
"203 38 OFFCURVE",
"142 106 OFFCURVE",
"142 253 CURVE SMOOTH",
"142 408 OFFCURVE",
"196 482 OFFCURVE",
"266 482 CURVE SMOOTH",
"332 482 OFFCURVE",
"381 417 OFFCURVE",
"381 254 CURVE",
"472 254 LINE",
"472 432 OFFCURVE",
"379 512 OFFCURVE",
"266 512 CURVE SMOOTH",
"143 512 OFFCURVE",
"50 424 OFFCURVE",
"50 253 CURVE SMOOTH",
"50 88 OFFCURVE",
"142 -10 OFFCURVE",
"274 -10 CURVE SMOOTH",
"376 -10 OFFCURVE",
"445 48 OFFCURVE",
"464 170 CURVE"
);
},
{
closed = 1;
nodes = (
"100 254 LINE",
"472 254 LINE",
"469 284 LINE",
"100 284 LINE"
);
}
);
};
layerId = "49567DAC-64C1-4764-83F5-5952E919F015";
paths = (
{
closed = 1;
nodes = (
"206 39 OFFCURVE",
"142 107 OFFCURVE",
"142 253 CURVE SMOOTH",
"142 401 OFFCURVE",
"193 472 OFFCURVE",
"279 472 CURVE SMOOTH",
"376 472 OFFCURVE",
"422 380 OFFCURVE",
"394 256 CURVE",
"407 253 LINE",
"464 435 LINE",
"421 477 OFFCURVE",
"363 512 OFFCURVE",
"279 512 CURVE SMOOTH",
"147 512 OFFCURVE",
"50 424 OFFCURVE",
"50 253 CURVE SMOOTH",
"50 89 OFFCURVE",
"143 -9 OFFCURVE",
"272 -9 CURVE SMOOTH",
"373 -9 OFFCURVE",
"440 51 OFFCURVE",
"460 182 CURVE",
"446 185 LINE",
"425 86 OFFCURVE",
"373 39 OFFCURVE",
"297 39 CURVE SMOOTH"
);
}
);
width = 504;
}
);
leftMetricsKey = o;
unicode = 0063;
},
{
color = 4;
glyphname = d;
lastChange = "2019-10-09 20:13:14 +0000";
layers = (
{
background = {
components = (
{
name = pd;
transform = "{-1, 0, 0, -1, 559, 500}";
}
);
};
components = (
{
name = pd;
transform = "{-1, 0, 0, -1, 558, 500}";
},
{
alignment = -1;
name = serif_bas;
transform = "{1, 0, 0, 1, 63, 0}";
},
{
name = attaque_long;
transform = "{1, 0, 0, 1, 209, 220}";
}
);
layerId = "15398AEC-D437-4D9F-8CD1-FC2630A97B3B";
paths = (
{
closed = 1;
nodes = (
"369 113 LINE",
"455 93 LINE",
"455 606 LINE",
"369 616 LINE"
);
}
);
width = 559;
},
{
background = {
components = (
{
alignment = -1;
name = serif_bas;
transform = "{1, 0, 0, 1, 81, -3}";
}
);
paths = (
{
closed = 1;
nodes = (
"402 -12 OFFCURVE",
"498 80 OFFCURVE",
"498 250 CURVE SMOOTH",
"498 420 OFFCURVE",
"402 512 OFFCURVE",
"272 512 CURVE SMOOTH",
"142 512 OFFCURVE",
"46 420 OFFCURVE",
"46 250 CURVE SMOOTH",
"46 80 OFFCURVE",
"142 -12 OFFCURVE",
"272 -12 CURVE SMOOTH"
);
},
{
closed = 1;
nodes = (
"196 28 OFFCURVE",
"138 100 OFFCURVE",
"138 250 CURVE SMOOTH",
"138 400 OFFCURVE",
"196 472 OFFCURVE",
"272 472 CURVE SMOOTH",
"348 472 OFFCURVE",
"405 400 OFFCURVE",
"406 250 CURVE SMOOTH",
"406 100 OFFCURVE",
"348 28 OFFCURVE",
"272 28 CURVE SMOOTH"
);
}
);
};
components = (
{
alignment = -1;
name = pd;
transform = "{-1, 0, 0, -1, 584, 500}";
},
{
alignment = -1;
name = serif_bas;
transform = "{1, 0, 0, 1, 81, -3}";
},
{
name = attaque_long;
transform = "{1, 0, 0, 1, 226, 220}";
}
);
layerId = "263FFEFB-F93F-4256-96DD-DB57701D3362";
paths = (
{
closed = 1;
nodes = (
"391 113 LINE",
"477 93 LINE",
"477 606 LINE",
"391 616 LINE"
);
}
);
width = 575;
},
{
background = {
components = (
{
alignment = -1;
name = serif_bas;
transform = "{1, 0, 0, 1, 81, -3}";
}
);
paths = (
{
closed = 1;
nodes = (
"402 -12 OFFCURVE",
"498 80 OFFCURVE",
"498 250 CURVE SMOOTH",
"498 420 OFFCURVE",
"402 512 OFFCURVE",
"272 512 CURVE SMOOTH",
"142 512 OFFCURVE",
"46 420 OFFCURVE",
"46 250 CURVE SMOOTH",
"46 80 OFFCURVE",
"142 -12 OFFCURVE",
"272 -12 CURVE SMOOTH"
);
},
{
closed = 1;
nodes = (
"196 28 OFFCURVE",
"138 100 OFFCURVE",
"138 250 CURVE SMOOTH",
"138 400 OFFCURVE",
"196 472 OFFCURVE",
"272 472 CURVE SMOOTH",
"348 472 OFFCURVE",
"405 400 OFFCURVE",
"406 250 CURVE SMOOTH",
"406 100 OFFCURVE",
"348 28 OFFCURVE",
"272 28 CURVE SMOOTH"
);
}
);
};
components = (
{
alignment = -1;
name = pd;
transform = "{-1, 0, 0, -1, 584, 500}";
},
{
alignment = -1;
name = serif_bas;
transform = "{1, 0, 0, 1, 81, -3}";
},
{
name = attaque_long;
transform = "{1, 0, 0, 1, 226, 220}";
}
);
layerId = "49567DAC-64C1-4764-83F5-5952E919F015";
paths = (
{
closed = 1;
nodes = (
"391 113 LINE",
"477 93 LINE",
"477 606 LINE",
"391 616 LINE"
);
}
);
width = 575;
}
);
unicode = 0064;
},
{
color = 4;
glyphname = e;
lastChange = "2019-10-09 20:13:14 +0000";
layers = (
{
associatedMasterId = "15398AEC-D437-4D9F-8CD1-FC2630A97B3B";
layerId = "292552B5-B9A7-4696-AB21-F92B1295EF3C";
name = "Oct 7 19, 19:42";
paths = (
{
closed = 1;
nodes = (
"429 115 LINE",
"383 31 OFFCURVE",
"339 10 OFFCURVE",
"279 10 CURVE SMOOTH",
"171 10 OFFCURVE",
"112 82 OFFCURVE",
"112 250 CURVE SMOOTH",
"112 419 OFFCURVE",
"168 492 OFFCURVE",
"244 492 CURVE SMOOTH",
"316 492 OFFCURVE",
"367 430 OFFCURVE",
"367 260 CURVE",
"458 260 LINE",
"458 435 OFFCURVE",
"365 508 OFFCURVE",
"244 508 CURVE SMOOTH",
"114 508 OFFCURVE",
"20 421 OFFCURVE",
"20 248 CURVE SMOOTH",
"20 75 OFFCURVE",
"123 -12 OFFCURVE",
"255 -12 CURVE SMOOTH",
"333 -12 OFFCURVE",
"393 20 OFFCURVE",
"435 113 CURVE"
);
},
{
closed = 1;
nodes = (
"70 248 LINE",
"458 248 LINE",
"458 260 LINE",
"70 260 LINE"
);
}
);
width = 468;
},
{
associatedMasterId = "15398AEC-D437-4D9F-8CD1-FC2630A97B3B";
layerId = "5A8E82D1-480C-4FF4-A603-2F1ABAA4EBD4";
name = "Oct 7 19, 20:13";
paths = (
{
closed = 1;
nodes = (
"451 135 LINE",
"389 55 OFFCURVE",
"354 12 OFFCURVE",
"273 12 CURVE SMOOTH",
"172 12 OFFCURVE",
"111 88 OFFCURVE",
"111 253 CURVE SMOOTH",
"111 415 OFFCURVE",
"165 492 OFFCURVE",
"238 492 CURVE SMOOTH",
"303 492 OFFCURVE",
"356 430 OFFCURVE",
"356 260 CURVE",
"447 260 LINE",
"447 435 OFFCURVE",
"354 508 OFFCURVE",
"238 508 CURVE SMOOTH",
"112 508 OFFCURVE",
"19 421 OFFCURVE",
"19 253 CURVE SMOOTH",
"19 87 OFFCURVE",
"111 -12 OFFCURVE",
"247 -12 CURVE SMOOTH",
"351 -12 OFFCURVE",
"397 39 OFFCURVE",
"457 134 CURVE"
);
},
{
closed = 1;
nodes = (
"69 248 LINE",
"447 248 LINE",
"447 260 LINE",
"69 260 LINE"
);
}
);
width = 462;
},
{
background = {
paths = (
{
closed = 1;
nodes = (
"377 -12 OFFCURVE",
"473 80 OFFCURVE",
"473 250 CURVE SMOOTH",
"473 420 OFFCURVE",
"377 512 OFFCURVE",
"247 512 CURVE SMOOTH",
"117 512 OFFCURVE",
"21 420 OFFCURVE",
"21 250 CURVE SMOOTH",
"21 80 OFFCURVE",
"117 -12 OFFCURVE",
"247 -12 CURVE SMOOTH"
);
},
{
closed = 1;
nodes = (
"171 8 OFFCURVE",
"113 86 OFFCURVE",
"113 250 CURVE SMOOTH",
"113 414 OFFCURVE",
"171 492 OFFCURVE",
"247 492 CURVE SMOOTH",
"323 492 OFFCURVE",
"380 414 OFFCURVE",
"381 250 CURVE SMOOTH",
"381 86 OFFCURVE",
"323 8 OFFCURVE",
"247 8 CURVE SMOOTH"
);
}
);
};
layerId = "15398AEC-D437-4D9F-8CD1-FC2630A97B3B";
paths = (
{
closed = 1;
nodes = (
"427 165 LINE",
"404 72 OFFCURVE",
"353 26 OFFCURVE",
"275 26 CURVE SMOOTH",
"177 26 OFFCURVE",
"116 98 OFFCURVE",
"116 253 CURVE SMOOTH",
"116 415 OFFCURVE",
"170 492 OFFCURVE",
"240 492 CURVE SMOOTH",
"306 492 OFFCURVE",
"355 430 OFFCURVE",
"355 260 CURVE",
"446 260 LINE",
"446 438 OFFCURVE",
"353 512 OFFCURVE",
"240 512 CURVE SMOOTH",
"117 512 OFFCURVE",
"24 424 OFFCURVE",
"24 253 CURVE SMOOTH",
"24 87 OFFCURVE",
"116 -12 OFFCURVE",
"248 -12 CURVE SMOOTH",
"350 -12 OFFCURVE",
"410 47 OFFCURVE",
"433 164 CURVE"
);
},
{
closed = 1;
nodes = (
"74 260 LINE",
"446 260 LINE",
"443 280 LINE",
"74 280 LINE"
);
}
);
width = 470;
},
{
anchors = (
{
name = bottom;
position = "{264, 0}";
},
{
name = ogonek;
position = "{464, 10}";
},
{
name = top;
position = "{277, 500}";
}
);
background = {
paths = (
{
closed = 1;
nodes = (
"208 36 OFFCURVE",
"144 105 OFFCURVE",
"144 253 CURVE SMOOTH",
"144 401 OFFCURVE",
"195 472 OFFCURVE",
"281 472 CURVE SMOOTH",
"378 472 OFFCURVE",
"424 380 OFFCURVE",
"396 256 CURVE",
"409 253 LINE",
"466 435 LINE",
"423 477 OFFCURVE",
"365 512 OFFCURVE",
"281 512 CURVE SMOOTH",
"149 512 OFFCURVE",
"52 424 OFFCURVE",
"52 253 CURVE SMOOTH",
"52 87 OFFCURVE",
"145 -12 OFFCURVE",
"274 -12 CURVE SMOOTH",
"375 -12 OFFCURVE",
"442 49 OFFCURVE",
"462 182 CURVE",
"448 185 LINE",
"428 84 OFFCURVE",
"375 36 OFFCURVE",
"299 36 CURVE SMOOTH"
);
}
);
};
layerId = "263FFEFB-F93F-4256-96DD-DB57701D3362";
paths = (
{
closed = 1;
nodes = (
"450 173 LINE",
"428 80 OFFCURVE",
"379 37 OFFCURVE",
"301 37 CURVE SMOOTH",
"203 37 OFFCURVE",
"142 106 OFFCURVE",
"142 253 CURVE SMOOTH",
"142 408 OFFCURVE",
"196 482 OFFCURVE",
"266 482 CURVE SMOOTH",
"332 482 OFFCURVE",
"381 417 OFFCURVE",
"381 254 CURVE",
"472 254 LINE",
"472 432 OFFCURVE",
"379 512 OFFCURVE",
"266 512 CURVE SMOOTH",
"143 512 OFFCURVE",
"50 424 OFFCURVE",
"50 253 CURVE SMOOTH",
"50 88 OFFCURVE",
"142 -11 OFFCURVE",
"274 -11 CURVE SMOOTH",
"376 -11 OFFCURVE",
"445 48 OFFCURVE",
"464 170 CURVE"
);
},
{
closed = 1;
nodes = (
"100 254 LINE",
"472 254 LINE",
"469 284 LINE",
"100 284 LINE"
);
}
);
width = 522;
},
{
anchors = (
{
name = bottom;
position = "{264, 0}";
},
{
name = ogonek;
position = "{464, 10}";
},
{
name = top;
position = "{277, 500}";
}
);
background = {
paths = (
{
closed = 1;
nodes = (
"208 36 OFFCURVE",
"144 105 OFFCURVE",
"144 253 CURVE SMOOTH",
"144 401 OFFCURVE",
"195 472 OFFCURVE",
"281 472 CURVE SMOOTH",
"378 472 OFFCURVE",
"424 380 OFFCURVE",
"396 256 CURVE",
"409 253 LINE",
"466 435 LINE",
"423 477 OFFCURVE",
"365 512 OFFCURVE",
"281 512 CURVE SMOOTH",
"149 512 OFFCURVE",
"52 424 OFFCURVE",
"52 253 CURVE SMOOTH",
"52 87 OFFCURVE",
"145 -12 OFFCURVE",
"274 -12 CURVE SMOOTH",
"375 -12 OFFCURVE",
"442 49 OFFCURVE",
"462 182 CURVE",
"448 185 LINE",
"428 84 OFFCURVE",
"375 36 OFFCURVE",
"299 36 CURVE SMOOTH"
);
}
);
};
layerId = "49567DAC-64C1-4764-83F5-5952E919F015";
paths = (
{
closed = 1;
nodes = (
"450 173 LINE",
"428 80 OFFCURVE",
"379 37 OFFCURVE",
"301 37 CURVE SMOOTH",
"203 37 OFFCURVE",
"142 106 OFFCURVE",
"142 253 CURVE SMOOTH",
"142 408 OFFCURVE",
"196 482 OFFCURVE",
"266 482 CURVE SMOOTH",
"332 482 OFFCURVE",
"381 417 OFFCURVE",
"381 254 CURVE",
"472 254 LINE",
"472 432 OFFCURVE",
"379 512 OFFCURVE",
"266 512 CURVE SMOOTH",
"143 512 OFFCURVE",
"50 424 OFFCURVE",
"50 253 CURVE SMOOTH",
"50 88 OFFCURVE",
"142 -11 OFFCURVE",
"274 -11 CURVE SMOOTH",
"376 -11 OFFCURVE",
"445 48 OFFCURVE",
"464 170 CURVE"
);
},
{
closed = 1;
nodes = (
"100 254 LINE",
"472 254 LINE",
"469 284 LINE",
"100 284 LINE"
);
}
);
width = 522;
}
);
leftKerningGroup = o;
leftMetricsKey = o;
rightKerningGroup = o;
rightMetricsKey = o;
unicode = 0065;
},
{
color = 0;
glyphname = f;
lastChange = "2019-10-10 09:36:45 +0000";
layers = (
{
associatedMasterId = "15398AEC-D437-4D9F-8CD1-FC2630A97B3B";
components = (
{
name = Serif_long;
transform = "{1, 0, 0, 1, -51, 0}";
},
{
name = serif_lonnnnnnng;
transform = "{1, 0, 0, 1, -51, 0}";
}
);
layerId = "C1DE7533-C459-4D61-AF93-2F36ECAE9F68";
name = "Oct 8 19, 10:52";
paths = (
{
closed = 1;
nodes = (
"105 93 LINE",
"148 93 LINE",
"191 110 LINE",
"191 536 LINE",
"105 546 LINE"
);
},
{
closed = 1;
nodes = (
"340 732 OFFCURVE",
"284 732 CURVE SMOOTH",
"200 732 OFFCURVE",
"105 699 OFFCURVE",
"105 546 CURVE",
"191 536 LINE",
"191 652 OFFCURVE",
"227 724 OFFCURVE",
"284 724 CURVE SMOOTH",
"337 724 OFFCURVE",
"363 657 OFFCURVE",
"363 562 CURVE SMOOTH",
"363 541 OFFCURVE",
"361 519 OFFCURVE",
"356 495 CURVE",
"361 494 LINE",
"419 682 LINE",
"384 717 OFFCURVE"
);
},
{
closed = 1;
nodes = (
"39 484 LINE",
"306 484 LINE",
"308 500 LINE",
"41 500 LINE"
);
}
);
width = 379;
},
{
associatedMasterId = "15398AEC-D437-4D9F-8CD1-FC2630A97B3B";
components = (
{
name = Serif_long;
transform = "{1, 0, 0, 1, -51, 0}";
},
{
name = serif_lonnnnnnng;
transform = "{1, 0, 0, 1, -51, 0}";
}
);
guideLines = (
{
angle = 252.0041;
position = "{395, 682}";
}
);
layerId = "3B4BD861-8C61-40C8-AE85-C35C45B2AFDD";
name = "Oct 8 19, 11:17";
paths = (
{
closed = 1;
nodes = (
"105 93 LINE",
"148 93 LINE",
"191 110 LINE",
"191 526 LINE",
"105 536 LINE"
);
},
{
closed = 1;
nodes = (
"333 732 OFFCURVE",
"272 732 CURVE SMOOTH",
"192 732 OFFCURVE",
"105 699 OFFCURVE",
"105 536 CURVE",
"191 526 LINE",
"191 652 OFFCURVE",
"222 724 OFFCURVE",
"272 724 CURVE SMOOTH",
"336 724 OFFCURVE",
"351 604 OFFCURVE",
"334 531 CURVE",
"339 530 LINE",
"385 672 LINE",
"354 712 OFFCURVE"
);
},
{
closed = 1;
nodes = (
"39 484 LINE",
"306 484 LINE",
"308 500 LINE",
"41 500 LINE"
);
}
);
width = 389;
},
{
components = (
{
name = Serif_long;
transform = "{1, 0, 0, 1, -51, 0}";
},
{
name = serif_lonnnnnnng;
transform = "{1, 0, 0, 1, -51, 0}";
}
);
guideLines = (
{
angle = 252.0041;
position = "{395, 682}";
}
);
layerId = "15398AEC-D437-4D9F-8CD1-FC2630A97B3B";
paths = (
{
closed = 1;
nodes = (
"105 93 LINE",
"148 93 LINE",
"191 110 LINE",
"191 526 LINE",
"105 536 LINE"
);
},
{
closed = 1;
nodes = (
"331 732 OFFCURVE",
"272 732 CURVE SMOOTH",
"195 732 OFFCURVE",
"105 699 OFFCURVE",
"105 536 CURVE",
"191 526 LINE",
"191 651 OFFCURVE",
"224 712 OFFCURVE",
"272 712 CURVE SMOOTH",
"336 712 OFFCURVE",
"361 603 OFFCURVE",
"344 531 CURVE",
"349 530 LINE",
"395 672 LINE",
"362 712 OFFCURVE"
);
},
{
closed = 1;
nodes = (
"39 480 LINE",
"306 480 LINE",
"308 500 LINE",
"41 500 LINE"
);
}
);
width = 389;
},
{
components = (
{
alignment = -1;
name = Serif_long;
transform = "{1, 0, 0, 1, -51, 0}";
},
{
alignment = -1;
name = serif_lonnnnnnng;
transform = "{1, 0, 0, 1, -51, 0}";
}
);
layerId = "263FFEFB-F93F-4256-96DD-DB57701D3362";
paths = (
{
closed = 1;
nodes = (
"109 0 LINE",
"195 0 LINE",
"195 526 LINE",
"109 516 LINE"
);
},
{
closed = 1;
nodes = (
"366 712 OFFCURVE",
"335 732 OFFCURVE",
"276 732 CURVE SMOOTH",
"199 732 OFFCURVE",
"109 699 OFFCURVE",
"109 516 CURVE",
"195 526 LINE",
"195 640 OFFCURVE",
"227 696 OFFCURVE",
"276 696 CURVE SMOOTH",
"340 696 OFFCURVE",
"357 600 OFFCURVE",
"340 534 CURVE",
"353 530 LINE",
"399 672 LINE"
);
},
{
closed = 1;
nodes = (
"34 496 LINE",
"34 470 LINE",
"297 470 LINE",
"301 474 LINE",
"301 500 LINE",
"38 500 LINE"
);
}
);
width = 367;
},
{
components = (
{
alignment = -1;
name = Serif_long;
transform = "{1, 0, 0, 1, -51, 0}";
},
{
alignment = -1;
name = serif_lonnnnnnng;
transform = "{1, 0, 0, 1, -51, 0}";
}
);
layerId = "49567DAC-64C1-4764-83F5-5952E919F015";
paths = (
{
closed = 1;
nodes = (
"109 0 LINE",
"195 0 LINE",
"195 526 LINE",
"109 516 LINE"
);
},
{
closed = 1;
nodes = (
"366 712 OFFCURVE",
"335 732 OFFCURVE",
"276 732 CURVE SMOOTH",
"199 732 OFFCURVE",
"109 699 OFFCURVE",
"109 516 CURVE",
"195 526 LINE",
"195 640 OFFCURVE",
"227 696 OFFCURVE",
"276 696 CURVE SMOOTH",
"340 696 OFFCURVE",
"357 600 OFFCURVE",
"340 534 CURVE",
"353 530 LINE",
"399 672 LINE"
);
},
{
closed = 1;
nodes = (
"34 496 LINE",
"34 470 LINE",
"297 470 LINE",
"301 474 LINE",
"301 500 LINE",
"38 500 LINE"
);
}
);
width = 367;
}
);
unicode = 0066;
},
{
color = 3;
glyphname = g;
lastChange = "2019-10-09 20:13:20 +0000";
layers = (
{
layerId = "15398AEC-D437-4D9F-8CD1-FC2630A97B3B";
paths = (
{
closed = 1;
nodes = (
"407 152 OFFCURVE",
"474 228 OFFCURVE",
"474 330 CURVE SMOOTH",
"474 432 OFFCURVE",
"407 508 OFFCURVE",
"278 508 CURVE SMOOTH",
"149 508 OFFCURVE",
"82 432 OFFCURVE",
"82 330 CURVE SMOOTH",
"82 228 OFFCURVE",
"149 152 OFFCURVE",
"278 152 CURVE SMOOTH"
);
},
{
closed = 1;
nodes = (
"220 165 OFFCURVE",
"172 228 OFFCURVE",
"172 330 CURVE SMOOTH",
"172 432 OFFCURVE",
"220 495 OFFCURVE",
"278 495 CURVE SMOOTH",
"336 495 OFFCURVE",
"384 431 OFFCURVE",
"384 327 CURVE SMOOTH",
"384 227 OFFCURVE",
"335 165 OFFCURVE",
"278 165 CURVE SMOOTH"
);
},
{
closed = 1;
nodes = (
"103 28 OFFCURVE",
"144 -4 OFFCURVE",
"286 -4 CURVE",
"346 82 LINE",
"175 82 OFFCURVE",
"155 104 OFFCURVE",
"155 121 CURVE SMOOTH",
"155 136 OFFCURVE",
"176 153 OFFCURVE",
"194 168 CURVE",
"177 176 LINE",
"146 149 OFFCURVE",
"103 126 OFFCURVE",
"103 76 CURVE SMOOTH"
);
},
{
closed = 1;
nodes = (
"490 -22 OFFCURVE",
"436 -4 OFFCURVE",
"286 -4 CURVE",
"346 82 LINE",
"486 82 OFFCURVE",
"522 36 OFFCURVE",
"523 -44 CURVE",
"490 -75 LINE"
);
},
{
closed = 1;
nodes = (
"60 -70 OFFCURVE",
"76 -40 OFFCURVE",
"101 -15 CURVE",
"281 -76 LINE",
"280 -83 LINE",
"253 -75 OFFCURVE",
"219 -70 OFFCURVE",
"199 -70 CURVE SMOOTH",
"151 -70 OFFCURVE",
"125 -86 OFFCURVE",
"125 -121 CURVE SMOOTH",
"125 -157 OFFCURVE",
"190 -195 OFFCURVE",
"284 -195 CURVE SMOOTH",
"415 -195 OFFCURVE",
"493 -122 OFFCURVE",
"490 -75 CURVE",
"523 -44 LINE",
"522 -130 OFFCURVE",
"431 -211 OFFCURVE",
"283 -211 CURVE SMOOTH",
"194 -211 OFFCURVE",
"60 -178 OFFCURVE",
"60 -99 CURVE SMOOTH"
);
},
{
closed = 1;
nodes = (
"425 485 LINE SMOOTH",
"441 508 OFFCURVE",
"456 517 OFFCURVE",
"468 517 CURVE SMOOTH",
"482 517 OFFCURVE",
"493 509 OFFCURVE",
"509 468 CURVE SMOOTH",
"528 419 LINE",
"538 423 LINE",
"493 550 LINE SMOOTH",
"487 567 OFFCURVE",
"481 587 OFFCURVE",
"465 587 CURVE SMOOTH",
"455 587 OFFCURVE",
"443 562 OFFCURVE",
"433 541 CURVE SMOOTH",
"397 468 LINE",
"405 455 LINE"
);
}
);
width = 600;
},
{
associatedMasterId = "263FFEFB-F93F-4256-96DD-DB57701D3362";
layerId = "844C84A5-0AFE-4741-A952-EE1ED16C9526";
name = "Oct 8 19, 18:29";
paths = (
{
closed = 1;
nodes = (
"407 152 OFFCURVE",
"474 228 OFFCURVE",
"474 330 CURVE SMOOTH",
"474 432 OFFCURVE",
"407 508 OFFCURVE",
"278 508 CURVE SMOOTH",
"149 508 OFFCURVE",
"82 432 OFFCURVE",
"82 330 CURVE SMOOTH",
"82 228 OFFCURVE",
"149 152 OFFCURVE",
"278 152 CURVE SMOOTH"
);
},
{
closed = 1;
nodes = (
"220 165 OFFCURVE",
"172 228 OFFCURVE",
"172 330 CURVE SMOOTH",
"172 432 OFFCURVE",
"220 495 OFFCURVE",
"278 495 CURVE SMOOTH",
"336 495 OFFCURVE",
"384 431 OFFCURVE",
"384 327 CURVE SMOOTH",
"384 227 OFFCURVE",
"335 165 OFFCURVE",
"278 165 CURVE SMOOTH"
);
},
{
closed = 1;
nodes = (
"103 28 OFFCURVE",
"144 -4 OFFCURVE",
"286 -4 CURVE",
"346 82 LINE",
"175 82 OFFCURVE",
"155 104 OFFCURVE",
"155 121 CURVE SMOOTH",
"155 136 OFFCURVE",
"176 153 OFFCURVE",
"194 168 CURVE",
"177 176 LINE",
"146 149 OFFCURVE",
"103 126 OFFCURVE",
"103 76 CURVE SMOOTH"
);
},
{
closed = 1;
nodes = (
"490 -22 OFFCURVE",
"436 -4 OFFCURVE",
"286 -4 CURVE",
"346 82 LINE",
"486 82 OFFCURVE",
"522 36 OFFCURVE",
"523 -44 CURVE",
"490 -75 LINE"
);
},
{
closed = 1;
nodes = (
"60 -70 OFFCURVE",
"76 -40 OFFCURVE",
"101 -15 CURVE",
"281 -76 LINE",
"280 -83 LINE",
"253 -75 OFFCURVE",
"219 -70 OFFCURVE",
"199 -70 CURVE SMOOTH",
"151 -70 OFFCURVE",
"125 -86 OFFCURVE",
"125 -121 CURVE SMOOTH",
"125 -157 OFFCURVE",
"190 -195 OFFCURVE",
"284 -195 CURVE SMOOTH",
"415 -195 OFFCURVE",
"493 -122 OFFCURVE",
"490 -75 CURVE",
"523 -44 LINE",
"522 -130 OFFCURVE",
"431 -211 OFFCURVE",
"283 -211 CURVE SMOOTH",
"194 -211 OFFCURVE",
"60 -178 OFFCURVE",
"60 -99 CURVE SMOOTH"
);
},
{
closed = 1;
nodes = (
"425 485 LINE SMOOTH",
"441 508 OFFCURVE",
"456 517 OFFCURVE",
"468 517 CURVE SMOOTH",
"482 517 OFFCURVE",
"493 509 OFFCURVE",
"509 468 CURVE SMOOTH",
"528 419 LINE",
"538 423 LINE",
"493 550 LINE SMOOTH",
"487 567 OFFCURVE",
"481 587 OFFCURVE",
"465 587 CURVE SMOOTH",
"455 587 OFFCURVE",
"443 562 OFFCURVE",
"433 541 CURVE SMOOTH",
"397 468 LINE",
"405 455 LINE"
);
}
);
width = 600;
},
{
associatedMasterId = "263FFEFB-F93F-4256-96DD-DB57701D3362";
background = {
paths = (
{
closed = 1;
nodes = (
"129 -194 OFFCURVE",
"203 -196 CURVE SMOOTH",
"238 -197 LINE",
"262 -184 LINE",
"198 -182 OFFCURVE",
"130 -177 OFFCURVE",
"130 -128 CURVE SMOOTH",
"130 -95 OFFCURVE",
"173 -59 OFFCURVE",
"240 -42 CURVE",
"237 -29 LINE",
"85 -63 LINE",
"79 -76 OFFCURVE",
"75 -89 OFFCURVE",
"75 -103 CURVE SMOOTH",
"75 -162 OFFCURVE"
);
}
);
};
guideLines = (
{
angle = 90;
position = "{523, -34}";
}
);
layerId = "73F5F2BE-5CA1-4C1B-A457-992500C667CB";
name = "Oct 8 19, 20:34";
paths = (
{
closed = 1;
nodes = (
"412 152 OFFCURVE",
"479 229 OFFCURVE",
"479 330 CURVE SMOOTH",
"479 433 OFFCURVE",
"412 508 OFFCURVE",
"283 508 CURVE SMOOTH",
"154 508 OFFCURVE",
"87 433 OFFCURVE",
"87 330 CURVE SMOOTH",
"87 229 OFFCURVE",
"154 152 OFFCURVE",
"283 152 CURVE SMOOTH"
);
},
{
closed = 1;
nodes = (
"224 186 OFFCURVE",
"175 242 OFFCURVE",
"175 330 CURVE SMOOTH",
"175 420 OFFCURVE",
"224 474 OFFCURVE",
"283 474 CURVE SMOOTH",
"342 474 OFFCURVE",
"391 419 OFFCURVE",
"391 330 CURVE SMOOTH",
"391 241 OFFCURVE",
"341 186 OFFCURVE",
"283 186 CURVE SMOOTH"
);
},
{
closed = 1;
nodes = (
"425 485 LINE SMOOTH",
"441 508 OFFCURVE",
"456 517 OFFCURVE",
"468 517 CURVE SMOOTH",
"482 517 OFFCURVE",
"493 509 OFFCURVE",
"509 468 CURVE SMOOTH",
"528 419 LINE",
"538 423 LINE",
"493 550 LINE SMOOTH",
"487 567 OFFCURVE",
"481 587 OFFCURVE",
"465 587 CURVE SMOOTH",
"455 587 OFFCURVE",
"443 562 OFFCURVE",
"433 541 CURVE SMOOTH",
"397 468 LINE",
"405 455 LINE"
);
},
{
closed = 1;
nodes = (
"254 82 LINE SMOOTH",
"164 82 OFFCURVE",
"151 104 OFFCURVE",
"151 127 CURVE SMOOTH",
"151 145 OFFCURVE",
"160 162 OFFCURVE",
"195 169 CURVE",
"173 189 LINE",
"145 175 LINE SMOOTH",
"111 158 OFFCURVE",
"89 132 OFFCURVE",
"89 91 CURVE SMOOTH",
"89 28 OFFCURVE",
"137 -4 OFFCURVE",
"254 -4 CURVE SMOOTH",
"343 -4 LINE SMOOTH",
"443 -4 OFFCURVE",
"467 -34 OFFCURVE",
"467 -70 CURVE SMOOTH",
"467 -120 OFFCURVE",
"420 -184 OFFCURVE",
"301 -184 CURVE SMOOTH",
"213 -184 OFFCURVE",
"161 -148 OFFCURVE",
"161 -109 CURVE SMOOTH",
"161 -79 OFFCURVE",
"191 -59 OFFCURVE",
"240 -42 CURVE",
"237 -29 LINE",
"85 -63 LINE",
"39 -171 OFFCURVE",
"171 -211 OFFCURVE",
"286 -211 CURVE SMOOTH",
"450 -211 OFFCURVE",
"533 -139 OFFCURVE",
"533 -38 CURVE SMOOTH",
"533 27 OFFCURVE",
"484 82 OFFCURVE",
"346 82 CURVE SMOOTH"
);
}
);
width = 600;
},
{
associatedMasterId = "263FFEFB-F93F-4256-96DD-DB57701D3362";
background = {
paths = (
{
closed = 1;
nodes = (
"103 -194 OFFCURVE",
"177 -196 CURVE SMOOTH",
"212 -197 LINE",
"236 -184 LINE",
"172 -182 OFFCURVE",
"104 -177 OFFCURVE",
"104 -128 CURVE SMOOTH",
"104 -95 OFFCURVE",
"147 -59 OFFCURVE",
"214 -42 CURVE",
"211 -29 LINE",
"59 -63 LINE",
"53 -76 OFFCURVE",
"49 -89 OFFCURVE",
"49 -103 CURVE SMOOTH",
"49 -162 OFFCURVE"
);
}
);
};
guideLines = (
{
angle = 90;
position = "{497, -34}";
}
);
layerId = "E4E04CC7-DBB0-47CC-A2EF-8101CB879C84";
name = "Oct 8 19, 20:39";
paths = (
{
closed = 1;
nodes = (
"386 152 OFFCURVE",
"453 229 OFFCURVE",
"453 330 CURVE SMOOTH",
"453 433 OFFCURVE",
"386 508 OFFCURVE",
"257 508 CURVE SMOOTH",
"128 508 OFFCURVE",
"61 433 OFFCURVE",
"61 330 CURVE SMOOTH",
"61 229 OFFCURVE",
"128 152 OFFCURVE",
"257 152 CURVE SMOOTH"
);
},
{
closed = 1;
nodes = (
"198 186 OFFCURVE",
"149 242 OFFCURVE",
"149 330 CURVE SMOOTH",
"149 420 OFFCURVE",
"198 474 OFFCURVE",
"257 474 CURVE SMOOTH",
"316 474 OFFCURVE",
"365 419 OFFCURVE",
"365 330 CURVE SMOOTH",
"365 241 OFFCURVE",
"315 186 OFFCURVE",
"257 186 CURVE SMOOTH"
);
},
{
closed = 1;
nodes = (
"408 489 OFFCURVE",
"428 507 OFFCURVE",
"459 507 CURVE SMOOTH",
"484 507 OFFCURVE",
"509 499 OFFCURVE",
"509 447 CURVE SMOOTH",
"509 409 LINE",
"519 413 LINE",
"523 433 OFFCURVE",
"525 450 OFFCURVE",
"525 464 CURVE SMOOTH",
"525 518 OFFCURVE",
"501 538 OFFCURVE",
"473 538 CURVE SMOOTH",
"439 538 OFFCURVE",
"399 510 OFFCURVE",
"380 482 CURVE SMOOTH",
"377 478 OFFCURVE",
"374 473 OFFCURVE",
"372 468 CURVE",
"390 451 LINE"
);
},
{
closed = 1;
nodes = (
"238 86 LINE SMOOTH",
"138 86 OFFCURVE",
"125 106 OFFCURVE",
"125 129 CURVE SMOOTH",
"125 146 OFFCURVE",
"134 162 OFFCURVE",
"165 173 CURVE",
"143 191 LINE",
"117 177 LINE SMOOTH",
"84 159 OFFCURVE",
"63 132 OFFCURVE",
"63 93 CURVE SMOOTH",
"63 31 OFFCURVE",
"111 0 OFFCURVE",
"238 0 CURVE SMOOTH",
"307 0 LINE SMOOTH",
"417 0 OFFCURVE",
"441 -32 OFFCURVE",
"441 -67 CURVE SMOOTH",
"441 -120 OFFCURVE",
"380 -184 OFFCURVE",
"266 -184 CURVE SMOOTH",
"183 -184 OFFCURVE",
"135 -155 OFFCURVE",
"135 -109 CURVE SMOOTH",
"135 -74 OFFCURVE",
"165 -54 OFFCURVE",
"214 -42 CURVE",
"211 -29 LINE",
"59 -63 LINE",
"53 -78 OFFCURVE",
"50 -92 OFFCURVE",
"50 -104 CURVE SMOOTH",
"50 -181 OFFCURVE",
"161 -211 OFFCURVE",
"260 -211 CURVE SMOOTH",
"424 -211 OFFCURVE",
"507 -139 OFFCURVE",
"507 -38 CURVE SMOOTH",
"507 41 OFFCURVE",
"458 86 OFFCURVE",
"310 86 CURVE SMOOTH"
);
}
);
width = 552;
},
{
associatedMasterId = "263FFEFB-F93F-4256-96DD-DB57701D3362";
background = {
paths = (
{
closed = 1;
nodes = (
"103 -194 OFFCURVE",
"177 -196 CURVE SMOOTH",
"212 -197 LINE",
"236 -184 LINE",
"172 -182 OFFCURVE",
"104 -177 OFFCURVE",
"104 -128 CURVE SMOOTH",
"104 -95 OFFCURVE",
"147 -59 OFFCURVE",
"214 -42 CURVE",
"211 -29 LINE",
"59 -63 LINE",
"53 -76 OFFCURVE",
"49 -89 OFFCURVE",
"49 -103 CURVE SMOOTH",
"49 -162 OFFCURVE"
);
}
);
};
guideLines = (
{
angle = 90;
position = "{560, -34}";
}
);
layerId = "286C953C-5432-48C0-8D68-CB1EE05F7B33";
name = "Oct 9 19, 15:58";
paths = (
{
closed = 1;
nodes = (
"390 152 OFFCURVE",
"457 229 OFFCURVE",
"457 330 CURVE SMOOTH",
"457 433 OFFCURVE",
"390 508 OFFCURVE",
"261 508 CURVE SMOOTH",
"132 508 OFFCURVE",
"65 433 OFFCURVE",
"65 330 CURVE SMOOTH",
"65 229 OFFCURVE",
"132 152 OFFCURVE",
"261 152 CURVE SMOOTH"
);
},
{
closed = 1;
nodes = (
"202 186 OFFCURVE",
"153 242 OFFCURVE",
"153 330 CURVE SMOOTH",
"153 420 OFFCURVE",
"202 474 OFFCURVE",
"261 474 CURVE SMOOTH",
"320 474 OFFCURVE",
"369 419 OFFCURVE",
"369 330 CURVE SMOOTH",
"369 241 OFFCURVE",
"319 186 OFFCURVE",
"261 186 CURVE SMOOTH"
);
},
{
closed = 1;
nodes = (
"242 86 LINE SMOOTH",
"142 86 OFFCURVE",
"129 106 OFFCURVE",
"129 129 CURVE SMOOTH",
"129 146 OFFCURVE",
"138 162 OFFCURVE",
"169 173 CURVE",
"147 191 LINE",
"121 177 LINE SMOOTH",
"88 159 OFFCURVE",
"67 132 OFFCURVE",
"67 93 CURVE SMOOTH",
"67 31 OFFCURVE",
"115 0 OFFCURVE",
"242 0 CURVE SMOOTH",
"311 0 LINE SMOOTH",
"421 0 OFFCURVE",
"445 -32 OFFCURVE",
"445 -67 CURVE SMOOTH",
"445 -120 OFFCURVE",
"384 -185 OFFCURVE",
"268 -185 CURVE SMOOTH",
"183 -185 OFFCURVE",
"133 -150 OFFCURVE",
"133 -109 CURVE SMOOTH",
"133 -77 OFFCURVE",
"162 -64 OFFCURVE",
"199 -64 CURVE SMOOTH",
"209 -64 OFFCURVE",
"218 -64 OFFCURVE",
"228 -66 CURVE",
"231 -52 LINE",
"79 -28 LINE",
"60 -49 OFFCURVE",
"51 -70 OFFCURVE",
"51 -91 CURVE SMOOTH",
"51 -160 OFFCURVE",
"148 -212 OFFCURVE",
"264 -212 CURVE SMOOTH",
"428 -212 OFFCURVE",
"511 -140 OFFCURVE",
"511 -38 CURVE SMOOTH",
"511 41 OFFCURVE",
"462 86 OFFCURVE",
"314 86 CURVE SMOOTH"
);
},
{
closed = 1;
nodes = (
"521 468 LINE",
"517 488 LINE SMOOTH",
"505 548 OFFCURVE",
"487 579 OFFCURVE",
"458 579 CURVE SMOOTH",
"427 579 OFFCURVE",
"402 544 OFFCURVE",
"383 487 CURVE SMOOTH",
"375 463 LINE",
"403 459 LINE",
"416 497 OFFCURVE",
"435 516 OFFCURVE",
"459 516 CURVE SMOOTH",
"482 516 OFFCURVE",
"498 499 OFFCURVE",
"507 465 CURVE"
);
}
);
width = 544;
},
{
background = {
paths = (
{
closed = 1;
nodes = (
"92 -194 OFFCURVE",
"166 -196 CURVE SMOOTH",
"201 -197 LINE",
"225 -184 LINE",
"161 -182 OFFCURVE",
"93 -177 OFFCURVE",
"93 -128 CURVE SMOOTH",
"93 -95 OFFCURVE",
"136 -59 OFFCURVE",
"203 -42 CURVE",
"200 -29 LINE",
"48 -63 LINE",
"42 -76 OFFCURVE",
"38 -89 OFFCURVE",
"38 -103 CURVE SMOOTH",
"38 -162 OFFCURVE"
);
},
{
closed = 1;
nodes = (
"229 -83 LINE SMOOTH",
"129 -83 OFFCURVE",
"116 -63 OFFCURVE",
"116 -40 CURVE SMOOTH",
"116 -23 OFFCURVE",
"125 -7 OFFCURVE",
"156 4 CURVE",
"134 22 LINE",
"108 8 LINE SMOOTH",
"75 -10 OFFCURVE",
"54 -37 OFFCURVE",
"54 -76 CURVE SMOOTH",
"54 -138 OFFCURVE",
"102 -169 OFFCURVE",
"229 -169 CURVE SMOOTH",
"298 -169 LINE SMOOTH",
"408 -169 OFFCURVE",
"432 -201 OFFCURVE",
"432 -236 CURVE SMOOTH",
"432 -289 OFFCURVE",
"371 -354 OFFCURVE",
"255 -354 CURVE SMOOTH",
"170 -354 OFFCURVE",
"120 -319 OFFCURVE",
"120 -278 CURVE",
"38 -260 LINE",
"38 -329 OFFCURVE",
"135 -381 OFFCURVE",
"251 -381 CURVE SMOOTH",
"415 -381 OFFCURVE",
"498 -309 OFFCURVE",
"498 -207 CURVE SMOOTH",
"498 -128 OFFCURVE",
"449 -83 OFFCURVE",
"301 -83 CURVE SMOOTH"
);
}
);
};
guideLines = (
{
angle = 90;
position = "{549, -34}";
}
);
layerId = "263FFEFB-F93F-4256-96DD-DB57701D3362";
paths = (
{
closed = 1;
nodes = (
"379 152 OFFCURVE",
"446 229 OFFCURVE",
"446 330 CURVE SMOOTH",
"446 433 OFFCURVE",
"379 508 OFFCURVE",
"250 508 CURVE SMOOTH",
"121 508 OFFCURVE",
"54 433 OFFCURVE",
"54 330 CURVE SMOOTH",
"54 229 OFFCURVE",
"121 152 OFFCURVE",
"250 152 CURVE SMOOTH"
);
},
{
closed = 1;
nodes = (
"191 186 OFFCURVE",
"142 242 OFFCURVE",
"142 330 CURVE SMOOTH",
"142 420 OFFCURVE",
"191 474 OFFCURVE",
"250 474 CURVE SMOOTH",
"309 474 OFFCURVE",
"358 419 OFFCURVE",
"358 330 CURVE SMOOTH",
"358 241 OFFCURVE",
"308 186 OFFCURVE",
"250 186 CURVE SMOOTH"
);
},
{
closed = 1;
nodes = (
"231 86 LINE SMOOTH",
"131 86 OFFCURVE",
"118 106 OFFCURVE",
"118 129 CURVE SMOOTH",
"118 146 OFFCURVE",
"127 162 OFFCURVE",
"158 173 CURVE",
"136 191 LINE",
"110 177 LINE SMOOTH",
"77 159 OFFCURVE",
"56 132 OFFCURVE",
"56 93 CURVE SMOOTH",
"56 31 OFFCURVE",
"104 0 OFFCURVE",
"231 0 CURVE SMOOTH",
"300 0 LINE SMOOTH",
"410 0 OFFCURVE",
"434 -32 OFFCURVE",
"434 -67 CURVE SMOOTH",
"434 -120 OFFCURVE",
"373 -185 OFFCURVE",
"257 -185 CURVE SMOOTH",
"182 -185 OFFCURVE",
"122 -159 OFFCURVE",
"122 -78 CURVE",
"122 -40 OFFCURVE",
"135 -3 OFFCURVE",
"157 6 CURVE",
"134 22 LINE",
"108 8 LINE SMOOTH",
"75 -10 OFFCURVE",
"40 -38 OFFCURVE",
"40 -89 CURVE SMOOTH",
"40 -175 OFFCURVE",
"137 -212 OFFCURVE",
"253 -212 CURVE SMOOTH",
"417 -212 OFFCURVE",
"500 -140 OFFCURVE",
"500 -38 CURVE SMOOTH",
"500 41 OFFCURVE",
"451 86 OFFCURVE",
"303 86 CURVE SMOOTH"
);
},
{
closed = 1;
nodes = (
"510 417 LINE",
"508 462 LINE SMOOTH",
"503 557 OFFCURVE",
"476 589 OFFCURVE",
"447 589 CURVE",
"416 589 OFFCURVE",
"391 550 OFFCURVE",
"372 487 CURVE SMOOTH",
"364 463 LINE",
"392 459 LINE",
"405 490 OFFCURVE",
"424 506 OFFCURVE",
"448 506 CURVE SMOOTH",
"471 506 OFFCURVE",
"487 490 OFFCURVE",
"496 414 CURVE"
);
}
);
width = 530;
},
{
associatedMasterId = "49567DAC-64C1-4764-83F5-5952E919F015";
layerId = "222D9993-F3A5-4D38-87D2-7F219A7A9535";
name = "Oct 8 19, 18:29";
paths = (
{
closed = 1;
nodes = (
"407 152 OFFCURVE",
"474 228 OFFCURVE",
"474 330 CURVE SMOOTH",
"474 432 OFFCURVE",
"407 508 OFFCURVE",
"278 508 CURVE SMOOTH",
"149 508 OFFCURVE",
"82 432 OFFCURVE",
"82 330 CURVE SMOOTH",
"82 228 OFFCURVE",
"149 152 OFFCURVE",
"278 152 CURVE SMOOTH"
);
},
{
closed = 1;
nodes = (
"220 165 OFFCURVE",
"172 228 OFFCURVE",
"172 330 CURVE SMOOTH",
"172 432 OFFCURVE",
"220 495 OFFCURVE",
"278 495 CURVE SMOOTH",
"336 495 OFFCURVE",
"384 431 OFFCURVE",
"384 327 CURVE SMOOTH",
"384 227 OFFCURVE",
"335 165 OFFCURVE",
"278 165 CURVE SMOOTH"
);
},
{
closed = 1;
nodes = (
"103 28 OFFCURVE",
"144 -4 OFFCURVE",
"286 -4 CURVE",
"346 82 LINE",
"175 82 OFFCURVE",
"155 104 OFFCURVE",
"155 121 CURVE SMOOTH",
"155 136 OFFCURVE",
"176 153 OFFCURVE",
"194 168 CURVE",
"177 176 LINE",
"146 149 OFFCURVE",
"103 126 OFFCURVE",
"103 76 CURVE SMOOTH"
);
},
{
closed = 1;
nodes = (
"490 -22 OFFCURVE",
"436 -4 OFFCURVE",
"286 -4 CURVE",
"346 82 LINE",
"486 82 OFFCURVE",
"522 36 OFFCURVE",
"523 -44 CURVE",
"490 -75 LINE"
);
},
{
closed = 1;
nodes = (
"60 -70 OFFCURVE",
"76 -40 OFFCURVE",
"101 -15 CURVE",
"281 -76 LINE",
"280 -83 LINE",
"253 -75 OFFCURVE",
"219 -70 OFFCURVE",
"199 -70 CURVE SMOOTH",
"151 -70 OFFCURVE",
"125 -86 OFFCURVE",
"125 -121 CURVE SMOOTH",
"125 -157 OFFCURVE",
"190 -195 OFFCURVE",
"284 -195 CURVE SMOOTH",
"415 -195 OFFCURVE",
"493 -122 OFFCURVE",
"490 -75 CURVE",
"523 -44 LINE",
"522 -130 OFFCURVE",
"431 -211 OFFCURVE",
"283 -211 CURVE SMOOTH",
"194 -211 OFFCURVE",
"60 -178 OFFCURVE",
"60 -99 CURVE SMOOTH"
);
},
{
closed = 1;
nodes = (
"425 485 LINE SMOOTH",
"441 508 OFFCURVE",
"456 517 OFFCURVE",
"468 517 CURVE SMOOTH",
"482 517 OFFCURVE",
"493 509 OFFCURVE",
"509 468 CURVE SMOOTH",
"528 419 LINE",
"538 423 LINE",
"493 550 LINE SMOOTH",
"487 567 OFFCURVE",
"481 587 OFFCURVE",
"465 587 CURVE SMOOTH",
"455 587 OFFCURVE",
"443 562 OFFCURVE",
"433 541 CURVE SMOOTH",
"397 468 LINE",
"405 455 LINE"
);
}
);
width = 600;
},
{
associatedMasterId = "49567DAC-64C1-4764-83F5-5952E919F015";
background = {
paths = (
{
closed = 1;
nodes = (
"129 -194 OFFCURVE",
"203 -196 CURVE SMOOTH",
"238 -197 LINE",
"262 -184 LINE",
"198 -182 OFFCURVE",
"130 -177 OFFCURVE",
"130 -128 CURVE SMOOTH",
"130 -95 OFFCURVE",
"173 -59 OFFCURVE",
"240 -42 CURVE",
"237 -29 LINE",
"85 -63 LINE",
"79 -76 OFFCURVE",
"75 -89 OFFCURVE",
"75 -103 CURVE SMOOTH",
"75 -162 OFFCURVE"
);
}
);
};
guideLines = (
{
angle = 90;
position = "{523, -34}";
}
);
layerId = "78056077-9474-44C6-BFFD-62714108F1FC";
name = "Oct 8 19, 20:34";
paths = (
{
closed = 1;
nodes = (
"412 152 OFFCURVE",
"479 229 OFFCURVE",
"479 330 CURVE SMOOTH",
"479 433 OFFCURVE",
"412 508 OFFCURVE",
"283 508 CURVE SMOOTH",
"154 508 OFFCURVE",
"87 433 OFFCURVE",
"87 330 CURVE SMOOTH",
"87 229 OFFCURVE",
"154 152 OFFCURVE",
"283 152 CURVE SMOOTH"
);
},
{
closed = 1;
nodes = (
"224 186 OFFCURVE",
"175 242 OFFCURVE",
"175 330 CURVE SMOOTH",
"175 420 OFFCURVE",
"224 474 OFFCURVE",
"283 474 CURVE SMOOTH",
"342 474 OFFCURVE",
"391 419 OFFCURVE",
"391 330 CURVE SMOOTH",
"391 241 OFFCURVE",
"341 186 OFFCURVE",
"283 186 CURVE SMOOTH"
);
},
{
closed = 1;
nodes = (
"425 485 LINE SMOOTH",
"441 508 OFFCURVE",
"456 517 OFFCURVE",
"468 517 CURVE SMOOTH",
"482 517 OFFCURVE",
"493 509 OFFCURVE",
"509 468 CURVE SMOOTH",
"528 419 LINE",
"538 423 LINE",
"493 550 LINE SMOOTH",
"487 567 OFFCURVE",
"481 587 OFFCURVE",
"465 587 CURVE SMOOTH",
"455 587 OFFCURVE",
"443 562 OFFCURVE",
"433 541 CURVE SMOOTH",
"397 468 LINE",
"405 455 LINE"
);
},
{
closed = 1;
nodes = (
"254 82 LINE SMOOTH",
"164 82 OFFCURVE",
"151 104 OFFCURVE",
"151 127 CURVE SMOOTH",
"151 145 OFFCURVE",
"160 162 OFFCURVE",
"195 169 CURVE",
"173 189 LINE",
"145 175 LINE SMOOTH",
"111 158 OFFCURVE",
"89 132 OFFCURVE",
"89 91 CURVE SMOOTH",
"89 28 OFFCURVE",
"137 -4 OFFCURVE",
"254 -4 CURVE SMOOTH",
"343 -4 LINE SMOOTH",
"443 -4 OFFCURVE",
"467 -34 OFFCURVE",
"467 -70 CURVE SMOOTH",
"467 -120 OFFCURVE",
"420 -184 OFFCURVE",
"301 -184 CURVE SMOOTH",
"213 -184 OFFCURVE",
"161 -148 OFFCURVE",
"161 -109 CURVE SMOOTH",
"161 -79 OFFCURVE",
"191 -59 OFFCURVE",
"240 -42 CURVE",
"237 -29 LINE",
"85 -63 LINE",
"39 -171 OFFCURVE",
"171 -211 OFFCURVE",
"286 -211 CURVE SMOOTH",
"450 -211 OFFCURVE",
"533 -139 OFFCURVE",
"533 -38 CURVE SMOOTH",
"533 27 OFFCURVE",
"484 82 OFFCURVE",
"346 82 CURVE SMOOTH"
);
}
);
width = 600;
},
{
associatedMasterId = "49567DAC-64C1-4764-83F5-5952E919F015";
background = {
paths = (
{
closed = 1;
nodes = (
"103 -194 OFFCURVE",
"177 -196 CURVE SMOOTH",
"212 -197 LINE",
"236 -184 LINE",
"172 -182 OFFCURVE",
"104 -177 OFFCURVE",
"104 -128 CURVE SMOOTH",
"104 -95 OFFCURVE",
"147 -59 OFFCURVE",
"214 -42 CURVE",
"211 -29 LINE",
"59 -63 LINE",
"53 -76 OFFCURVE",
"49 -89 OFFCURVE",
"49 -103 CURVE SMOOTH",
"49 -162 OFFCURVE"
);
}
);
};
guideLines = (
{
angle = 90;
position = "{497, -34}";
}
);
layerId = "861DCF0F-8D1E-487E-AB92-3B02A1362A59";
name = "Oct 8 19, 20:39";
paths = (
{
closed = 1;
nodes = (
"386 152 OFFCURVE",
"453 229 OFFCURVE",
"453 330 CURVE SMOOTH",
"453 433 OFFCURVE",
"386 508 OFFCURVE",
"257 508 CURVE SMOOTH",
"128 508 OFFCURVE",
"61 433 OFFCURVE",
"61 330 CURVE SMOOTH",
"61 229 OFFCURVE",
"128 152 OFFCURVE",
"257 152 CURVE SMOOTH"
);
},
{
closed = 1;
nodes = (
"198 186 OFFCURVE",
"149 242 OFFCURVE",
"149 330 CURVE SMOOTH",
"149 420 OFFCURVE",
"198 474 OFFCURVE",
"257 474 CURVE SMOOTH",
"316 474 OFFCURVE",
"365 419 OFFCURVE",
"365 330 CURVE SMOOTH",
"365 241 OFFCURVE",
"315 186 OFFCURVE",
"257 186 CURVE SMOOTH"
);
},
{
closed = 1;
nodes = (
"408 489 OFFCURVE",
"428 507 OFFCURVE",
"459 507 CURVE SMOOTH",
"484 507 OFFCURVE",
"509 499 OFFCURVE",
"509 447 CURVE SMOOTH",
"509 409 LINE",
"519 413 LINE",
"523 433 OFFCURVE",
"525 450 OFFCURVE",
"525 464 CURVE SMOOTH",
"525 518 OFFCURVE",
"501 538 OFFCURVE",
"473 538 CURVE SMOOTH",
"439 538 OFFCURVE",
"399 510 OFFCURVE",
"380 482 CURVE SMOOTH",
"377 478 OFFCURVE",
"374 473 OFFCURVE",
"372 468 CURVE",
"390 451 LINE"
);
},
{
closed = 1;
nodes = (
"238 86 LINE SMOOTH",
"138 86 OFFCURVE",
"125 106 OFFCURVE",
"125 129 CURVE SMOOTH",
"125 146 OFFCURVE",
"134 162 OFFCURVE",
"165 173 CURVE",
"143 191 LINE",
"117 177 LINE SMOOTH",
"84 159 OFFCURVE",
"63 132 OFFCURVE",
"63 93 CURVE SMOOTH",
"63 31 OFFCURVE",
"111 0 OFFCURVE",
"238 0 CURVE SMOOTH",
"307 0 LINE SMOOTH",
"417 0 OFFCURVE",
"441 -32 OFFCURVE",
"441 -67 CURVE SMOOTH",
"441 -120 OFFCURVE",
"380 -184 OFFCURVE",
"266 -184 CURVE SMOOTH",
"183 -184 OFFCURVE",
"135 -155 OFFCURVE",
"135 -109 CURVE SMOOTH",
"135 -74 OFFCURVE",
"165 -54 OFFCURVE",
"214 -42 CURVE",
"211 -29 LINE",
"59 -63 LINE",
"53 -78 OFFCURVE",
"50 -92 OFFCURVE",
"50 -104 CURVE SMOOTH",
"50 -181 OFFCURVE",
"161 -211 OFFCURVE",
"260 -211 CURVE SMOOTH",
"424 -211 OFFCURVE",
"507 -139 OFFCURVE",
"507 -38 CURVE SMOOTH",
"507 41 OFFCURVE",
"458 86 OFFCURVE",
"310 86 CURVE SMOOTH"
);
}
);
width = 552;
},
{
associatedMasterId = "49567DAC-64C1-4764-83F5-5952E919F015";
background = {
paths = (
{
closed = 1;
nodes = (
"103 -194 OFFCURVE",
"177 -196 CURVE SMOOTH",
"212 -197 LINE",
"236 -184 LINE",
"172 -182 OFFCURVE",
"104 -177 OFFCURVE",
"104 -128 CURVE SMOOTH",
"104 -95 OFFCURVE",
"147 -59 OFFCURVE",
"214 -42 CURVE",
"211 -29 LINE",
"59 -63 LINE",
"53 -76 OFFCURVE",
"49 -89 OFFCURVE",
"49 -103 CURVE SMOOTH",
"49 -162 OFFCURVE"
);
}
);
};
guideLines = (
{
angle = 90;
position = "{560, -34}";
}
);
layerId = "50CABC89-98C7-4B90-A46B-58D8017077B5";
name = "Oct 9 19, 15:58";
paths = (
{
closed = 1;
nodes = (
"390 152 OFFCURVE",
"457 229 OFFCURVE",
"457 330 CURVE SMOOTH",
"457 433 OFFCURVE",
"390 508 OFFCURVE",
"261 508 CURVE SMOOTH",
"132 508 OFFCURVE",
"65 433 OFFCURVE",
"65 330 CURVE SMOOTH",
"65 229 OFFCURVE",
"132 152 OFFCURVE",
"261 152 CURVE SMOOTH"
);
},
{
closed = 1;
nodes = (
"202 186 OFFCURVE",
"153 242 OFFCURVE",
"153 330 CURVE SMOOTH",
"153 420 OFFCURVE",
"202 474 OFFCURVE",
"261 474 CURVE SMOOTH",
"320 474 OFFCURVE",
"369 419 OFFCURVE",
"369 330 CURVE SMOOTH",
"369 241 OFFCURVE",
"319 186 OFFCURVE",
"261 186 CURVE SMOOTH"
);
},
{
closed = 1;
nodes = (
"242 86 LINE SMOOTH",
"142 86 OFFCURVE",
"129 106 OFFCURVE",
"129 129 CURVE SMOOTH",
"129 146 OFFCURVE",
"138 162 OFFCURVE",
"169 173 CURVE",
"147 191 LINE",
"121 177 LINE SMOOTH",
"88 159 OFFCURVE",
"67 132 OFFCURVE",
"67 93 CURVE SMOOTH",
"67 31 OFFCURVE",
"115 0 OFFCURVE",
"242 0 CURVE SMOOTH",
"311 0 LINE SMOOTH",
"421 0 OFFCURVE",
"445 -32 OFFCURVE",
"445 -67 CURVE SMOOTH",
"445 -120 OFFCURVE",
"384 -185 OFFCURVE",
"268 -185 CURVE SMOOTH",
"183 -185 OFFCURVE",
"133 -150 OFFCURVE",
"133 -109 CURVE SMOOTH",
"133 -77 OFFCURVE",
"162 -64 OFFCURVE",
"199 -64 CURVE SMOOTH",
"209 -64 OFFCURVE",
"218 -64 OFFCURVE",
"228 -66 CURVE",
"231 -52 LINE",
"79 -28 LINE",
"60 -49 OFFCURVE",
"51 -70 OFFCURVE",
"51 -91 CURVE SMOOTH",
"51 -160 OFFCURVE",
"148 -212 OFFCURVE",
"264 -212 CURVE SMOOTH",
"428 -212 OFFCURVE",
"511 -140 OFFCURVE",
"511 -38 CURVE SMOOTH",
"511 41 OFFCURVE",
"462 86 OFFCURVE",
"314 86 CURVE SMOOTH"
);
},
{
closed = 1;
nodes = (
"521 468 LINE",
"517 488 LINE SMOOTH",
"505 548 OFFCURVE",
"487 579 OFFCURVE",
"458 579 CURVE SMOOTH",
"427 579 OFFCURVE",
"402 544 OFFCURVE",
"383 487 CURVE SMOOTH",
"375 463 LINE",
"403 459 LINE",
"416 497 OFFCURVE",
"435 516 OFFCURVE",
"459 516 CURVE SMOOTH",
"482 516 OFFCURVE",
"498 499 OFFCURVE",
"507 465 CURVE"
);
}
);
width = 544;
},
{
background = {
paths = (
{
closed = 1;
nodes = (
"92 -194 OFFCURVE",
"166 -196 CURVE SMOOTH",
"201 -197 LINE",
"225 -184 LINE",
"161 -182 OFFCURVE",
"93 -177 OFFCURVE",
"93 -128 CURVE SMOOTH",
"93 -95 OFFCURVE",
"136 -59 OFFCURVE",
"203 -42 CURVE",
"200 -29 LINE",
"48 -63 LINE",
"42 -76 OFFCURVE",
"38 -89 OFFCURVE",
"38 -103 CURVE SMOOTH",
"38 -162 OFFCURVE"
);
},
{
closed = 1;
nodes = (
"229 -83 LINE SMOOTH",
"129 -83 OFFCURVE",
"116 -63 OFFCURVE",
"116 -40 CURVE SMOOTH",
"116 -23 OFFCURVE",
"125 -7 OFFCURVE",
"156 4 CURVE",
"134 22 LINE",
"108 8 LINE SMOOTH",
"75 -10 OFFCURVE",
"54 -37 OFFCURVE",
"54 -76 CURVE SMOOTH",
"54 -138 OFFCURVE",
"102 -169 OFFCURVE",
"229 -169 CURVE SMOOTH",
"298 -169 LINE SMOOTH",
"408 -169 OFFCURVE",
"432 -201 OFFCURVE",
"432 -236 CURVE SMOOTH",
"432 -289 OFFCURVE",
"371 -354 OFFCURVE",
"255 -354 CURVE SMOOTH",
"170 -354 OFFCURVE",
"120 -319 OFFCURVE",
"120 -278 CURVE",
"38 -260 LINE",
"38 -329 OFFCURVE",
"135 -381 OFFCURVE",
"251 -381 CURVE SMOOTH",
"415 -381 OFFCURVE",
"498 -309 OFFCURVE",
"498 -207 CURVE SMOOTH",
"498 -128 OFFCURVE",
"449 -83 OFFCURVE",
"301 -83 CURVE SMOOTH"
);
}
);
};
guideLines = (
{
angle = 90;
position = "{549, -34}";
}
);
layerId = "49567DAC-64C1-4764-83F5-5952E919F015";
paths = (
{
closed = 1;
nodes = (
"379 152 OFFCURVE",
"446 229 OFFCURVE",
"446 330 CURVE SMOOTH",
"446 433 OFFCURVE",
"379 508 OFFCURVE",
"250 508 CURVE SMOOTH",
"121 508 OFFCURVE",
"54 433 OFFCURVE",
"54 330 CURVE SMOOTH",
"54 229 OFFCURVE",
"121 152 OFFCURVE",
"250 152 CURVE SMOOTH"
);
},
{
closed = 1;
nodes = (
"191 186 OFFCURVE",
"142 242 OFFCURVE",
"142 330 CURVE SMOOTH",
"142 420 OFFCURVE",
"191 474 OFFCURVE",
"250 474 CURVE SMOOTH",
"309 474 OFFCURVE",
"358 419 OFFCURVE",
"358 330 CURVE SMOOTH",
"358 241 OFFCURVE",
"308 186 OFFCURVE",
"250 186 CURVE SMOOTH"
);
},
{
closed = 1;
nodes = (
"231 86 LINE SMOOTH",
"131 86 OFFCURVE",
"118 106 OFFCURVE",
"118 129 CURVE SMOOTH",
"118 146 OFFCURVE",
"127 162 OFFCURVE",
"158 173 CURVE",
"136 191 LINE",
"110 177 LINE SMOOTH",
"77 159 OFFCURVE",
"56 132 OFFCURVE",
"56 93 CURVE SMOOTH",
"56 31 OFFCURVE",
"104 0 OFFCURVE",
"231 0 CURVE SMOOTH",
"300 0 LINE SMOOTH",
"410 0 OFFCURVE",
"434 -32 OFFCURVE",
"434 -67 CURVE SMOOTH",
"434 -120 OFFCURVE",
"373 -185 OFFCURVE",
"257 -185 CURVE SMOOTH",
"182 -185 OFFCURVE",
"122 -159 OFFCURVE",
"122 -78 CURVE",
"122 -40 OFFCURVE",
"135 -3 OFFCURVE",
"157 6 CURVE",
"134 22 LINE",
"108 8 LINE SMOOTH",
"75 -10 OFFCURVE",
"40 -38 OFFCURVE",
"40 -89 CURVE SMOOTH",
"40 -175 OFFCURVE",
"137 -212 OFFCURVE",
"253 -212 CURVE SMOOTH",
"417 -212 OFFCURVE",
"500 -140 OFFCURVE",
"500 -38 CURVE SMOOTH",
"500 41 OFFCURVE",
"451 86 OFFCURVE",
"303 86 CURVE SMOOTH"
);
},
{
closed = 1;
nodes = (
"510 417 LINE",
"508 462 LINE SMOOTH",
"504 557 OFFCURVE",
"477 589 OFFCURVE",
"448 589 CURVE",
"416 589 OFFCURVE",
"395 549 OFFCURVE",
"372 487 CURVE SMOOTH",
"363 463 LINE",
"392 459 LINE",
"405 490 OFFCURVE",
"424 506 OFFCURVE",
"448 506 CURVE SMOOTH",
"470 506 OFFCURVE",
"489 493 OFFCURVE",
"495 434 CURVE SMOOTH",
"497 415 LINE"
);
}
);
width = 530;
}
);
unicode = 0067;
},
{
color = 4;
glyphname = h;
lastChange = "2019-10-09 20:13:14 +0000";
layers = (
{
components = (
{
name = attaque;
transform = "{1, 0, 0, 1, -55, 220}";
},
{
name = Serif_long;
transform = "{1, 0, 0, 1, -51, 0}";
},
{
name = serif_court;
transform = "{1, 0, 0, 1, -51, 0}";
},
{
name = Serif_long;
transform = "{-1, 0, 0, 1, 622, 0}";
},
{
name = serif_court;
transform = "{-1, 0, 0, 1, 622, 0}";
}
);
layerId = "15398AEC-D437-4D9F-8CD1-FC2630A97B3B";
paths = (
{
closed = 1;
nodes = (
"105 93 LINE",
"191 93 LINE",
"191 606 LINE",
"105 616 LINE"
);
},
{
closed = 1;
nodes = (
"306 512 OFFCURVE",
"255 493 OFFCURVE",
"208 425 CURVE SMOOTH",
"182 387 LINE",
"181 353 LINE",
"228 429 OFFCURVE",
"267 461 OFFCURVE",
"312 461 CURVE SMOOTH",
"354 461 OFFCURVE",
"380 434 OFFCURVE",
"380 367 CURVE SMOOTH",
"380 93 LINE",
"466 93 LINE",
"466 373 LINE SMOOTH",
"466 468 OFFCURVE",
"428 512 OFFCURVE",
"354 512 CURVE SMOOTH"
);
}
);
width = 559;
},
{
components = (
{
alignment = -1;
name = attaque;
transform = "{1, 0, 0, 1, -55, 214}";
},
{
alignment = -1;
name = Serif_long;
transform = "{1, 0, 0, 1, -51, 0}";
},
{
alignment = -1;
name = serif_court;
transform = "{1, 0, 0, 1, -51, 0}";
},
{
alignment = -1;
name = Serif_long;
transform = "{-1, 0, 0, 1, 652, 0}";
},
{
alignment = -1;
name = serif_court;
transform = "{-1, 0, 0, 1, 652, 0}";
}
);
layerId = "263FFEFB-F93F-4256-96DD-DB57701D3362";
paths = (
{
closed = 1;
nodes = (
"109 0 LINE",
"195 0 LINE",
"195 648 LINE",
"109 648 LINE"
);
},
{
closed = 1;
nodes = (
"283 512 OFFCURVE",
"230 482 OFFCURVE",
"197 424 CURVE SMOOTH",
"184 401 LINE",
"190 347 LINE",
"215 419 OFFCURVE",
"258 461 OFFCURVE",
"323 461 CURVE SMOOTH",
"376 461 OFFCURVE",
"406 432 OFFCURVE",
"406 356 CURVE SMOOTH",
"406 0 LINE",
"492 0 LINE",
"492 362 LINE SMOOTH",
"492 471 OFFCURVE",
"441 512 OFFCURVE",
"350 512 CURVE SMOOTH"
);
}
);
width = 593;
},
{
components = (
{
alignment = -1;
name = attaque;
transform = "{1, 0, 0, 1, -55, 214}";
},
{
alignment = -1;
name = Serif_long;
transform = "{1, 0, 0, 1, -51, 0}";
},
{
alignment = -1;
name = serif_court;
transform = "{1, 0, 0, 1, -51, 0}";
},
{
alignment = -1;
name = Serif_long;
transform = "{-1, 0, 0, 1, 652, 0}";
},
{
alignment = -1;
name = serif_court;
transform = "{-1, 0, 0, 1, 652, 0}";
}
);
layerId = "49567DAC-64C1-4764-83F5-5952E919F015";
paths = (
{
closed = 1;
nodes = (
"109 0 LINE",
"195 0 LINE",
"195 648 LINE",
"109 648 LINE"
);
},
{
closed = 1;
nodes = (
"283 512 OFFCURVE",
"230 482 OFFCURVE",
"197 424 CURVE SMOOTH",
"184 401 LINE",
"190 347 LINE",
"215 419 OFFCURVE",
"258 461 OFFCURVE",
"323 461 CURVE SMOOTH",
"376 461 OFFCURVE",
"406 432 OFFCURVE",
"406 356 CURVE SMOOTH",
"406 0 LINE",
"492 0 LINE",
"492 362 LINE SMOOTH",
"492 471 OFFCURVE",
"441 512 OFFCURVE",
"350 512 CURVE SMOOTH"
);
}
);
width = 593;
}
);
rightMetricsKey = n;
unicode = 0068;
},
{
glyphname = idotless;
lastChange = "2019-10-09 18:22:31 +0000";
layers = (
{
anchors = (
{
name = bottom;
position = "{138, 0}";
},
{
name = ogonek;
position = "{248, 10}";
},
{
name = top;
position = "{142, 500}";
}
);
components = (
{
name = attaque;
transform = "{1, 0, 0, 1, -55, 0}";
},
{
name = Serif_long;
transform = "{1, 0, 0, 1, -51, 0}";
},
{
name = serif_court;
transform = "{1, 0, 0, 1, -51, 0}";
}
);
layerId = "15398AEC-D437-4D9F-8CD1-FC2630A97B3B";
paths = (
{
closed = 1;
nodes = (
"191 93 LINE",
"191 386 LINE",
"105 396 LINE",
"105 93 LINE"
);
}
);
width = 276;
},
{
anchors = (
{
name = bottom;
position = "{151, 0}";
},
{
name = ogonek;
position = "{272, 10}";
},
{
name = top;
position = "{151, 500}";
}
);
components = (
{
alignment = -1;
name = attaque;
transform = "{1, 0, 0, 1, -45, -6}";
},
{
alignment = -1;
name = Serif_long;
transform = "{1, 0, 0, 1, -41, 0}";
},
{
alignment = -1;
name = serif_court;
transform = "{1, 0, 0, 1, -41, 0}";
}
);
layerId = "263FFEFB-F93F-4256-96DD-DB57701D3362";
paths = (
{
closed = 1;
nodes = (
"205 0 LINE",
"205 386 LINE",
"119 396 LINE",
"119 0 LINE"
);
}
);
width = 306;
},
{
anchors = (
{
name = bottom;
position = "{151, 0}";
},
{
name = ogonek;
position = "{272, 10}";
},
{
name = top;
position = "{151, 500}";
}
);
components = (
{
alignment = -1;
name = attaque;
transform = "{1, 0, 0, 1, -45, -6}";
},
{
alignment = -1;
name = Serif_long;
transform = "{1, 0, 0, 1, -41, 0}";
},
{
alignment = -1;
name = serif_court;
transform = "{1, 0, 0, 1, -41, 0}";
}
);
layerId = "49567DAC-64C1-4764-83F5-5952E919F015";
paths = (
{
closed = 1;
nodes = (
"205 0 LINE",
"205 386 LINE",
"119 396 LINE",
"119 0 LINE"
);
}
);
width = 306;
}
);
leftMetricsKey = n;
unicode = 0131;
},
{
color = 4;
glyphname = j;
lastChange = "2019-10-09 20:13:14 +0000";
layers = (
{
background = {
components = (
{
name = i;
transform = "{1, 0, 0, 1, -9, 0}";
}
);
};
components = (
{
name = attaque;
transform = "{1, 0, 0, 1, -64, 0}";
},
{
name = dotaccentcomb;
transform = "{1, 0, 0, 1, -9, 0}";
}
);
layerId = "15398AEC-D437-4D9F-8CD1-FC2630A97B3B";
paths = (
{
closed = 1;
nodes = (
"96 410 LINE",
"96 24 LINE SMOOTH",
"96 -95 OFFCURVE",
"60 -179 OFFCURVE",
"2 -207 CURVE",
"3 -212 LINE",
"87 -188 OFFCURVE",
"182 -151 OFFCURVE",
"182 14 CURVE SMOOTH",
"182 427 LINE",
"139 427 LINE"
);
}
);
width = 264;
},
{
associatedMasterId = "15398AEC-D437-4D9F-8CD1-FC2630A97B3B";
background = {
components = (
{
name = i;
transform = "{1, 0, 0, 1, 119, 0}";
}
);
};
components = (
{
name = attaque;
transform = "{1, 0, 0, 1, 64, 0}";
},
{
name = dotaccentcomb;
transform = "{1, 0, 0, 1, 119, 0}";
}
);
layerId = "CC3C6331-30EB-4404-82A6-C1BDF345435F";
name = "Oct 8 19, 10:43";
paths = (
{
closed = 1;
nodes = (
"310 427 LINE",
"267 427 LINE",
"224 410 LINE",
"224 -16 LINE",
"310 -26 LINE"
);
},
{
closed = 1;
nodes = (
"75 -212 OFFCURVE",
"131 -212 CURVE SMOOTH",
"215 -212 OFFCURVE",
"310 -179 OFFCURVE",
"310 -26 CURVE",
"224 -16 LINE",
"224 -132 OFFCURVE",
"188 -204 OFFCURVE",
"131 -204 CURVE SMOOTH",
"78 -204 OFFCURVE",
"52 -137 OFFCURVE",
"52 -42 CURVE SMOOTH",
"52 -21 OFFCURVE",
"54 1 OFFCURVE",
"59 25 CURVE",
"54 26 LINE",
"-4 -162 LINE",
"31 -197 OFFCURVE"
);
}
);
width = 392;
},
{
associatedMasterId = "15398AEC-D437-4D9F-8CD1-FC2630A97B3B";
background = {
components = (
{
name = i;
transform = "{1, 0, 0, 1, -9, 0}";
}
);
};
components = (
{
name = attaque;
transform = "{1, 0, 0, 1, -64, 0}";
},
{
name = dotaccentcomb;
transform = "{1, 0, 0, 1, -9, 0}";
}
);
layerId = "EC7FFFB7-045A-4CA7-87EA-7D96E1CA9C94";
name = "Oct 8 19, 10:49";
paths = (
{
closed = 1;
nodes = (
"96 410 LINE",
"96 -16 LINE SMOOTH",
"96 -112 OFFCURVE",
"60 -184 OFFCURVE",
"2 -207 CURVE",
"3 -212 LINE",
"87 -192 OFFCURVE",
"182 -159 OFFCURVE",
"182 -26 CURVE SMOOTH",
"182 427 LINE",
"139 427 LINE"
);
}
);
width = 264;
},
{
background = {
components = (
{
name = idotless;
transform = "{1, 0, 0, 1, -24, 0}";
},
{
name = dotaccentcomb;
transform = "{1, 0, 0, 1, 31, 0}";
}
);
};
components = (
{
alignment = -1;
name = attaque;
transform = "{1, 0, 0, 1, -69, -6}";
},
{
alignment = -1;
name = dotaccentcomb;
transform = "{1, 0, 0, 1, 31, 0}";
}
);
layerId = "263FFEFB-F93F-4256-96DD-DB57701D3362";
paths = (
{
closed = 1;
nodes = (
"95 410 LINE",
"95 24 LINE SMOOTH",
"95 -95 OFFCURVE",
"58 -175 OFFCURVE",
"-4 -196 CURVE",
"1 -210 LINE",
"86 -188 OFFCURVE",
"181 -151 OFFCURVE",
"181 14 CURVE SMOOTH",
"181 427 LINE",
"138 427 LINE"
);
}
);
width = 259;
},
{
background = {
components = (
{
name = idotless;
transform = "{1, 0, 0, 1, -24, 0}";
},
{
name = dotaccentcomb;
transform = "{1, 0, 0, 1, 31, 0}";
}
);
};
components = (
{
alignment = -1;
name = attaque;
transform = "{1, 0, 0, 1, -69, -6}";
},
{
alignment = -1;
name = dotaccentcomb;
transform = "{1, 0, 0, 1, 31, 0}";
}
);
layerId = "49567DAC-64C1-4764-83F5-5952E919F015";
paths = (
{
closed = 1;
nodes = (
"95 410 LINE",
"95 24 LINE SMOOTH",
"95 -95 OFFCURVE",
"58 -175 OFFCURVE",
"-4 -196 CURVE",
"1 -210 LINE",
"86 -188 OFFCURVE",
"181 -151 OFFCURVE",
"181 14 CURVE SMOOTH",
"181 427 LINE",
"138 427 LINE"
);
}
);
width = 259;
}
);
leftMetricsKey = u;
unicode = 006A;
},
{
color = 3;
glyphname = k;
lastChange = "2019-10-09 20:13:29 +0000";
layers = (
{
components = (
{
name = attaque;
transform = "{1, 0, 0, 1, -55, 220}";
},
{
name = Serif_long;
transform = "{1, 0, 0, 1, -51, 0}";
},
{
name = Serif_long;
transform = "{-1, 0, 0, 1, 347, 0}";
}
);
layerId = "15398AEC-D437-4D9F-8CD1-FC2630A97B3B";
paths = (
{
closed = 1;
nodes = (
"105 93 LINE",
"191 93 LINE",
"191 606 LINE",
"105 616 LINE"
);
}
);
width = 282;
},
{
background = {
paths = (
{
closed = 1;
nodes = (
"238 295 LINE",
"310 137 LINE SMOOTH",
"378 -10 OFFCURVE",
"445 -75 OFFCURVE",
"532 -132 CURVE",
"538 -126 LINE",
"482 -41 OFFCURVE",
"445 37 OFFCURVE",
"393 152 CURVE SMOOTH",
"304 349 LINE"
);
}
);
};
components = (
{
alignment = -1;
name = attaque;
transform = "{1, 0, 0, 1, -55, 214}";
},
{
alignment = -1;
name = Serif_long;
transform = "{1, 0, 0, 1, -51, 0}";
},
{
alignment = -1;
name = Serif_long;
transform = "{-1, 0, 0, 1, 355, 0}";
}
);
layerId = "263FFEFB-F93F-4256-96DD-DB57701D3362";
paths = (
{
closed = 1;
nodes = (
"109 0 LINE",
"195 0 LINE",
"195 606 LINE",
"109 616 LINE"
);
},
{
closed = 1;
nodes = (
"170 212 LINE",
"353 370 LINE SMOOTH",
"429 435 OFFCURVE",
"491 484 OFFCURVE",
"541 484 CURVE",
"541 500 LINE",
"319 500 LINE",
"319 484 LINE",
"420 484 OFFCURVE",
"398 453 OFFCURVE",
"318 382 CURVE SMOOTH",
"177 257 LINE"
);
},
{
closed = 1;
nodes = (
"242 286 LINE",
"323 155 LINE SMOOTH",
"387 51 OFFCURVE",
"476 -29 OFFCURVE",
"583 -87 CURVE",
"590 -76 LINE",
"532 -9 OFFCURVE",
"486 56 OFFCURVE",
"416 172 CURVE SMOOTH",
"307 351 LINE"
);
}
);
width = 555;
},
{
background = {
paths = (
{
closed = 1;
nodes = (
"238 295 LINE",
"310 137 LINE SMOOTH",
"378 -10 OFFCURVE",
"445 -75 OFFCURVE",
"532 -132 CURVE",
"538 -126 LINE",
"482 -41 OFFCURVE",
"445 37 OFFCURVE",
"393 152 CURVE SMOOTH",
"304 349 LINE"
);
}
);
};
components = (
{
alignment = -1;
name = attaque;
transform = "{1, 0, 0, 1, -55, 214}";
},
{
alignment = -1;
name = Serif_long;
transform = "{1, 0, 0, 1, -51, 0}";
},
{
alignment = -1;
name = Serif_long;
transform = "{-1, 0, 0, 1, 355, 0}";
}
);
layerId = "49567DAC-64C1-4764-83F5-5952E919F015";
paths = (
{
closed = 1;
nodes = (
"109 0 LINE",
"195 0 LINE",
"195 606 LINE",
"109 616 LINE"
);
},
{
closed = 1;
nodes = (
"170 212 LINE",
"353 370 LINE SMOOTH",
"429 435 OFFCURVE",
"491 484 OFFCURVE",
"541 484 CURVE",
"541 500 LINE",
"319 500 LINE",
"319 484 LINE",
"420 484 OFFCURVE",
"398 453 OFFCURVE",
"318 382 CURVE SMOOTH",
"177 257 LINE"
);
},
{
closed = 1;
nodes = (
"242 286 LINE",
"323 155 LINE SMOOTH",
"387 51 OFFCURVE",
"476 -29 OFFCURVE",
"583 -87 CURVE",
"590 -76 LINE",
"532 -9 OFFCURVE",
"486 56 OFFCURVE",
"416 172 CURVE SMOOTH",
"307 351 LINE"
);
}
);
width = 555;
}
);
leftMetricsKey = h;
unicode = 006B;
},
{
color = 4;
glyphname = l;
lastChange = "2019-10-09 20:13:14 +0000";
layers = (
{
background = {
paths = (
{
closed = 1;
nodes = (
"299 512 OFFCURVE",
"249 474 OFFCURVE",
"187 387 CURVE",
"186 360 LINE",
"250 444 OFFCURVE",
"281 458 OFFCURVE",
"316 458 CURVE SMOOTH",
"355 458 OFFCURVE",
"376 428 OFFCURVE",
"375 382 CURVE SMOOTH",
"373 300 OFFCURVE",
"322 244 OFFCURVE",
"193 180 CURVE",
"194 161 LINE",
"267 196 LINE SMOOTH",
"419 269 OFFCURVE",
"467 335 OFFCURVE",
"467 403 CURVE SMOOTH",
"467 473 OFFCURVE",
"424 512 OFFCURVE",
"364 512 CURVE SMOOTH"
);
}
);
};
components = (
{
name = attaque;
transform = "{1, 0, 0, 1, -55, 220}";
},
{
name = Serif_long;
transform = "{1, 0, 0, 1, -51, 0}";
},
{
name = serif_court;
transform = "{1, 0, 0, 1, -51, 0}";
}
);
layerId = "15398AEC-D437-4D9F-8CD1-FC2630A97B3B";
paths = (
{
closed = 1;
nodes = (
"105 93 LINE",
"191 93 LINE",
"191 606 LINE",
"105 616 LINE"
);
}
);
width = 276;
},
{
components = (
{
alignment = -1;
name = attaque;
transform = "{1, 0, 0, 1, -55, 217}";
},
{
alignment = -1;
name = Serif_long;
transform = "{1, 0, 0, 1, -51, 0}";
},
{
alignment = -1;
name = Serif_long;
transform = "{-1, 0, 0, 1, 355, 0}";
}
);
layerId = "263FFEFB-F93F-4256-96DD-DB57701D3362";
paths = (
{
closed = 1;
nodes = (
"109 0 LINE",
"195 0 LINE",
"195 606 LINE",
"109 616 LINE"
);
}
);
width = 316;
},
{
components = (
{
alignment = -1;
name = attaque;
transform = "{1, 0, 0, 1, -55, 217}";
},
{
alignment = -1;
name = Serif_long;
transform = "{1, 0, 0, 1, -51, 0}";
},
{
alignment = -1;
name = Serif_long;
transform = "{-1, 0, 0, 1, 355, 0}";
}
);
layerId = "49567DAC-64C1-4764-83F5-5952E919F015";
paths = (
{
closed = 1;
nodes = (
"109 0 LINE",
"195 0 LINE",
"195 606 LINE",
"109 616 LINE"
);
}
);
width = 316;
}
);
leftMetricsKey = h;
rightMetricsKey = idotless;
unicode = 006C;
},
{
color = 4;
glyphname = m;
lastChange = "2019-10-09 20:13:14 +0000";
layers = (
{
components = (
{
name = attaque;
transform = "{1, 0, 0, 1, -55, 0}";
},
{
name = Serif_long;
transform = "{1, 0, 0, 1, -51, 0}";
},
{
name = serif_coooouuurrt;
transform = "{1, 0, 0, 1, -51, 0}";
},
{
name = serif_coooouuurrt;
transform = "{-1, 0, 0, 1, 602, 0}";
},
{
name = serif_coooouuurrt;
transform = "{1, 0, 0, 1, 204, 0}";
},
{
name = serif_coooouuurrt;
transform = "{-1, 0, 0, 1, 857, 0}";
},
{
name = Serif_long;
transform = "{-1, 0, 0, 1, 857, 0}";
}
);
layerId = "15398AEC-D437-4D9F-8CD1-FC2630A97B3B";
paths = (
{
closed = 1;
nodes = (
"105 93 LINE",
"148 83 LINE",
"191 90 LINE",
"191 386 LINE",
"105 396 LINE"
);
},
{
closed = 1;
nodes = (
"299 512 OFFCURVE",
"252 493 OFFCURVE",
"208 425 CURVE SMOOTH",
"182 385 LINE",
"181 347 LINE",
"224 429 OFFCURVE",
"260 461 OFFCURVE",
"302 461 CURVE SMOOTH",
"338 461 OFFCURVE",
"360 433 OFFCURVE",
"360 357 CURVE SMOOTH",
"360 90 LINE",
"403 83 LINE",
"446 90 LINE",
"446 363 LINE SMOOTH",
"446 468 OFFCURVE",
"411 512 OFFCURVE",
"344 512 CURVE SMOOTH"
);
},
{
closed = 1;
nodes = (
"554 512 OFFCURVE",
"507 493 OFFCURVE",
"463 425 CURVE SMOOTH",
"437 385 LINE",
"436 347 LINE",
"479 429 OFFCURVE",
"515 461 OFFCURVE",
"557 461 CURVE SMOOTH",
"593 461 OFFCURVE",
"615 433 OFFCURVE",
"615 357 CURVE SMOOTH",
"615 90 LINE",
"658 83 LINE",
"701 83 LINE",
"701 363 LINE SMOOTH",
"701 468 OFFCURVE",
"666 512 OFFCURVE",
"599 512 CURVE SMOOTH"
);
}
);
width = 794;
},
{
components = (
{
alignment = -1;
name = attaque;
transform = "{1, 0, 0, 1, -45, -6}";
},
{
alignment = -1;
name = Serif_long;
transform = "{1, 0, 0, 1, -41, 0}";
},
{
alignment = -1;
name = serif_court;
transform = "{1, 0, 0, 1, -41, 0}";
},
{
alignment = -1;
name = serif_court;
transform = "{-1, 0, 0, 1, 652, 0}";
},
{
alignment = -1;
name = serif_court;
transform = "{1, 0, 0, 1, 246, 0}";
},
{
alignment = -1;
name = Serif_long;
transform = "{-1, 0, 0, 1, 939, 0}";
},
{
alignment = -1;
name = serif_court;
transform = "{-1, 0, 0, 1, 939, 0}";
}
);
layerId = "263FFEFB-F93F-4256-96DD-DB57701D3362";
paths = (
{
closed = 1;
nodes = (
"119 0 LINE",
"205 0 LINE",
"205 386 LINE",
"119 396 LINE"
);
},
{
closed = 1;
nodes = (
"293 512 OFFCURVE",
"240 482 OFFCURVE",
"207 424 CURVE SMOOTH",
"194 401 LINE",
"200 347 LINE",
"225 419 OFFCURVE",
"268 461 OFFCURVE",
"328 461 CURVE SMOOTH",
"378 461 OFFCURVE",
"406 432 OFFCURVE",
"406 356 CURVE SMOOTH",
"406 0 LINE",
"492 0 LINE",
"492 362 LINE SMOOTH",
"492 471 OFFCURVE",
"443 512 OFFCURVE",
"355 512 CURVE SMOOTH"
);
},
{
closed = 1;
nodes = (
"406 0 LINE",
"492 0 LINE",
"492 386 LINE",
"406 396 LINE"
);
},
{
closed = 1;
nodes = (
"577 512 OFFCURVE",
"526 482 OFFCURVE",
"494 424 CURVE SMOOTH",
"481 401 LINE",
"487 347 LINE",
"511 419 OFFCURVE",
"552 461 OFFCURVE",
"615 461 CURVE SMOOTH",
"663 461 OFFCURVE",
"693 432 OFFCURVE",
"693 356 CURVE SMOOTH",
"693 0 LINE",
"779 0 LINE",
"779 362 LINE SMOOTH",
"779 471 OFFCURVE",
"728 512 OFFCURVE",
"642 512 CURVE SMOOTH"
);
}
);
width = 880;
},
{
components = (
{
alignment = -1;
name = attaque;
transform = "{1, 0, 0, 1, -45, -6}";
},
{
alignment = -1;
name = Serif_long;
transform = "{1, 0, 0, 1, -41, 0}";
},
{
alignment = -1;
name = serif_court;
transform = "{1, 0, 0, 1, -41, 0}";
},
{
alignment = -1;
name = serif_court;
transform = "{-1, 0, 0, 1, 652, 0}";
},
{
alignment = -1;
name = serif_court;
transform = "{1, 0, 0, 1, 246, 0}";
},
{
alignment = -1;
name = Serif_long;
transform = "{-1, 0, 0, 1, 939, 0}";
},
{
alignment = -1;
name = serif_court;
transform = "{-1, 0, 0, 1, 939, 0}";
}
);
layerId = "49567DAC-64C1-4764-83F5-5952E919F015";
paths = (
{
closed = 1;
nodes = (
"119 0 LINE",
"205 0 LINE",
"205 386 LINE",
"119 396 LINE"
);
},
{
closed = 1;
nodes = (
"293 512 OFFCURVE",
"240 482 OFFCURVE",
"207 424 CURVE SMOOTH",
"194 401 LINE",
"200 347 LINE",
"225 419 OFFCURVE",
"268 461 OFFCURVE",
"328 461 CURVE SMOOTH",
"378 461 OFFCURVE",
"406 432 OFFCURVE",
"406 356 CURVE SMOOTH",
"406 0 LINE",
"492 0 LINE",
"492 362 LINE SMOOTH",
"492 471 OFFCURVE",
"443 512 OFFCURVE",
"355 512 CURVE SMOOTH"
);
},
{
closed = 1;
nodes = (
"406 0 LINE",
"492 0 LINE",
"492 386 LINE",
"406 396 LINE"
);
},
{
closed = 1;
nodes = (
"577 512 OFFCURVE",
"526 482 OFFCURVE",
"494 424 CURVE SMOOTH",
"481 401 LINE",
"487 347 LINE",
"511 419 OFFCURVE",
"552 461 OFFCURVE",
"615 461 CURVE SMOOTH",
"663 461 OFFCURVE",
"693 432 OFFCURVE",
"693 356 CURVE SMOOTH",
"693 0 LINE",
"779 0 LINE",
"779 362 LINE SMOOTH",
"779 471 OFFCURVE",
"728 512 OFFCURVE",
"642 512 CURVE SMOOTH"
);
}
);
width = 880;
}
);
leftMetricsKey = n;
rightMetricsKey = n;
unicode = 006D;
},
{
color = 4;
glyphname = n;
lastChange = "2019-10-09 20:13:14 +0000";
layers = (
{
background = {
paths = (
{
closed = 1;
nodes = (
"105 396 LINE",
"105 124 LINE SMOOTH",
"105 35 OFFCURVE",
"168 -12 OFFCURVE",
"279 -12 CURVE SMOOTH",
"342 -12 OFFCURVE",
"397 9 OFFCURVE",
"449 46 CURVE",
"391 215 LINE",
"386 214 LINE",
"407 101 OFFCURVE",
"364 8 OFFCURVE",
"284 8 CURVE SMOOTH",
"231 8 OFFCURVE",
"191 49 OFFCURVE",
"191 117 CURVE SMOOTH",
"191 386 LINE"
);
},
{
closed = 1;
nodes = (
"298 512 OFFCURVE",
"255 493 OFFCURVE",
"208 425 CURVE SMOOTH",
"182 387 LINE",
"181 353 LINE",
"228 429 OFFCURVE",
"264 461 OFFCURVE",
"304 461 CURVE SMOOTH",
"348 461 OFFCURVE",
"369 423 OFFCURVE",
"369 374 CURVE SMOOTH",
"369 311 OFFCURVE",
"335 246 OFFCURVE",
"220 204 CURVE SMOOTH",
"187 192 LINE",
"188 174 LINE",
"374 225 OFFCURVE",
"461 290 OFFCURVE",
"461 390 CURVE SMOOTH",
"461 459 OFFCURVE",
"420 512 OFFCURVE",
"345 512 CURVE SMOOTH"
);
}
);
};
components = (
{
name = attaque;
transform = "{1, 0, 0, 1, -55, 0}";
},
{
name = Serif_long;
transform = "{1, 0, 0, 1, -51, 0}";
},
{
name = serif_court;
transform = "{1, 0, 0, 1, -51, 0}";
},
{
name = Serif_long;
transform = "{-1, 0, 0, 1, 622, 0}";
},
{
name = serif_court;
transform = "{-1, 0, 0, 1, 622, 0}";
}
);
layerId = "15398AEC-D437-4D9F-8CD1-FC2630A97B3B";
paths = (
{
closed = 1;
nodes = (
"105 93 LINE",
"191 93 LINE",
"191 386 LINE",
"105 396 LINE"
);
},
{
closed = 1;
nodes = (
"306 512 OFFCURVE",
"255 493 OFFCURVE",
"208 425 CURVE SMOOTH",
"182 387 LINE",
"181 353 LINE",
"228 429 OFFCURVE",
"267 461 OFFCURVE",
"312 461 CURVE SMOOTH",
"355 461 OFFCURVE",
"380 433 OFFCURVE",
"380 357 CURVE SMOOTH",
"380 93 LINE",
"466 93 LINE",
"466 363 LINE SMOOTH",
"466 468 OFFCURVE",
"428 512 OFFCURVE",
"354 512 CURVE SMOOTH"
);
}
);
width = 559;
},
{
associatedMasterId = "15398AEC-D437-4D9F-8CD1-FC2630A97B3B";
backgroundImage = {
crop = "{{0, 0}, {140, 160}}";
imagePath = ../Documents/ANRT/Workshop_Emilie/Scans/1.pdf;
};
components = (
{
name = attaque;
transform = "{1, 0, 0, 1, -50, 0}";
},
{
name = Serif_long;
transform = "{1, 0, 0, 1, -46, 0}";
},
{
name = serif_court;
transform = "{1, 0, 0, 1, -46, 0}";
},
{
name = Serif_long;
transform = "{-1, 0, 0, 1, 627, 0}";
},
{
name = serif_court;
transform = "{-1, 0, 0, 1, 627, 0}";
}
);
layerId = "4E7824C0-B597-49FC-A3C6-A880F2E93D4F";
name = "Oct 7 19, 19:44";
paths = (
{
closed = 1;
nodes = (
"110 93 LINE",
"196 93 LINE",
"196 386 LINE",
"110 396 LINE"
);
},
{
closed = 1;
nodes = (
"304 512 OFFCURVE",
"254 474 OFFCURVE",
"192 387 CURVE",
"191 360 LINE",
"255 443 OFFCURVE",
"287 458 OFFCURVE",
"322 458 CURVE SMOOTH",
"359 458 OFFCURVE",
"385 441 OFFCURVE",
"385 378 CURVE SMOOTH",
"385 93 LINE",
"471 93 LINE",
"471 393 LINE SMOOTH",
"471 473 OFFCURVE",
"432 512 OFFCURVE",
"368 512 CURVE SMOOTH"
);
}
);
width = 570;
},
{
associatedMasterId = "15398AEC-D437-4D9F-8CD1-FC2630A97B3B";
background = {
paths = (
{
closed = 1;
nodes = (
"110 396 LINE",
"110 124 LINE SMOOTH",
"110 35 OFFCURVE",
"173 -12 OFFCURVE",
"284 -12 CURVE SMOOTH",
"347 -12 OFFCURVE",
"402 9 OFFCURVE",
"454 46 CURVE",
"396 215 LINE",
"391 214 LINE",
"412 101 OFFCURVE",
"369 8 OFFCURVE",
"289 8 CURVE SMOOTH",
"236 8 OFFCURVE",
"196 49 OFFCURVE",
"196 117 CURVE SMOOTH",
"196 386 LINE"
);
},
{
closed = 1;
nodes = (
"303 512 OFFCURVE",
"260 493 OFFCURVE",
"213 425 CURVE SMOOTH",
"187 387 LINE",
"186 353 LINE",
"233 429 OFFCURVE",
"269 461 OFFCURVE",
"309 461 CURVE SMOOTH",
"353 461 OFFCURVE",
"374 423 OFFCURVE",
"374 374 CURVE SMOOTH",
"374 311 OFFCURVE",
"340 246 OFFCURVE",
"225 204 CURVE SMOOTH",
"192 192 LINE",
"193 174 LINE",
"379 225 OFFCURVE",
"466 290 OFFCURVE",
"466 390 CURVE SMOOTH",
"466 459 OFFCURVE",
"425 512 OFFCURVE",
"350 512 CURVE SMOOTH"
);
}
);
};
backgroundImage = {
crop = "{{0, 0}, {140, 160}}";
imagePath = ../Documents/ANRT/Workshop_Emilie/Scans/1.pdf;
};
components = (
{
name = attaque;
transform = "{1, 0, 0, 1, -50, 0}";
},
{
name = Serif_long;
transform = "{1, 0, 0, 1, -46, 0}";
},
{
name = serif_court;
transform = "{1, 0, 0, 1, -46, 0}";
},
{
name = Serif_long;
transform = "{-1, 0, 0, 1, 627, 0}";
},
{
name = serif_court;
transform = "{-1, 0, 0, 1, 627, 0}";
}
);
layerId = "6FD66F11-77D9-4F3C-888B-880B408E919D";
name = "Oct 7 19, 20:39";
paths = (
{
closed = 1;
nodes = (
"110 93 LINE",
"196 93 LINE",
"196 386 LINE",
"110 396 LINE"
);
},
{
closed = 1;
nodes = (
"312 512 OFFCURVE",
"272 489 OFFCURVE",
"229 434 CURVE SMOOTH",
"192 387 LINE",
"191 360 LINE",
"246 433 OFFCURVE",
"278 458 OFFCURVE",
"320 458 CURVE SMOOTH",
"363 458 OFFCURVE",
"385 432 OFFCURVE",
"385 367 CURVE SMOOTH",
"385 93 LINE",
"471 93 LINE",
"471 383 LINE SMOOTH",
"471 471 OFFCURVE",
"436 512 OFFCURVE",
"365 512 CURVE SMOOTH"
);
}
);
width = 570;
},
{
anchors = (
{
name = bottom;
position = "{302, 0}";
},
{
name = top;
position = "{312, 500}";
}
);
background = {
paths = (
{
closed = 1;
nodes = (
"118 396 LINE",
"118 124 LINE SMOOTH",
"118 33 OFFCURVE",
"180 -12 OFFCURVE",
"292 -12 CURVE SMOOTH",
"365 -12 OFFCURVE",
"419 7 OFFCURVE",
"474 46 CURVE",
"424 201 LINE",
"411 198 LINE",
"433 99 OFFCURVE",
"394 24 OFFCURVE",
"301 24 CURVE SMOOTH",
"238 24 OFFCURVE",
"204 59 OFFCURVE",
"204 133 CURVE SMOOTH",
"204 386 LINE"
);
},
{
closed = 1;
nodes = (
"287 512 OFFCURVE",
"240 482 OFFCURVE",
"204 420 CURVE SMOOTH",
"193 401 LINE",
"198 344 LINE",
"227 424 OFFCURVE",
"267 461 OFFCURVE",
"320 461 CURVE SMOOTH",
"366 461 OFFCURVE",
"392 433 OFFCURVE",
"392 377 CURVE SMOOTH",
"392 302 OFFCURVE",
"344 247 OFFCURVE",
"239 212 CURVE SMOOTH",
"200 199 LINE",
"201 168 LINE",
"408 224 OFFCURVE",
"484 288 OFFCURVE",
"484 385 CURVE SMOOTH",
"484 459 OFFCURVE",
"438 512 OFFCURVE",
"352 512 CURVE SMOOTH"
);
}
);
};
components = (
{
alignment = -1;
name = attaque;
transform = "{1, 0, 0, 1, -45, -5}";
},
{
alignment = -1;
name = Serif_long;
transform = "{1, 0, 0, 1, -41, 0}";
},
{
alignment = -1;
name = serif_court;
transform = "{1, 0, 0, 1, -41, 0}";
},
{
alignment = -1;
name = Serif_long;
transform = "{-1, 0, 0, 1, 662, 0}";
},
{
alignment = -1;
name = serif_court;
transform = "{-1, 0, 0, 1, 662, 0}";
}
);
layerId = "263FFEFB-F93F-4256-96DD-DB57701D3362";
paths = (
{
closed = 1;
nodes = (
"119 0 LINE",
"205 0 LINE",
"205 383 LINE",
"119 396 LINE"
);
},
{
closed = 1;
nodes = (
"299 507 OFFCURVE",
"238 476 OFFCURVE",
"207 421 CURVE SMOOTH",
"194 398 LINE",
"200 348 LINE",
"225 416 OFFCURVE",
"278 458 OFFCURVE",
"333 458 CURVE SMOOTH",
"378 458 OFFCURVE",
"416 429 OFFCURVE",
"416 351 CURVE SMOOTH",
"416 0 LINE",
"502 0 LINE",
"502 357 LINE SMOOTH",
"502 467 OFFCURVE",
"437 507 OFFCURVE",
"363 507 CURVE SMOOTH"
);
}
);
width = 603;
},
{
associatedMasterId = "263FFEFB-F93F-4256-96DD-DB57701D3362";
background = {
paths = (
{
closed = 1;
nodes = (
"94 396 LINE",
"94 124 LINE SMOOTH",
"94 33 OFFCURVE",
"156 -12 OFFCURVE",
"268 -12 CURVE SMOOTH",
"341 -12 OFFCURVE",
"395 7 OFFCURVE",
"450 46 CURVE",
"400 201 LINE",
"387 198 LINE",
"409 99 OFFCURVE",
"370 24 OFFCURVE",
"277 24 CURVE SMOOTH",
"214 24 OFFCURVE",
"180 59 OFFCURVE",
"180 133 CURVE SMOOTH",
"180 386 LINE"
);
},
{
closed = 1;
nodes = (
"263 512 OFFCURVE",
"216 482 OFFCURVE",
"180 420 CURVE SMOOTH",
"169 401 LINE",
"174 344 LINE",
"203 424 OFFCURVE",
"243 461 OFFCURVE",
"296 461 CURVE SMOOTH",
"342 461 OFFCURVE",
"368 433 OFFCURVE",
"368 377 CURVE SMOOTH",
"368 302 OFFCURVE",
"320 247 OFFCURVE",
"215 212 CURVE SMOOTH",
"176 199 LINE",
"177 168 LINE",
"384 224 OFFCURVE",
"460 288 OFFCURVE",
"460 385 CURVE SMOOTH",
"460 459 OFFCURVE",
"414 512 OFFCURVE",
"328 512 CURVE SMOOTH"
);
}
);
};
components = (
{
alignment = -1;
name = attaque;
transform = "{1, 0, 0, 1, -66, 0}";
},
{
alignment = -1;
name = Serif_long;
transform = "{1, 0, 0, 1, -62, 0}";
},
{
alignment = -1;
name = serif_court;
transform = "{1, 0, 0, 1, -62, 0}";
},
{
alignment = -1;
name = Serif_long;
transform = "{-1, 0, 0, 1, 627, 0}";
},
{
alignment = -1;
name = serif_court;
transform = "{-1, 0, 0, 1, 627, 0}";
}
);
layerId = "86F6793D-7255-428F-AAA9-6573EC448032";
name = "Oct 8 19, 17:17";
paths = (
{
closed = 1;
nodes = (
"94 93 LINE",
"180 93 LINE",
"180 386 LINE",
"94 396 LINE"
);
},
{
closed = 1;
nodes = (
"268 512 OFFCURVE",
"215 482 OFFCURVE",
"182 424 CURVE SMOOTH",
"169 401 LINE",
"175 347 LINE",
"200 419 OFFCURVE",
"243 461 OFFCURVE",
"305 461 CURVE SMOOTH",
"355 461 OFFCURVE",
"385 432 OFFCURVE",
"385 356 CURVE SMOOTH",
"385 93 LINE",
"471 93 LINE",
"471 362 LINE SMOOTH",
"471 471 OFFCURVE",
"420 512 OFFCURVE",
"332 512 CURVE SMOOTH"
);
}
);
width = 559;
},
{
anchors = (
{
name = bottom;
position = "{302, 0}";
},
{
name = top;
position = "{312, 500}";
}
);
background = {
paths = (
{
closed = 1;
nodes = (
"118 396 LINE",
"118 124 LINE SMOOTH",
"118 33 OFFCURVE",
"180 -12 OFFCURVE",
"292 -12 CURVE SMOOTH",
"365 -12 OFFCURVE",
"419 7 OFFCURVE",
"474 46 CURVE",
"424 201 LINE",
"411 198 LINE",
"433 99 OFFCURVE",
"394 24 OFFCURVE",
"301 24 CURVE SMOOTH",
"238 24 OFFCURVE",
"204 59 OFFCURVE",
"204 133 CURVE SMOOTH",
"204 386 LINE"
);
},
{
closed = 1;
nodes = (
"287 512 OFFCURVE",
"240 482 OFFCURVE",
"204 420 CURVE SMOOTH",
"193 401 LINE",
"198 344 LINE",
"227 424 OFFCURVE",
"267 461 OFFCURVE",
"320 461 CURVE SMOOTH",
"366 461 OFFCURVE",
"392 433 OFFCURVE",
"392 377 CURVE SMOOTH",
"392 302 OFFCURVE",
"344 247 OFFCURVE",
"239 212 CURVE SMOOTH",
"200 199 LINE",
"201 168 LINE",
"408 224 OFFCURVE",
"484 288 OFFCURVE",
"484 385 CURVE SMOOTH",
"484 459 OFFCURVE",
"438 512 OFFCURVE",
"352 512 CURVE SMOOTH"
);
}
);
};
components = (
{
alignment = -1;
name = attaque;
transform = "{1, 0, 0, 1, -45, -5}";
},
{
alignment = -1;
name = Serif_long;
transform = "{1, 0, 0, 1, -41, 0}";
},
{
alignment = -1;
name = serif_court;
transform = "{1, 0, 0, 1, -41, 0}";
},
{
alignment = -1;
name = Serif_long;
transform = "{-1, 0, 0, 1, 662, 0}";
},
{
alignment = -1;
name = serif_court;
transform = "{-1, 0, 0, 1, 662, 0}";
}
);
layerId = "49567DAC-64C1-4764-83F5-5952E919F015";
paths = (
{
closed = 1;
nodes = (
"119 0 LINE",
"205 0 LINE",
"205 383 LINE",
"119 396 LINE"
);
},
{
closed = 1;
nodes = (
"299 507 OFFCURVE",
"238 476 OFFCURVE",
"207 421 CURVE SMOOTH",
"194 398 LINE",
"200 348 LINE",
"225 416 OFFCURVE",
"278 458 OFFCURVE",
"333 458 CURVE SMOOTH",
"378 458 OFFCURVE",
"416 429 OFFCURVE",
"416 351 CURVE SMOOTH",
"416 0 LINE",
"502 0 LINE",
"502 357 LINE SMOOTH",
"502 467 OFFCURVE",
"437 507 OFFCURVE",
"363 507 CURVE SMOOTH"
);
}
);
width = 603;
},
{
associatedMasterId = "49567DAC-64C1-4764-83F5-5952E919F015";
background = {
paths = (
{
closed = 1;
nodes = (
"94 396 LINE",
"94 124 LINE SMOOTH",
"94 33 OFFCURVE",
"156 -12 OFFCURVE",
"268 -12 CURVE SMOOTH",
"341 -12 OFFCURVE",
"395 7 OFFCURVE",
"450 46 CURVE",
"400 201 LINE",
"387 198 LINE",
"409 99 OFFCURVE",
"370 24 OFFCURVE",
"277 24 CURVE SMOOTH",
"214 24 OFFCURVE",
"180 59 OFFCURVE",
"180 133 CURVE SMOOTH",
"180 386 LINE"
);
},
{
closed = 1;
nodes = (
"263 512 OFFCURVE",
"216 482 OFFCURVE",
"180 420 CURVE SMOOTH",
"169 401 LINE",
"174 344 LINE",
"203 424 OFFCURVE",
"243 461 OFFCURVE",
"296 461 CURVE SMOOTH",
"342 461 OFFCURVE",
"368 433 OFFCURVE",
"368 377 CURVE SMOOTH",
"368 302 OFFCURVE",
"320 247 OFFCURVE",
"215 212 CURVE SMOOTH",
"176 199 LINE",
"177 168 LINE",
"384 224 OFFCURVE",
"460 288 OFFCURVE",
"460 385 CURVE SMOOTH",
"460 459 OFFCURVE",
"414 512 OFFCURVE",
"328 512 CURVE SMOOTH"
);
}
);
};
components = (
{
alignment = -1;
name = attaque;
transform = "{1, 0, 0, 1, -66, 0}";
},
{
alignment = -1;
name = Serif_long;
transform = "{1, 0, 0, 1, -62, 0}";
},
{
alignment = -1;
name = serif_court;
transform = "{1, 0, 0, 1, -62, 0}";
},
{
alignment = -1;
name = Serif_long;
transform = "{-1, 0, 0, 1, 627, 0}";
},
{
alignment = -1;
name = serif_court;
transform = "{-1, 0, 0, 1, 627, 0}";
}
);
layerId = "50CE8A33-C3D5-43F9-AAF2-63812B7775BD";
name = "Oct 8 19, 17:17";
paths = (
{
closed = 1;
nodes = (
"94 93 LINE",
"180 93 LINE",
"180 386 LINE",
"94 396 LINE"
);
},
{
closed = 1;
nodes = (
"268 512 OFFCURVE",
"215 482 OFFCURVE",
"182 424 CURVE SMOOTH",
"169 401 LINE",
"175 347 LINE",
"200 419 OFFCURVE",
"243 461 OFFCURVE",
"305 461 CURVE SMOOTH",
"355 461 OFFCURVE",
"385 432 OFFCURVE",
"385 356 CURVE SMOOTH",
"385 93 LINE",
"471 93 LINE",
"471 362 LINE SMOOTH",
"471 471 OFFCURVE",
"420 512 OFFCURVE",
"332 512 CURVE SMOOTH"
);
}
);
width = 559;
}
);
leftKerningGroup = n;
rightKerningGroup = n;
unicode = 006E;
},
{
color = 4;
glyphname = o;
lastChange = "2019-10-09 20:13:14 +0000";
layers = (
{
layerId = "15398AEC-D437-4D9F-8CD1-FC2630A97B3B";
paths = (
{
closed = 1;
nodes = (
"380 -12 OFFCURVE",
"476 80 OFFCURVE",
"476 250 CURVE SMOOTH",
"476 420 OFFCURVE",
"380 512 OFFCURVE",
"250 512 CURVE SMOOTH",
"120 512 OFFCURVE",
"24 420 OFFCURVE",
"24 250 CURVE SMOOTH",
"24 80 OFFCURVE",
"120 -12 OFFCURVE",
"250 -12 CURVE SMOOTH"
);
},
{
closed = 1;
nodes = (
"174 8 OFFCURVE",
"116 86 OFFCURVE",
"116 250 CURVE SMOOTH",
"116 414 OFFCURVE",
"174 492 OFFCURVE",
"250 492 CURVE SMOOTH",
"326 492 OFFCURVE",
"383 414 OFFCURVE",
"384 250 CURVE SMOOTH",
"384 86 OFFCURVE",
"326 8 OFFCURVE",
"250 8 CURVE SMOOTH"
);
}
);
width = 500;
},
{
anchors = (
{
name = bottom;
position = "{276, 0}";
},
{
name = center;
position = "{276, 250}";
},
{
name = ogonek;
position = "{497, 10}";
},
{
name = top;
position = "{276, 500}";
},
{
name = topright;
position = "{532, 500}";
}
);
layerId = "263FFEFB-F93F-4256-96DD-DB57701D3362";
paths = (
{
closed = 1;
nodes = (
"406 -12 OFFCURVE",
"502 80 OFFCURVE",
"502 250 CURVE SMOOTH",
"502 420 OFFCURVE",
"406 512 OFFCURVE",
"276 512 CURVE SMOOTH",
"146 512 OFFCURVE",
"50 420 OFFCURVE",
"50 250 CURVE SMOOTH",
"50 80 OFFCURVE",
"146 -12 OFFCURVE",
"276 -12 CURVE SMOOTH"
);
},
{
closed = 1;
nodes = (
"200 28 OFFCURVE",
"142 100 OFFCURVE",
"142 250 CURVE SMOOTH",
"142 400 OFFCURVE",
"200 472 OFFCURVE",
"276 472 CURVE SMOOTH",
"352 472 OFFCURVE",
"410 400 OFFCURVE",
"410 250 CURVE SMOOTH",
"410 100 OFFCURVE",
"352 28 OFFCURVE",
"276 28 CURVE SMOOTH"
);
}
);
width = 552;
},
{
layerId = "49567DAC-64C1-4764-83F5-5952E919F015";
paths = (
{
closed = 1;
nodes = (
"406 -12 OFFCURVE",
"502 80 OFFCURVE",
"502 250 CURVE SMOOTH",
"502 420 OFFCURVE",
"406 512 OFFCURVE",
"276 512 CURVE SMOOTH",
"146 512 OFFCURVE",
"50 420 OFFCURVE",
"50 250 CURVE SMOOTH",
"50 80 OFFCURVE",
"146 -12 OFFCURVE",
"276 -12 CURVE SMOOTH"
);
},
{
closed = 1;
nodes = (
"200 28 OFFCURVE",
"142 100 OFFCURVE",
"142 250 CURVE SMOOTH",
"142 400 OFFCURVE",
"200 472 OFFCURVE",
"276 472 CURVE SMOOTH",
"352 472 OFFCURVE",
"409 400 OFFCURVE",
"410 250 CURVE SMOOTH",
"410 100 OFFCURVE",
"352 28 OFFCURVE",
"276 28 CURVE SMOOTH"
);
}
);
width = 552;
}
);
leftKerningGroup = o;
rightKerningGroup = o;
unicode = 006F;
},
{
color = 4;
glyphname = p;
lastChange = "2019-10-09 20:13:14 +0000";
layers = (
{
background = {
paths = (
{
closed = 1;
nodes = (
"447 -12 OFFCURVE",
"534 78 OFFCURVE",
"534 250 CURVE SMOOTH",
"534 418 OFFCURVE",
"456 512 OFFCURVE",
"352 512 CURVE SMOOTH",
"283 512 OFFCURVE",
"230 469 OFFCURVE",
"203 425 CURVE SMOOTH",
"180 387 LINE",
"179 354 LINE",
"217 429 OFFCURVE",
"263 461 OFFCURVE",
"316 461 CURVE SMOOTH",
"383 461 OFFCURVE",
"441 409 OFFCURVE",
"441 250 CURVE SMOOTH",
"442 87 OFFCURVE",
"370 42 OFFCURVE",
"316 42 CURVE SMOOTH",
"274 42 OFFCURVE",
"233 69 OFFCURVE",
"179 141 CURVE",
"180 113 LINE",
"210 75 LINE SMOOTH",
"251 24 OFFCURVE",
"288 -12 OFFCURVE",
"349 -12 CURVE SMOOTH"
);
}
);
};
components = (
{
name = serif_lonnnnnnng;
transform = "{1, 0, 0, 1, -51, -212}";
},
{
name = Serif_long;
transform = "{1, 0, 0, 1, -51, -212}";
},
{
name = attaque;
transform = "{1, 0, 0, 1, -55, 0}";
},
{
name = pd;
}
);
layerId = "15398AEC-D437-4D9F-8CD1-FC2630A97B3B";
paths = (
{
closed = 1;
nodes = (
"191 387 LINE",
"105 407 LINE",
"105 -151 LINE",
"191 -119 LINE"
);
}
);
width = 558;
},
{
components = (
{
alignment = -1;
name = serif_lonnnnnnng;
transform = "{1, 0, 0, 1, -44, -200}";
},
{
alignment = -1;
name = Serif_long;
transform = "{1, 0, 0, 1, -44, -200}";
},
{
alignment = -1;
name = attaque;
transform = "{1, 0, 0, 1, -48, -6}";
},
{
alignment = -1;
name = pd;
transform = "{1, 0, 0, 1, 7, 0}";
}
);
layerId = "263FFEFB-F93F-4256-96DD-DB57701D3362";
paths = (
{
closed = 1;
nodes = (
"202 387 LINE",
"116 407 LINE",
"116 -200 LINE",
"202 -200 LINE"
);
}
);
width = 591;
},
{
components = (
{
alignment = -1;
name = serif_lonnnnnnng;
transform = "{1, 0, 0, 1, -44, -200}";
},
{
alignment = -1;
name = Serif_long;
transform = "{1, 0, 0, 1, -44, -200}";
},
{
alignment = -1;
name = attaque;
transform = "{1, 0, 0, 1, -48, -6}";
},
{
alignment = -1;
name = pd;
transform = "{1, 0, 0, 1, 7, 0}";
}
);
layerId = "49567DAC-64C1-4764-83F5-5952E919F015";
paths = (
{
closed = 1;
nodes = (
"202 387 LINE",
"116 407 LINE",
"116 -200 LINE",
"202 -200 LINE"
);
}
);
width = 591;
}
);
leftKerningGroup = p;
rightMetricsKey = "=|d";
unicode = 0070;
},
{
color = 4;
glyphname = q;
lastChange = "2019-10-09 20:13:14 +0000";
layers = (
{
background = {
components = (
{
name = pd;
transform = "{-1, 0, 0, -1, 558, 500}";
}
);
};
components = (
{
name = serif_lonnnnnnng;
transform = "{-1, 0, 0, 1, 609, -212}";
},
{
name = Serif_long;
transform = "{-1, 0, 0, 1, 609, -212}";
},
{
name = sortie_qb;
transform = "{1, 0, 0, 1, -37, 0}";
},
{
name = pd;
transform = "{-1, 0, 0, -1, 558, 500}";
}
);
layerId = "15398AEC-D437-4D9F-8CD1-FC2630A97B3B";
paths = (
{
closed = 1;
nodes = (
"453 -151 LINE",
"453 392 LINE",
"367 392 LINE",
"367 -119 LINE"
);
}
);
width = 544;
},
{
components = (
{
alignment = -1;
name = serif_lonnnnnnng;
transform = "{-1, 0, 0, 1, 635, -200}";
},
{
alignment = -1;
name = Serif_long;
transform = "{-1, 0, 0, 1, 635, -200}";
},
{
alignment = -1;
name = sortie_qb;
transform = "{1, 0, 0, 1, -19, 0}";
},
{
name = bq;
transform = "{-1, 0, 0, -1, 584, 500}";
}
);
layerId = "263FFEFB-F93F-4256-96DD-DB57701D3362";
paths = (
{
closed = 1;
nodes = (
"475 -200 LINE",
"475 392 LINE",
"389 418 LINE",
"389 -200 LINE"
);
}
);
width = 570;
},
{
components = (
{
alignment = -1;
name = serif_lonnnnnnng;
transform = "{-1, 0, 0, 1, 635, -200}";
},
{
alignment = -1;
name = Serif_long;
transform = "{-1, 0, 0, 1, 635, -200}";
},
{
alignment = -1;
name = sortie_qb;
transform = "{1, 0, 0, 1, -19, 0}";
},
{
name = bq;
transform = "{-1, 0, 0, -1, 584, 500}";
}
);
layerId = "49567DAC-64C1-4764-83F5-5952E919F015";
paths = (
{
closed = 1;
nodes = (
"475 -200 LINE",
"475 392 LINE",
"389 418 LINE",
"389 -200 LINE"
);
}
);
width = 570;
}
);
leftMetricsKey = d;
unicode = 0071;
},
{
color = 4;
glyphname = r;
lastChange = "2019-10-09 20:13:14 +0000";
layers = (
{
background = {
paths = (
{
closed = 1;
nodes = (
"362 234 OFFCURVE",
"84 234 OFFCURVE",
"84 399 CURVE SMOOTH",
"84 495 OFFCURVE",
"181 532 OFFCURVE",
"269 532 CURVE SMOOTH",
"355 532 OFFCURVE",
"425 497 OFFCURVE",
"469 454 CURVE",
"411 274 LINE",
"406 275 LINE",
"430 412 OFFCURVE",
"375 512 OFFCURVE",
"269 512 CURVE SMOOTH",
"195 512 OFFCURVE",
"170 462 OFFCURVE",
"170 423 CURVE SMOOTH",
"170 299 OFFCURVE",
"448 294 OFFCURVE",
"448 130 CURVE SMOOTH",
"448 52 OFFCURVE",
"381 5 OFFCURVE",
"276 5 CURVE SMOOTH",
"211 5 OFFCURVE",
"163 23 OFFCURVE",
"102 63 CURVE",
"160 220 LINE",
"165 219 LINE",
"141 113 OFFCURVE",
"196 25 OFFCURVE",
"276 25 CURVE SMOOTH",
"326 25 OFFCURVE",
"362 59 OFFCURVE",
"362 105 CURVE SMOOTH"
);
}
);
};
components = (
{
name = attaque;
transform = "{1, 0, 0, 1, -55, 0}";
},
{
name = Serif_long;
transform = "{1, 0, 0, 1, -51, 0}";
},
{
name = serif_lonnnnnnng;
transform = "{1, 0, 0, 1, -51, 0}";
}
);
guideLines = (
{
angle = 72.8083;
position = "{445, 462}";
}
);
layerId = "15398AEC-D437-4D9F-8CD1-FC2630A97B3B";
paths = (
{
closed = 1;
nodes = (
"105 93 LINE",
"148 93 LINE",
"191 110 LINE",
"191 386 LINE",
"105 396 LINE"
);
},
{
closed = 1;
nodes = (
"287 512 OFFCURVE",
"244 475 OFFCURVE",
"206 417 CURVE SMOOTH",
"182 379 LINE",
"181 344 LINE",
"230 424 OFFCURVE",
"263 461 OFFCURVE",
"301 461 CURVE SMOOTH",
"357 461 OFFCURVE",
"378 379 OFFCURVE",
"358 275 CURVE",
"363 274 LINE",
"421 462 LINE",
"405 493 OFFCURVE",
"373 512 OFFCURVE",
"337 512 CURVE SMOOTH"
);
}
);
width = 449;
},
{
associatedMasterId = "15398AEC-D437-4D9F-8CD1-FC2630A97B3B";
background = {
paths = (
{
closed = 1;
nodes = (
"367 234 OFFCURVE",
"89 234 OFFCURVE",
"89 399 CURVE SMOOTH",
"89 495 OFFCURVE",
"186 532 OFFCURVE",
"274 532 CURVE SMOOTH",
"360 532 OFFCURVE",
"430 497 OFFCURVE",
"474 454 CURVE",
"416 274 LINE",
"411 275 LINE",
"435 412 OFFCURVE",
"380 512 OFFCURVE",
"274 512 CURVE SMOOTH",
"200 512 OFFCURVE",
"175 462 OFFCURVE",
"175 423 CURVE SMOOTH",
"175 299 OFFCURVE",
"453 294 OFFCURVE",
"453 130 CURVE SMOOTH",
"453 52 OFFCURVE",
"386 5 OFFCURVE",
"281 5 CURVE SMOOTH",
"216 5 OFFCURVE",
"168 23 OFFCURVE",
"107 63 CURVE",
"165 220 LINE",
"170 219 LINE",
"146 113 OFFCURVE",
"201 25 OFFCURVE",
"281 25 CURVE SMOOTH",
"331 25 OFFCURVE",
"367 59 OFFCURVE",
"367 105 CURVE SMOOTH"
);
}
);
};
components = (
{
name = attaque;
transform = "{1, 0, 0, 1, -50, 0}";
},
{
name = Serif_long;
transform = "{1, 0, 0, 1, -46, 0}";
},
{
name = serif_lonnnnnnng;
transform = "{1, 0, 0, 1, -46, 0}";
}
);
guideLines = (
{
angle = 72.8083;
position = "{450, 462}";
}
);
layerId = "D16087B9-DDB6-499A-9731-90DA55736CA6";
name = "Oct 7 19, 21:27";
paths = (
{
closed = 1;
nodes = (
"110 93 LINE",
"153 93 LINE",
"196 110 LINE",
"196 386 LINE",
"110 396 LINE"
);
},
{
closed = 1;
nodes = (
"311 512 OFFCURVE",
"260 486 OFFCURVE",
"213 417 CURVE SMOOTH",
"187 379 LINE",
"186 344 LINE",
"233 420 OFFCURVE",
"272 461 OFFCURVE",
"317 461 CURVE SMOOTH",
"382 461 OFFCURVE",
"407 379 OFFCURVE",
"387 275 CURVE",
"392 274 LINE",
"450 462 LINE",
"424 492 OFFCURVE",
"392 512 OFFCURVE",
"354 512 CURVE SMOOTH"
);
}
);
width = 454;
},
{
associatedMasterId = "15398AEC-D437-4D9F-8CD1-FC2630A97B3B";
background = {
paths = (
{
closed = 1;
nodes = (
"367 234 OFFCURVE",
"89 234 OFFCURVE",
"89 399 CURVE SMOOTH",
"89 495 OFFCURVE",
"186 532 OFFCURVE",
"274 532 CURVE SMOOTH",
"360 532 OFFCURVE",
"430 497 OFFCURVE",
"474 454 CURVE",
"416 274 LINE",
"411 275 LINE",
"435 412 OFFCURVE",
"380 512 OFFCURVE",
"274 512 CURVE SMOOTH",
"200 512 OFFCURVE",
"175 462 OFFCURVE",
"175 423 CURVE SMOOTH",
"175 299 OFFCURVE",
"453 294 OFFCURVE",
"453 130 CURVE SMOOTH",
"453 52 OFFCURVE",
"386 5 OFFCURVE",
"281 5 CURVE SMOOTH",
"216 5 OFFCURVE",
"168 23 OFFCURVE",
"107 63 CURVE",
"165 220 LINE",
"170 219 LINE",
"146 113 OFFCURVE",
"201 25 OFFCURVE",
"281 25 CURVE SMOOTH",
"331 25 OFFCURVE",
"367 59 OFFCURVE",
"367 105 CURVE SMOOTH"
);
}
);
};
components = (
{
name = attaque;
transform = "{1, 0, 0, 1, -50, 0}";
},
{
name = Serif_long;
transform = "{1, 0, 0, 1, -46, 0}";
},
{
name = serif_lonnnnnnng;
transform = "{1, 0, 0, 1, -46, 0}";
}
);
guideLines = (
{
angle = 72.8083;
position = "{450, 462}";
}
);
layerId = "892ECB62-38DC-4B54-88F8-E1A5EB999548";
name = "Oct 8 19, 10:48";
paths = (
{
closed = 1;
nodes = (
"110 93 LINE",
"153 93 LINE",
"196 110 LINE",
"196 386 LINE",
"110 396 LINE"
);
},
{
closed = 1;
nodes = (
"305 512 OFFCURVE",
"255 487 OFFCURVE",
"211 417 CURVE SMOOTH",
"187 379 LINE",
"186 344 LINE",
"230 420 OFFCURVE",
"267 461 OFFCURVE",
"310 461 CURVE SMOOTH",
"371 461 OFFCURVE",
"396 379 OFFCURVE",
"376 275 CURVE",
"381 274 LINE",
"439 462 LINE",
"413 492 OFFCURVE",
"385 512 OFFCURVE",
"347 512 CURVE SMOOTH"
);
}
);
width = 454;
},
{
background = {
paths = (
{
closed = 1;
nodes = (
"281 482 OFFCURVE",
"228 452 OFFCURVE",
"195 394 CURVE SMOOTH",
"182 371 LINE",
"188 317 LINE",
"213 389 OFFCURVE",
"256 431 OFFCURVE",
"321 431 CURVE SMOOTH",
"374 431 OFFCURVE",
"404 402 OFFCURVE",
"404 326 CURVE SMOOTH",
"404 63 LINE",
"490 63 LINE",
"490 332 LINE SMOOTH",
"490 441 OFFCURVE",
"439 482 OFFCURVE",
"348 482 CURVE SMOOTH"
);
}
);
};
components = (
{
alignment = -1;
name = attaque;
transform = "{1, 0, 0, 1, -45, -6}";
},
{
alignment = -1;
name = Serif_long;
transform = "{1, 0, 0, 1, -41, 0}";
},
{
alignment = -1;
name = serif_lonnnnnnng;
transform = "{1, 0, 0, 1, -41, 0}";
}
);
layerId = "263FFEFB-F93F-4256-96DD-DB57701D3362";
paths = (
{
closed = 1;
nodes = (
"119 0 LINE",
"205 0 LINE",
"205 386 LINE",
"119 396 LINE"
);
},
{
closed = 1;
nodes = (
"291 512 OFFCURVE",
"248 475 OFFCURVE",
"219 428 CURVE SMOOTH",
"189 379 LINE",
"199 337 LINE",
"243 418 OFFCURVE",
"278 453 OFFCURVE",
"317 453 CURVE SMOOTH",
"378 453 OFFCURVE",
"391 366 OFFCURVE",
"368 278 CURVE",
"381 274 LINE",
"439 462 LINE",
"419 493 OFFCURVE",
"387 512 OFFCURVE",
"347 512 CURVE SMOOTH"
);
}
);
width = 467;
},
{
background = {
paths = (
{
closed = 1;
nodes = (
"281 482 OFFCURVE",
"228 452 OFFCURVE",
"195 394 CURVE SMOOTH",
"182 371 LINE",
"188 317 LINE",
"213 389 OFFCURVE",
"256 431 OFFCURVE",
"321 431 CURVE SMOOTH",
"374 431 OFFCURVE",
"404 402 OFFCURVE",
"404 326 CURVE SMOOTH",
"404 63 LINE",
"490 63 LINE",
"490 332 LINE SMOOTH",
"490 441 OFFCURVE",
"439 482 OFFCURVE",
"348 482 CURVE SMOOTH"
);
}
);
};
components = (
{
alignment = -1;
name = attaque;
transform = "{1, 0, 0, 1, -45, -6}";
},
{
alignment = -1;
name = Serif_long;
transform = "{1, 0, 0, 1, -41, 0}";
},
{
alignment = -1;
name = serif_lonnnnnnng;
transform = "{1, 0, 0, 1, -41, 0}";
}
);
layerId = "49567DAC-64C1-4764-83F5-5952E919F015";
paths = (
{
closed = 1;
nodes = (
"119 0 LINE",
"205 0 LINE",
"205 386 LINE",
"119 396 LINE"
);
},
{
closed = 1;
nodes = (
"291 512 OFFCURVE",
"248 475 OFFCURVE",
"219 428 CURVE SMOOTH",
"189 379 LINE",
"199 337 LINE",
"243 418 OFFCURVE",
"278 453 OFFCURVE",
"317 453 CURVE SMOOTH",
"378 453 OFFCURVE",
"391 366 OFFCURVE",
"368 278 CURVE",
"381 274 LINE",
"439 462 LINE",
"419 493 OFFCURVE",
"387 512 OFFCURVE",
"347 512 CURVE SMOOTH"
);
}
);
width = 467;
}
);
leftMetricsKey = n;
rightKerningGroup = r;
unicode = 0072;
},
{
color = 4;
glyphname = s;
lastChange = "2019-10-10 09:29:10 +0000";
layers = (
{
layerId = "15398AEC-D437-4D9F-8CD1-FC2630A97B3B";
paths = (
{
closed = 1;
nodes = (
"138 277 OFFCURVE",
"417 281 OFFCURVE",
"417 118 CURVE SMOOTH",
"417 22 OFFCURVE",
"321 -12 OFFCURVE",
"233 -12 CURVE SMOOTH",
"151 -12 OFFCURVE",
"80 16 OFFCURVE",
"32 63 CURVE",
"90 243 LINE",
"95 242 LINE",
"71 105 OFFCURVE",
"125 8 OFFCURVE",
"233 8 CURVE SMOOTH",
"307 8 OFFCURVE",
"334 53 OFFCURVE",
"334 93 CURVE SMOOTH",
"334 225 OFFCURVE",
"55 225 OFFCURVE",
"55 387 CURVE SMOOTH",
"55 471 OFFCURVE",
"129 512 OFFCURVE",
"226 512 CURVE SMOOTH",
"290 512 OFFCURVE",
"343 491 OFFCURVE",
"399 454 CURVE",
"348 297 LINE",
"343 298 LINE",
"360 404 OFFCURVE",
"310 492 OFFCURVE",
"226 492 CURVE SMOOTH",
"178 492 OFFCURVE",
"138 461 OFFCURVE",
"138 411 CURVE SMOOTH"
);
}
);
width = 453;
},
{
layerId = "263FFEFB-F93F-4256-96DD-DB57701D3362";
paths = (
{
closed = 1;
nodes = (
"153 274 OFFCURVE",
"432 284 OFFCURVE",
"432 121 CURVE SMOOTH",
"432 27 OFFCURVE",
"336 -12 OFFCURVE",
"249 -12 CURVE SMOOTH",
"166 -12 OFFCURVE",
"92 19 OFFCURVE",
"44 64 CURVE",
"100 228 LINE",
"113 224 LINE",
"85 111 OFFCURVE",
"142 18 OFFCURVE",
"251 18 CURVE SMOOTH",
"324 18 OFFCURVE",
"349 62 OFFCURVE",
"349 100 CURVE SMOOTH",
"349 228 OFFCURVE",
"70 222 OFFCURVE",
"70 384 CURVE SMOOTH",
"70 465 OFFCURVE",
"140 512 OFFCURVE",
"237 512 CURVE SMOOTH",
"301 512 OFFCURVE",
"350 493 OFFCURVE",
"414 454 CURVE",
"363 297 LINE",
"350 300 LINE",
"368 401 OFFCURVE",
"333 482 OFFCURVE",
"238 482 CURVE SMOOTH",
"187 482 OFFCURVE",
"153 456 OFFCURVE",
"153 409 CURVE SMOOTH"
);
}
);
width = 472;
},
{
layerId = "49567DAC-64C1-4764-83F5-5952E919F015";
paths = (
{
closed = 1;
nodes = (
"153 277 OFFCURVE",
"432 281 OFFCURVE",
"432 118 CURVE SMOOTH",
"432 24 OFFCURVE",
"336 -12 OFFCURVE",
"249 -12 CURVE SMOOTH",
"166 -12 OFFCURVE",
"92 19 OFFCURVE",
"44 64 CURVE",
"100 228 LINE",
"113 224 LINE",
"85 111 OFFCURVE",
"142 18 OFFCURVE",
"251 18 CURVE SMOOTH",
"324 18 OFFCURVE",
"349 59 OFFCURVE",
"349 97 CURVE SMOOTH",
"349 225 OFFCURVE",
"70 225 OFFCURVE",
"70 387 CURVE SMOOTH",
"70 468 OFFCURVE",
"140 512 OFFCURVE",
"237 512 CURVE SMOOTH",
"301 512 OFFCURVE",
"350 493 OFFCURVE",
"414 454 CURVE",
"363 297 LINE",
"350 300 LINE",
"368 401 OFFCURVE",
"333 482 OFFCURVE",
"238 482 CURVE SMOOTH",
"187 482 OFFCURVE",
"153 459 OFFCURVE",
"153 412 CURVE SMOOTH"
);
}
);
width = 474;
}
);
unicode = 0073;
},
{
color = 4;
glyphname = t;
lastChange = "2019-10-09 20:13:14 +0000";
layers = (
{
background = {
components = (
{
name = attaque;
transform = "{1, 0, 0, 1, -67, 97}";
}
);
paths = (
{
closed = 1;
nodes = (
"263 43 OFFCURVE",
"252 41 OFFCURVE",
"242 41 CURVE SMOOTH",
"203 41 OFFCURVE",
"179 73 OFFCURVE",
"179 134 CURVE",
"93 114 LINE",
"93 62 OFFCURVE",
"108 17 OFFCURVE",
"151 -7 CURVE",
"277 42 LINE",
"275 47 LINE"
);
}
);
};
layerId = "15398AEC-D437-4D9F-8CD1-FC2630A97B3B";
paths = (
{
closed = 1;
nodes = (
"179 104 LINE",
"179 666 LINE",
"174 669 LINE",
"93 600 LINE",
"93 114 LINE"
);
},
{
closed = 1;
nodes = (
"208 35 OFFCURVE",
"179 71 OFFCURVE",
"179 134 CURVE",
"93 114 LINE",
"93 62 OFFCURVE",
"108 17 OFFCURVE",
"163 -7 CURVE",
"292 66 LINE",
"290 71 LINE"
);
},
{
closed = 1;
nodes = (
"20 480 LINE",
"287 480 LINE",
"289 500 LINE",
"22 500 LINE"
);
}
);
width = 302;
},
{
background = {
paths = (
{
closed = 0;
nodes = (
"165 -12 LINE SMOOTH",
"251 -12 OFFCURVE",
"304 47 OFFCURVE",
"323 162 CURVE",
"309 165 LINE",
"291 79 OFFCURVE",
"254 36 OFFCURVE",
"192 36 CURVE SMOOTH"
);
}
);
};
layerId = "263FFEFB-F93F-4256-96DD-DB57701D3362";
paths = (
{
closed = 1;
nodes = (
"177 112 LINE",
"177 666 LINE",
"172 669 LINE",
"91 600 LINE",
"91 113 LINE"
);
},
{
closed = 1;
nodes = (
"20 496 LINE",
"20 470 LINE",
"283 470 LINE",
"287 474 LINE",
"287 500 LINE",
"24 500 LINE"
);
},
{
closed = 1;
nodes = (
"267 66 OFFCURVE",
"246 41 OFFCURVE",
"221 41 CURVE SMOOTH",
"195 41 OFFCURVE",
"177 68 OFFCURVE",
"177 119 CURVE",
"91 121 LINE",
"91 51 OFFCURVE",
"116 -7 OFFCURVE",
"188 -7 CURVE SMOOTH",
"247 -7 OFFCURVE",
"279 34 OFFCURVE",
"291 112 CURVE",
"278 115 LINE"
);
}
);
width = 321;
},
{
background = {
paths = (
{
closed = 0;
nodes = (
"165 -12 LINE SMOOTH",
"251 -12 OFFCURVE",
"304 47 OFFCURVE",
"323 162 CURVE",
"309 165 LINE",
"291 79 OFFCURVE",
"254 36 OFFCURVE",
"192 36 CURVE SMOOTH"
);
}
);
};
layerId = "49567DAC-64C1-4764-83F5-5952E919F015";
paths = (
{
closed = 1;
nodes = (
"177 112 LINE",
"177 666 LINE",
"172 669 LINE",
"91 600 LINE",
"91 113 LINE"
);
},
{
closed = 1;
nodes = (
"20 496 LINE",
"20 470 LINE",
"283 470 LINE",
"287 474 LINE",
"287 500 LINE",
"24 500 LINE"
);
},
{
closed = 1;
nodes = (
"267 66 OFFCURVE",
"246 41 OFFCURVE",
"221 41 CURVE SMOOTH",
"195 41 OFFCURVE",
"177 68 OFFCURVE",
"177 119 CURVE",
"91 121 LINE",
"91 51 OFFCURVE",
"116 -7 OFFCURVE",
"188 -7 CURVE SMOOTH",
"247 -7 OFFCURVE",
"279 34 OFFCURVE",
"291 112 CURVE",
"278 115 LINE"
);
}
);
width = 321;
}
);
unicode = 0074;
},
{
color = 4;
glyphname = u;
lastChange = "2019-10-09 20:13:14 +0000";
layers = (
{
components = (
{
name = attaque;
transform = "{1, 0, 0, 1, -64, 0}";
},
{
name = attaque_long;
transform = "{1, 0, 0, 1, 207, 0}";
},
{
name = serif_bas;
transform = "{1, 0, 0, 1, 61, 0}";
}
);
layerId = "15398AEC-D437-4D9F-8CD1-FC2630A97B3B";
paths = (
{
closed = 1;
nodes = (
"453 407 LINE",
"367 407 LINE",
"367 114 LINE",
"453 134 LINE"
);
},
{
closed = 1;
nodes = (
"255 -12 OFFCURVE",
"305 7 OFFCURVE",
"350 75 CURVE SMOOTH",
"376 113 LINE",
"377 147 LINE",
"331 71 OFFCURVE",
"294 39 OFFCURVE",
"250 39 CURVE SMOOTH",
"208 39 OFFCURVE",
"182 67 OFFCURVE",
"182 143 CURVE SMOOTH",
"182 407 LINE",
"96 407 LINE",
"96 137 LINE SMOOTH",
"96 32 OFFCURVE",
"134 -12 OFFCURVE",
"208 -12 CURVE SMOOTH"
);
}
);
width = 547;
},
{
anchors = (
{
name = bottom;
position = "{288, 0}";
},
{
name = ogonek;
position = "{518, 10}";
},
{
name = top;
position = "{278, 500}";
},
{
name = topright;
position = "{556, 500}";
}
);
background = {
paths = (
{
closed = 1;
nodes = (
"288 -10 OFFCURVE",
"349 21 OFFCURVE",
"380 76 CURVE SMOOTH",
"393 99 LINE",
"387 149 LINE",
"362 81 OFFCURVE",
"309 39 OFFCURVE",
"254 39 CURVE SMOOTH",
"214 39 OFFCURVE",
"181 68 OFFCURVE",
"181 146 CURVE SMOOTH",
"181 500 LINE",
"95 500 LINE",
"95 140 LINE SMOOTH",
"95 30 OFFCURVE",
"155 -10 OFFCURVE",
"224 -10 CURVE SMOOTH"
);
}
);
};
components = (
{
alignment = -1;
name = attaque;
transform = "{1, 0, 0, 1, -69, -5}";
},
{
alignment = -1;
name = attaque_long;
transform = "{1, 0, 0, 1, 219, -5}";
},
{
alignment = -1;
name = serif_bas;
transform = "{1, 0, 0, 1, 74, 0}";
}
);
layerId = "263FFEFB-F93F-4256-96DD-DB57701D3362";
paths = (
{
closed = 1;
nodes = (
"470 400 LINE",
"384 400 LINE",
"384 117 LINE",
"470 104 LINE"
);
},
{
closed = 1;
nodes = (
"288 -7 OFFCURVE",
"349 24 OFFCURVE",
"380 79 CURVE SMOOTH",
"393 102 LINE",
"388 156 LINE",
"362 84 OFFCURVE",
"309 42 OFFCURVE",
"257 42 CURVE SMOOTH",
"214 42 OFFCURVE",
"181 71 OFFCURVE",
"181 147 CURVE SMOOTH",
"181 400 LINE",
"95 400 LINE",
"95 141 LINE SMOOTH",
"95 33 OFFCURVE",
"155 -7 OFFCURVE",
"226 -7 CURVE SMOOTH"
);
}
);
width = 576;
},
{
anchors = (
{
name = bottom;
position = "{288, 0}";
},
{
name = ogonek;
position = "{518, 10}";
},
{
name = top;
position = "{278, 500}";
},
{
name = topright;
position = "{556, 500}";
}
);
background = {
paths = (
{
closed = 1;
nodes = (
"288 -10 OFFCURVE",
"349 21 OFFCURVE",
"380 76 CURVE SMOOTH",
"393 99 LINE",
"387 149 LINE",
"362 81 OFFCURVE",
"309 39 OFFCURVE",
"254 39 CURVE SMOOTH",
"214 39 OFFCURVE",
"181 68 OFFCURVE",
"181 146 CURVE SMOOTH",
"181 500 LINE",
"95 500 LINE",
"95 140 LINE SMOOTH",
"95 30 OFFCURVE",
"155 -10 OFFCURVE",
"224 -10 CURVE SMOOTH"
);
}
);
};
components = (
{
alignment = -1;
name = attaque;
transform = "{1, 0, 0, 1, -69, -5}";
},
{
alignment = -1;
name = attaque_long;
transform = "{1, 0, 0, 1, 219, -5}";
},
{
alignment = -1;
name = serif_bas;
transform = "{1, 0, 0, 1, 74, 0}";
}
);
layerId = "49567DAC-64C1-4764-83F5-5952E919F015";
paths = (
{
closed = 1;
nodes = (
"470 400 LINE",
"384 400 LINE",
"384 117 LINE",
"470 104 LINE"
);
},
{
closed = 1;
nodes = (
"288 -7 OFFCURVE",
"349 24 OFFCURVE",
"380 79 CURVE SMOOTH",
"393 102 LINE",
"388 156 LINE",
"362 84 OFFCURVE",
"309 42 OFFCURVE",
"257 42 CURVE SMOOTH",
"214 42 OFFCURVE",
"181 71 OFFCURVE",
"181 147 CURVE SMOOTH",
"181 400 LINE",
"95 400 LINE",
"95 141 LINE SMOOTH",
"95 33 OFFCURVE",
"155 -7 OFFCURVE",
"226 -7 CURVE SMOOTH"
);
}
);
width = 576;
}
);
rightKerningGroup = u;
unicode = 0075;
},
{
color = 3;
glyphname = v;
lastChange = "2019-10-09 20:13:40 +0000";
layers = (
{
layerId = "15398AEC-D437-4D9F-8CD1-FC2630A97B3B";
width = 600;
},
{
anchors = (
{
name = bottom;
position = "{278, 0}";
},
{
name = top;
position = "{318, 500}";
}
);
background = {
paths = (
{
closed = 1;
nodes = (
"335 484 LINE",
"436 484 OFFCURVE",
"436 431 OFFCURVE",
"397 327 CURVE SMOOTH",
"287 37 LINE",
"338 88 LINE",
"212 367 LINE SMOOTH",
"176 447 OFFCURVE",
"190 484 OFFCURVE",
"283 484 CURVE",
"283 500 LINE",
"-2 500 LINE",
"-2 484 LINE",
"41 484 OFFCURVE",
"71 465 OFFCURVE",
"116 370 CURVE SMOOTH",
"289 3 LINE",
"282 27 LINE",
"274 9 LINE SMOOTH",
"204 -149 OFFCURVE",
"175 -184 OFFCURVE",
"105 -184 CURVE",
"105 -200 LINE",
"351 -200 LINE",
"351 -184 LINE",
"263 -184 OFFCURVE",
"254 -131 OFFCURVE",
"300 -16 CURVE SMOOTH",
"450 360 LINE SMOOTH",
"489 458 OFFCURVE",
"504 484 OFFCURVE",
"549 484 CURVE",
"549 500 LINE",
"335 500 LINE"
);
}
);
};
layerId = "263FFEFB-F93F-4256-96DD-DB57701D3362";
paths = (
{
closed = 1;
nodes = (
"339 484 LINE",
"440 484 OFFCURVE",
"442 429 OFFCURVE",
"401 327 CURVE SMOOTH",
"288 44 LINE",
"333 95 LINE",
"214 368 LINE SMOOTH",
"180 447 OFFCURVE",
"194 484 OFFCURVE",
"287 484 CURVE",
"287 500 LINE",
"2 500 LINE",
"2 484 LINE",
"45 484 OFFCURVE",
"77 466 OFFCURVE",
"120 370 CURVE SMOOTH",
"289 -8 LINE",
"295 -8 LINE",
"454 360 LINE SMOOTH",
"493 451 OFFCURVE",
"508 484 OFFCURVE",
"558 484 CURVE",
"558 500 LINE",
"339 500 LINE"
);
}
);
width = 555;
},
{
anchors = (
{
name = bottom;
position = "{278, 0}";
},
{
name = top;
position = "{318, 500}";
}
);
background = {
paths = (
{
closed = 1;
nodes = (
"335 484 LINE",
"436 484 OFFCURVE",
"436 431 OFFCURVE",
"397 327 CURVE SMOOTH",
"287 37 LINE",
"338 88 LINE",
"212 367 LINE SMOOTH",
"176 447 OFFCURVE",
"190 484 OFFCURVE",
"283 484 CURVE",
"283 500 LINE",
"-2 500 LINE",
"-2 484 LINE",
"41 484 OFFCURVE",
"71 465 OFFCURVE",
"116 370 CURVE SMOOTH",
"289 3 LINE",
"282 27 LINE",
"274 9 LINE SMOOTH",
"204 -149 OFFCURVE",
"175 -184 OFFCURVE",
"105 -184 CURVE",
"105 -200 LINE",
"351 -200 LINE",
"351 -184 LINE",
"263 -184 OFFCURVE",
"254 -131 OFFCURVE",
"300 -16 CURVE SMOOTH",
"450 360 LINE SMOOTH",
"489 458 OFFCURVE",
"504 484 OFFCURVE",
"549 484 CURVE",
"549 500 LINE",
"335 500 LINE"
);
}
);
};
layerId = "49567DAC-64C1-4764-83F5-5952E919F015";
paths = (
{
closed = 1;
nodes = (
"339 484 LINE",
"440 484 OFFCURVE",
"442 429 OFFCURVE",
"401 327 CURVE SMOOTH",
"288 44 LINE",
"333 95 LINE",
"214 368 LINE SMOOTH",
"180 447 OFFCURVE",
"194 484 OFFCURVE",
"287 484 CURVE",
"287 500 LINE",
"2 500 LINE",
"2 484 LINE",
"45 484 OFFCURVE",
"77 466 OFFCURVE",
"120 370 CURVE SMOOTH",
"289 -8 LINE",
"295 -8 LINE",
"454 360 LINE SMOOTH",
"493 451 OFFCURVE",
"508 484 OFFCURVE",
"558 484 CURVE",
"558 500 LINE",
"339 500 LINE"
);
}
);
width = 555;
}
);
leftKerningGroup = v;
rightKerningGroup = v;
unicode = 0076;
},
{
color = 1;
glyphname = w;
lastChange = "2019-10-10 09:31:45 +0000";
layers = (
{
layerId = "15398AEC-D437-4D9F-8CD1-FC2630A97B3B";
width = 600;
},
{
layerId = "263FFEFB-F93F-4256-96DD-DB57701D3362";
paths = (
{
closed = 1;
nodes = (
"329 484 LINE",
"430 484 OFFCURVE",
"412 430 OFFCURVE",
"374 327 CURVE SMOOTH",
"270 44 LINE",
"315 95 LINE",
"212 368 LINE SMOOTH",
"182 449 OFFCURVE",
"174 484 OFFCURVE",
"267 484 CURVE",
"267 500 LINE",
"2 500 LINE",
"2 484 LINE",
"45 484 OFFCURVE",
"81 468 OFFCURVE",
"120 370 CURVE SMOOTH",
"271 -8 LINE",
"277 -8 LINE",
"424 360 LINE SMOOTH",
"461 452 OFFCURVE",
"478 484 OFFCURVE",
"528 484 CURVE",
"528 500 LINE",
"329 500 LINE"
);
},
{
closed = 1;
nodes = (
"619 484 LINE",
"720 484 OFFCURVE",
"699 430 OFFCURVE",
"661 327 CURVE SMOOTH",
"556 44 LINE",
"601 96 LINE",
"502 368 LINE SMOOTH",
"473 449 OFFCURVE",
"464 484 OFFCURVE",
"557 484 CURVE",
"557 500 LINE",
"312 500 LINE",
"312 484 LINE",
"355 484 OFFCURVE",
"372 468 OFFCURVE",
"410 370 CURVE SMOOTH",
"557 -8 LINE",
"563 -8 LINE",
"714 360 LINE SMOOTH",
"752 452 OFFCURVE",
"768 484 OFFCURVE",
"818 484 CURVE",
"818 500 LINE",
"619 500 LINE"
);
}
);
width = 815;
},
{
layerId = "49567DAC-64C1-4764-83F5-5952E919F015";
width = 607;
}
);
leftKerningGroup = v;
leftMetricsKey = v;
rightKerningGroup = v;
rightMetricsKey = v;
unicode = 0077;
},
{
color = 3;
glyphname = x;
lastChange = "2019-10-09 20:13:29 +0000";
layers = (
{
layerId = "15398AEC-D437-4D9F-8CD1-FC2630A97B3B";
width = 600;
},
{
associatedMasterId = "263FFEFB-F93F-4256-96DD-DB57701D3362";
background = {
paths = (
{
closed = 1;
nodes = (
"295 162 LINE",
"424 360 LINE SMOOTH",
"478 443 OFFCURVE",
"508 484 OFFCURVE",
"553 484 CURVE",
"553 500 LINE",
"339 500 LINE",
"339 484 LINE",
"440 484 OFFCURVE",
"427 419 OFFCURVE",
"380 347 CURVE SMOOTH",
"293 214 LINE"
);
}
);
};
guideLines = (
{
angle = -55.0226;
position = "{136, 395}";
},
{
angle = 118.0725;
position = "{279, 368}";
},
{
angle = 52.6745;
position = "{333, 335}";
},
{
angle = 52.6745;
position = "{378, 348}";
},
{
angle = -55.0226;
position = "{253, 368}";
}
);
layerId = "D4BAC3D7-FFA0-4B8F-A170-568DBA761764";
name = "Oct 9 19, 15:28";
paths = (
{
closed = 1;
nodes = (
"559 0 LINE",
"559 16 LINE",
"517 16 OFFCURVE",
"481 40 OFFCURVE",
"435 105 CURVE SMOOTH",
"251 368 LINE SMOOTH",
"206 432 OFFCURVE",
"204 484 OFFCURVE",
"287 484 CURVE",
"287 500 LINE",
"12 500 LINE",
"12 484 LINE",
"54 484 OFFCURVE",
"87 462 OFFCURVE",
"137 391 CURVE SMOOTH",
"318 132 LINE SMOOTH",
"363 68 OFFCURVE",
"367 16 OFFCURVE",
"284 16 CURVE",
"284 0 LINE"
);
},
{
closed = 1;
nodes = (
"287 249 LINE",
"380 369 LINE SMOOTH",
"442 449 OFFCURVE",
"502 484 OFFCURVE",
"549 484 CURVE",
"549 500 LINE",
"335 500 LINE",
"335 484 LINE",
"415 484 OFFCURVE",
"400 440 OFFCURVE",
"334 356 CURVE SMOOTH",
"273 278 LINE"
);
},
{
closed = 1;
nodes = (
"283 287 LINE",
"190 163 LINE SMOOTH",
"95 36 OFFCURVE",
"67 16 OFFCURVE",
"20 16 CURVE",
"20 0 LINE",
"234 0 LINE",
"234 16 LINE",
"140 16 OFFCURVE",
"160 75 OFFCURVE",
"235 176 CURVE SMOOTH",
"297 259 LINE"
);
}
);
width = 571;
},
{
associatedMasterId = "263FFEFB-F93F-4256-96DD-DB57701D3362";
background = {
paths = (
{
closed = 1;
nodes = (
"292 162 LINE",
"421 360 LINE SMOOTH",
"475 443 OFFCURVE",
"505 484 OFFCURVE",
"550 484 CURVE",
"550 500 LINE",
"336 500 LINE",
"336 484 LINE",
"437 484 OFFCURVE",
"424 419 OFFCURVE",
"377 347 CURVE SMOOTH",
"290 214 LINE"
);
}
);
};
guideLines = (
{
angle = -55.0226;
position = "{248, 368}";
}
);
layerId = "9229DFBC-15A8-43F2-974A-41AE7F759615";
name = "Oct 9 19, 15:38";
paths = (
{
closed = 1;
nodes = (
"302 291 LINE",
"279 243 LINE",
"366 369 LINE SMOOTH",
"424 452 OFFCURVE",
"492 484 OFFCURVE",
"529 484 CURVE",
"529 500 LINE",
"326 500 LINE",
"326 484 LINE",
"407 484 OFFCURVE",
"382 442 OFFCURVE",
"322 354 CURVE SMOOTH",
"263 268 LINE",
"302 291 LINE",
"242 368 LINE SMOOTH",
"194 429 OFFCURVE",
"196 484 OFFCURVE",
"279 484 CURVE",
"279 500 LINE",
"6 500 LINE",
"6 484 LINE",
"55 484 OFFCURVE",
"84 455 OFFCURVE",
"155 357 CURVE SMOOTH",
"249 227 LINE",
"270 270 LINE",
"195 163 LINE SMOOTH",
"104 34 OFFCURVE",
"69 16 OFFCURVE",
"9 16 CURVE",
"9 0 LINE",
"236 0 LINE",
"236 16 LINE",
"142 16 OFFCURVE",
"167 75 OFFCURVE",
"239 177 CURVE SMOOTH",
"288 247 LINE",
"249 227 LINE",
"321 133 LINE SMOOTH",
"369 70 OFFCURVE",
"369 16 OFFCURVE",
"286 16 CURVE",
"286 0 LINE",
"551 0 LINE",
"551 16 LINE",
"508 16 OFFCURVE",
"466 63 OFFCURVE",
"411 139 CURVE SMOOTH"
);
}
);
width = 560;
},
{
background = {
paths = (
{
closed = 1;
nodes = (
"294 162 LINE",
"423 360 LINE SMOOTH",
"477 443 OFFCURVE",
"507 484 OFFCURVE",
"552 484 CURVE",
"552 500 LINE",
"338 500 LINE",
"338 484 LINE",
"439 484 OFFCURVE",
"426 419 OFFCURVE",
"379 347 CURVE SMOOTH",
"292 214 LINE"
);
}
);
};
guideLines = (
{
angle = -53.5859;
position = "{131, 391}";
}
);
layerId = "263FFEFB-F93F-4256-96DD-DB57701D3362";
paths = (
{
closed = 1;
nodes = (
"302 289 LINE",
"286 243 LINE",
"382 369 LINE SMOOTH",
"442 450 OFFCURVE",
"501 484 OFFCURVE",
"537 484 CURVE",
"537 500 LINE",
"336 500 LINE",
"336 484 LINE",
"413 484 OFFCURVE",
"385 421 OFFCURVE",
"343 366 CURVE SMOOTH",
"269 268 LINE",
"301 290 LINE",
"227 392 LINE",
"188 447 OFFCURVE",
"206 484 OFFCURVE",
"281 484 CURVE",
"281 500 LINE",
"8 500 LINE",
"8 484 LINE",
"52 484 OFFCURVE",
"83 458 OFFCURVE",
"133 391 CURVE SMOOTH",
"253 229 LINE",
"270 270 LINE",
"187 163 LINE SMOOTH",
"90 38 OFFCURVE",
"64 16 OFFCURVE",
"4 16 CURVE",
"4 0 LINE",
"231 0 LINE",
"231 16 LINE",
"139 16 OFFCURVE",
"164 89 OFFCURVE",
"224 165 CURVE SMOOTH",
"289 247 LINE",
"255 227 LINE",
"339 110 LINE SMOOTH",
"381 52 OFFCURVE",
"361 16 OFFCURVE",
"285 16 CURVE",
"285 0 LINE",
"560 0 LINE",
"560 16 LINE",
"513 16 OFFCURVE",
"479 50 OFFCURVE",
"438 105 CURVE SMOOTH"
);
}
);
width = 564;
},
{
associatedMasterId = "49567DAC-64C1-4764-83F5-5952E919F015";
background = {
paths = (
{
closed = 1;
nodes = (
"295 162 LINE",
"424 360 LINE SMOOTH",
"478 443 OFFCURVE",
"508 484 OFFCURVE",
"553 484 CURVE",
"553 500 LINE",
"339 500 LINE",
"339 484 LINE",
"440 484 OFFCURVE",
"427 419 OFFCURVE",
"380 347 CURVE SMOOTH",
"293 214 LINE"
);
}
);
};
guideLines = (
{
angle = -55.0226;
position = "{136, 395}";
},
{
angle = 118.0725;
position = "{279, 368}";
},
{
angle = 52.6745;
position = "{333, 335}";
},
{
angle = 52.6745;
position = "{378, 348}";
},
{
angle = -55.0226;
position = "{253, 368}";
}
);
layerId = "CEFFF9D3-5F84-4BB1-BDF2-CF1A8985EE0F";
name = "Oct 9 19, 15:28";
paths = (
{
closed = 1;
nodes = (
"559 0 LINE",
"559 16 LINE",
"517 16 OFFCURVE",
"481 40 OFFCURVE",
"435 105 CURVE SMOOTH",
"251 368 LINE SMOOTH",
"206 432 OFFCURVE",
"204 484 OFFCURVE",
"287 484 CURVE",
"287 500 LINE",
"12 500 LINE",
"12 484 LINE",
"54 484 OFFCURVE",
"87 462 OFFCURVE",
"137 391 CURVE SMOOTH",
"318 132 LINE SMOOTH",
"363 68 OFFCURVE",
"367 16 OFFCURVE",
"284 16 CURVE",
"284 0 LINE"
);
},
{
closed = 1;
nodes = (
"287 249 LINE",
"380 369 LINE SMOOTH",
"442 449 OFFCURVE",
"502 484 OFFCURVE",
"549 484 CURVE",
"549 500 LINE",
"335 500 LINE",
"335 484 LINE",
"415 484 OFFCURVE",
"400 440 OFFCURVE",
"334 356 CURVE SMOOTH",
"273 278 LINE"
);
},
{
closed = 1;
nodes = (
"283 287 LINE",
"190 163 LINE SMOOTH",
"95 36 OFFCURVE",
"67 16 OFFCURVE",
"20 16 CURVE",
"20 0 LINE",
"234 0 LINE",
"234 16 LINE",
"140 16 OFFCURVE",
"160 75 OFFCURVE",
"235 176 CURVE SMOOTH",
"297 259 LINE"
);
}
);
width = 571;
},
{
associatedMasterId = "49567DAC-64C1-4764-83F5-5952E919F015";
background = {
paths = (
{
closed = 1;
nodes = (
"292 162 LINE",
"421 360 LINE SMOOTH",
"475 443 OFFCURVE",
"505 484 OFFCURVE",
"550 484 CURVE",
"550 500 LINE",
"336 500 LINE",
"336 484 LINE",
"437 484 OFFCURVE",
"424 419 OFFCURVE",
"377 347 CURVE SMOOTH",
"290 214 LINE"
);
}
);
};
guideLines = (
{
angle = -55.0226;
position = "{248, 368}";
}
);
layerId = "8C12A50C-C65A-4C24-A8A5-6FC4F81D57DB";
name = "Oct 9 19, 15:38";
paths = (
{
closed = 1;
nodes = (
"302 291 LINE",
"279 243 LINE",
"366 369 LINE SMOOTH",
"424 452 OFFCURVE",
"492 484 OFFCURVE",
"529 484 CURVE",
"529 500 LINE",
"326 500 LINE",
"326 484 LINE",
"407 484 OFFCURVE",
"382 442 OFFCURVE",
"322 354 CURVE SMOOTH",
"263 268 LINE",
"302 291 LINE",
"242 368 LINE SMOOTH",
"194 429 OFFCURVE",
"196 484 OFFCURVE",
"279 484 CURVE",
"279 500 LINE",
"6 500 LINE",
"6 484 LINE",
"55 484 OFFCURVE",
"84 455 OFFCURVE",
"155 357 CURVE SMOOTH",
"249 227 LINE",
"270 270 LINE",
"195 163 LINE SMOOTH",
"104 34 OFFCURVE",
"69 16 OFFCURVE",
"9 16 CURVE",
"9 0 LINE",
"236 0 LINE",
"236 16 LINE",
"142 16 OFFCURVE",
"167 75 OFFCURVE",
"239 177 CURVE SMOOTH",
"288 247 LINE",
"249 227 LINE",
"321 133 LINE SMOOTH",
"369 70 OFFCURVE",
"369 16 OFFCURVE",
"286 16 CURVE",
"286 0 LINE",
"551 0 LINE",
"551 16 LINE",
"508 16 OFFCURVE",
"466 63 OFFCURVE",
"411 139 CURVE SMOOTH"
);
}
);
width = 560;
},
{
background = {
paths = (
{
closed = 1;
nodes = (
"294 162 LINE",
"423 360 LINE SMOOTH",
"477 443 OFFCURVE",
"507 484 OFFCURVE",
"552 484 CURVE",
"552 500 LINE",
"338 500 LINE",
"338 484 LINE",
"439 484 OFFCURVE",
"426 419 OFFCURVE",
"379 347 CURVE SMOOTH",
"292 214 LINE"
);
}
);
};
guideLines = (
{
angle = -53.5859;
position = "{131, 391}";
}
);
layerId = "49567DAC-64C1-4764-83F5-5952E919F015";
paths = (
{
closed = 1;
nodes = (
"302 289 LINE",
"286 243 LINE",
"382 369 LINE SMOOTH",
"442 450 OFFCURVE",
"501 484 OFFCURVE",
"537 484 CURVE",
"537 500 LINE",
"336 500 LINE",
"336 484 LINE",
"413 484 OFFCURVE",
"385 421 OFFCURVE",
"343 366 CURVE SMOOTH",
"269 268 LINE",
"301 290 LINE",
"227 392 LINE",
"188 447 OFFCURVE",
"206 484 OFFCURVE",
"281 484 CURVE",
"281 500 LINE",
"8 500 LINE",
"8 484 LINE",
"52 484 OFFCURVE",
"83 458 OFFCURVE",
"133 391 CURVE SMOOTH",
"253 229 LINE",
"270 270 LINE",
"187 163 LINE SMOOTH",
"90 38 OFFCURVE",
"64 16 OFFCURVE",
"4 16 CURVE",
"4 0 LINE",
"231 0 LINE",
"231 16 LINE",
"139 16 OFFCURVE",
"164 89 OFFCURVE",
"224 165 CURVE SMOOTH",
"289 247 LINE",
"255 227 LINE",
"339 110 LINE SMOOTH",
"381 52 OFFCURVE",
"361 16 OFFCURVE",
"285 16 CURVE",
"285 0 LINE",
"560 0 LINE",
"560 16 LINE",
"513 16 OFFCURVE",
"479 50 OFFCURVE",
"438 105 CURVE SMOOTH"
);
}
);
width = 564;
}
);
leftKerningGroup = x;
rightKerningGroup = x;
unicode = 0078;
},
{
color = 4;
glyphname = y;
lastChange = "2019-10-09 20:13:14 +0000";
layers = (
{
layerId = "15398AEC-D437-4D9F-8CD1-FC2630A97B3B";
width = 600;
},
{
anchors = (
{
name = bottom;
position = "{281, 0}";
},
{
name = top;
position = "{318, 500}";
}
);
layerId = "263FFEFB-F93F-4256-96DD-DB57701D3362";
paths = (
{
closed = 1;
nodes = (
"339 484 LINE",
"440 484 OFFCURVE",
"438 431 OFFCURVE",
"401 327 CURVE SMOOTH",
"297 37 LINE",
"341 89 LINE",
"215 367 LINE SMOOTH",
"179 447 OFFCURVE",
"194 484 OFFCURVE",
"287 484 CURVE",
"287 500 LINE",
"2 500 LINE",
"2 484 LINE",
"45 484 OFFCURVE",
"75 465 OFFCURVE",
"120 370 CURVE SMOOTH",
"293 3 LINE",
"288 27 LINE",
"279 6 LINE SMOOTH",
"211 -152 OFFCURVE",
"179 -184 OFFCURVE",
"109 -184 CURVE",
"109 -200 LINE",
"385 -200 LINE",
"385 -184 LINE",
"264 -184 OFFCURVE",
"258 -131 OFFCURVE",
"304 -16 CURVE SMOOTH",
"454 360 LINE SMOOTH",
"493 458 OFFCURVE",
"510 484 OFFCURVE",
"557 484 CURVE",
"557 500 LINE",
"339 500 LINE"
);
}
);
width = 561;
},
{
anchors = (
{
name = bottom;
position = "{281, 0}";
},
{
name = top;
position = "{318, 500}";
}
);
layerId = "49567DAC-64C1-4764-83F5-5952E919F015";
paths = (
{
closed = 1;
nodes = (
"339 484 LINE",
"440 484 OFFCURVE",
"438 431 OFFCURVE",
"401 327 CURVE SMOOTH",
"297 37 LINE",
"341 89 LINE",
"215 367 LINE SMOOTH",
"179 447 OFFCURVE",
"194 484 OFFCURVE",
"287 484 CURVE",
"287 500 LINE",
"2 500 LINE",
"2 484 LINE",
"45 484 OFFCURVE",
"75 465 OFFCURVE",
"120 370 CURVE SMOOTH",
"293 3 LINE",
"288 27 LINE",
"279 6 LINE SMOOTH",
"211 -152 OFFCURVE",
"179 -184 OFFCURVE",
"109 -184 CURVE",
"109 -200 LINE",
"385 -200 LINE",
"385 -184 LINE",
"264 -184 OFFCURVE",
"258 -131 OFFCURVE",
"304 -16 CURVE SMOOTH",
"454 360 LINE SMOOTH",
"493 458 OFFCURVE",
"510 484 OFFCURVE",
"557 484 CURVE",
"557 500 LINE",
"339 500 LINE"
);
}
);
width = 561;
}
);
leftKerningGroup = y;
rightKerningGroup = y;
unicode = 0079;
},
{
color = 3;
glyphname = z;
lastChange = "2019-10-09 20:13:29 +0000";
layers = (
{
associatedMasterId = "15398AEC-D437-4D9F-8CD1-FC2630A97B3B";
background = {
paths = (
{
closed = 1;
nodes = (
"515 500 LINE",
"416 500 LINE",
"104 5 LINE",
"107 0 LINE",
"202 0 LINE"
);
}
);
};
layerId = "CC614BEB-0BC4-4B47-AADF-D33563CE5E16";
name = "Oct 8 19, 11:49";
width = 600;
},
{
background = {
paths = (
{
closed = 1;
nodes = (
"219 500 LINE",
"40 500 LINE",
"83 285 LINE",
"88 286 LINE",
"73 418 OFFCURVE",
"113 484 OFFCURVE",
"199 484 CURVE"
);
},
{
closed = 1;
nodes = (
"281 0 LINE",
"460 0 LINE",
"407 235 LINE",
"402 234 LINE",
"416 89 OFFCURVE",
"379 16 OFFCURVE",
"301 16 CURVE"
);
},
{
closed = 1;
nodes = (
"219 500 LINE",
"40 500 LINE",
"83 285 LINE",
"88 286 LINE",
"73 418 OFFCURVE",
"113 484 OFFCURVE",
"199 484 CURVE"
);
},
{
closed = 1;
nodes = (
"281 0 LINE",
"460 0 LINE",
"407 235 LINE",
"402 234 LINE",
"416 89 OFFCURVE",
"379 16 OFFCURVE",
"301 16 CURVE"
);
}
);
};
guideLines = (
{
angle = 84.8978;
position = "{415, 0}";
}
);
layerId = "15398AEC-D437-4D9F-8CD1-FC2630A97B3B";
paths = (
{
closed = 1;
nodes = (
"412 484 LINE",
"412 500 LINE",
"83 500 LINE",
"103 484 LINE"
);
},
{
closed = 1;
nodes = (
"113 16 LINE",
"113 0 LINE",
"415 0 LINE",
"415 16 LINE"
);
},
{
closed = 1;
nodes = (
"30 5 LINE",
"34 0 LINE",
"126 0 LINE",
"439 495 LINE",
"436 500 LINE",
"343 500 LINE"
);
},
{
closed = 1;
nodes = (
"256 500 LINE",
"78 500 LINE",
"58 276 LINE",
"63 275 LINE",
"94 429 OFFCURVE",
"153 484 OFFCURVE",
"283 484 CURVE"
);
},
{
closed = 1;
nodes = (
"223 0 LINE",
"415 0 LINE",
"440 283 LINE",
"435 284 LINE",
"404 87 OFFCURVE",
"359 16 OFFCURVE",
"189 16 CURVE"
);
}
);
width = 486;
},
{
background = {
paths = (
{
closed = 1;
nodes = (
"412 484 LINE",
"412 500 LINE",
"83 500 LINE",
"103 484 LINE"
);
},
{
closed = 1;
nodes = (
"113 16 LINE",
"113 0 LINE",
"417 0 LINE",
"417 16 LINE"
);
},
{
closed = 1;
nodes = (
"30 5 LINE",
"34 0 LINE",
"126 0 LINE",
"439 495 LINE",
"436 500 LINE",
"343 500 LINE"
);
},
{
closed = 1;
nodes = (
"256 500 LINE",
"78 500 LINE",
"58 276 LINE",
"63 275 LINE",
"94 429 OFFCURVE",
"153 484 OFFCURVE",
"283 484 CURVE"
);
},
{
closed = 1;
nodes = (
"223 0 LINE",
"417 0 LINE",
"432 233 LINE",
"419 234 LINE",
"400 97 OFFCURVE",
"355 16 OFFCURVE",
"189 16 CURVE"
);
}
);
};
layerId = "263FFEFB-F93F-4256-96DD-DB57701D3362";
paths = (
{
closed = 1;
nodes = (
"415 470 LINE",
"415 500 LINE",
"86 500 LINE",
"106 470 LINE"
);
},
{
closed = 1;
nodes = (
"117 30 LINE",
"117 0 LINE",
"407 0 LINE",
"407 30 LINE"
);
},
{
closed = 1;
nodes = (
"34 5 LINE",
"38 0 LINE",
"130 0 LINE",
"442 495 LINE",
"439 500 LINE",
"346 500 LINE"
);
},
{
closed = 1;
nodes = (
"221 0 LINE",
"415 0 LINE",
"430 233 LINE",
"417 234 LINE",
"398 103 OFFCURVE",
"353 30 OFFCURVE",
"207 30 CURVE"
);
},
{
closed = 1;
nodes = (
"262 500 LINE",
"68 500 LINE",
"53 277 LINE",
"66 276 LINE",
"85 403 OFFCURVE",
"130 470 OFFCURVE",
"276 470 CURVE"
);
}
);
width = 494;
},
{
background = {
paths = (
{
closed = 1;
nodes = (
"412 484 LINE",
"412 500 LINE",
"83 500 LINE",
"103 484 LINE"
);
},
{
closed = 1;
nodes = (
"113 16 LINE",
"113 0 LINE",
"417 0 LINE",
"417 16 LINE"
);
},
{
closed = 1;
nodes = (
"30 5 LINE",
"34 0 LINE",
"126 0 LINE",
"439 495 LINE",
"436 500 LINE",
"343 500 LINE"
);
},
{
closed = 1;
nodes = (
"256 500 LINE",
"78 500 LINE",
"58 276 LINE",
"63 275 LINE",
"94 429 OFFCURVE",
"153 484 OFFCURVE",
"283 484 CURVE"
);
},
{
closed = 1;
nodes = (
"223 0 LINE",
"417 0 LINE",
"432 233 LINE",
"419 234 LINE",
"400 97 OFFCURVE",
"355 16 OFFCURVE",
"189 16 CURVE"
);
}
);
};
layerId = "49567DAC-64C1-4764-83F5-5952E919F015";
paths = (
{
closed = 1;
nodes = (
"415 470 LINE",
"415 500 LINE",
"86 500 LINE",
"106 470 LINE"
);
},
{
closed = 1;
nodes = (
"117 30 LINE",
"117 0 LINE",
"407 0 LINE",
"407 30 LINE"
);
},
{
closed = 1;
nodes = (
"34 5 LINE",
"38 0 LINE",
"130 0 LINE",
"442 495 LINE",
"439 500 LINE",
"346 500 LINE"
);
},
{
closed = 1;
nodes = (
"221 0 LINE",
"415 0 LINE",
"430 233 LINE",
"417 234 LINE",
"398 103 OFFCURVE",
"353 30 OFFCURVE",
"207 30 CURVE"
);
},
{
closed = 1;
nodes = (
"262 500 LINE",
"68 500 LINE",
"53 277 LINE",
"66 276 LINE",
"85 403 OFFCURVE",
"130 470 OFFCURVE",
"276 470 CURVE"
);
}
);
width = 494;
}
);
unicode = 007A;
},
{
glyphname = zero;
lastChange = "2019-10-09 18:22:31 +0000";
layers = (
{
layerId = "15398AEC-D437-4D9F-8CD1-FC2630A97B3B";
width = 936;
},
{
layerId = "263FFEFB-F93F-4256-96DD-DB57701D3362";
paths = (
{
closed = 1;
nodes = (
"42 571 OFFCURVE",
"150 715 OFFCURVE",
"311 715 CURVE SMOOTH",
"472 715 OFFCURVE",
"580 571 OFFCURVE",
"580 352 CURVE SMOOTH",
"580 133 OFFCURVE",
"472 -11 OFFCURVE",
"311 -11 CURVE SMOOTH",
"150 -11 OFFCURVE",
"42 133 OFFCURVE",
"42 352 CURVE SMOOTH"
);
},
{
closed = 1;
nodes = (
"484 555 OFFCURVE",
"420 673 OFFCURVE",
"311 673 CURVE SMOOTH",
"202 673 OFFCURVE",
"138 555 OFFCURVE",
"138 352 CURVE SMOOTH",
"138 150 OFFCURVE",
"202 31 OFFCURVE",
"311 31 CURVE SMOOTH",
"420 31 OFFCURVE",
"484 150 OFFCURVE",
"484 352 CURVE SMOOTH"
);
}
);
width = 622;
},
{
layerId = "49567DAC-64C1-4764-83F5-5952E919F015";
paths = (
{
closed = 1;
nodes = (
"42 571 OFFCURVE",
"150 715 OFFCURVE",
"311 715 CURVE SMOOTH",
"472 715 OFFCURVE",
"580 571 OFFCURVE",
"580 352 CURVE SMOOTH",
"580 133 OFFCURVE",
"472 -11 OFFCURVE",
"311 -11 CURVE SMOOTH",
"150 -11 OFFCURVE",
"42 133 OFFCURVE",
"42 352 CURVE SMOOTH"
);
},
{
closed = 1;
nodes = (
"484 555 OFFCURVE",
"420 673 OFFCURVE",
"311 673 CURVE SMOOTH",
"202 673 OFFCURVE",
"138 555 OFFCURVE",
"138 352 CURVE SMOOTH",
"138 150 OFFCURVE",
"202 31 OFFCURVE",
"311 31 CURVE SMOOTH",
"420 31 OFFCURVE",
"484 150 OFFCURVE",
"484 352 CURVE SMOOTH"
);
}
);
width = 622;
}
);
leftMetricsKey = o;
rightMetricsKey = o;
unicode = 0030;
},
{
glyphname = one;
lastChange = "2019-10-09 18:22:31 +0000";
layers = (
{
layerId = "15398AEC-D437-4D9F-8CD1-FC2630A97B3B";
width = 600;
},
{
layerId = "263FFEFB-F93F-4256-96DD-DB57701D3362";
paths = (
{
closed = 1;
nodes = (
"417 0 LINE",
"417 16 LINE",
"370 16 OFFCURVE",
"336 40 OFFCURVE",
"336 105 CURVE SMOOTH",
"336 500 LINE",
"250 500 LINE",
"250 103 LINE SMOOTH",
"250 40 OFFCURVE",
"210 16 OFFCURVE",
"159 16 CURVE",
"159 0 LINE"
);
}
);
width = 608;
},
{
layerId = "49567DAC-64C1-4764-83F5-5952E919F015";
paths = (
{
closed = 1;
nodes = (
"417 0 LINE",
"417 16 LINE",
"370 16 OFFCURVE",
"336 40 OFFCURVE",
"336 105 CURVE SMOOTH",
"336 500 LINE",
"250 500 LINE",
"250 103 LINE SMOOTH",
"250 40 OFFCURVE",
"210 16 OFFCURVE",
"159 16 CURVE",
"159 0 LINE"
);
}
);
width = 608;
}
);
unicode = 0031;
},
{
glyphname = two;
lastChange = "2019-10-09 18:22:31 +0000";
layers = (
{
layerId = "15398AEC-D437-4D9F-8CD1-FC2630A97B3B";
width = 600;
},
{
background = {
paths = (
{
closed = 1;
nodes = (
"49 5 LINE",
"53 0 LINE",
"145 0 LINE",
"457 495 LINE",
"454 500 LINE",
"361 500 LINE"
);
},
{
closed = 1;
nodes = (
"206 0 LINE",
"400 0 LINE",
"415 233 LINE",
"402 234 LINE",
"383 97 OFFCURVE",
"338 16 OFFCURVE",
"192 16 CURVE"
);
}
);
};
layerId = "263FFEFB-F93F-4256-96DD-DB57701D3362";
paths = (
{
closed = 1;
nodes = (
"114 80 LINE",
"38 0 LINE",
"472 0 LINE",
"489 273 LINE",
"475 274 LINE",
"456 150 OFFCURVE",
"412 80 OFFCURVE",
"266 80 CURVE"
);
},
{
closed = 1;
nodes = (
"38 0 LINE",
"125 60 LINE",
"363 288 OFFCURVE",
"482 402 OFFCURVE",
"482 538 CURVE SMOOTH",
"482 664 OFFCURVE",
"381 712 OFFCURVE",
"275 712 CURVE SMOOTH",
"191 712 OFFCURVE",
"128 682 OFFCURVE",
"61 615 CURVE",
"139 370 LINE",
"154 373 LINE",
"106 558 OFFCURVE",
"164 672 OFFCURVE",
"269 672 CURVE SMOOTH",
"336 672 OFFCURVE",
"386 626 OFFCURVE",
"386 528 CURVE SMOOTH",
"386 407 OFFCURVE",
"308 316 OFFCURVE",
"190 182 CURVE SMOOTH",
"34 5 LINE"
);
}
);
width = 523;
},
{
associatedMasterId = "263FFEFB-F93F-4256-96DD-DB57701D3362";
background = {
paths = (
{
closed = 1;
nodes = (
"90 5 LINE",
"94 0 LINE",
"186 0 LINE",
"498 495 LINE",
"495 500 LINE",
"402 500 LINE"
);
},
{
closed = 1;
nodes = (
"247 0 LINE",
"441 0 LINE",
"456 233 LINE",
"443 234 LINE",
"424 97 OFFCURVE",
"379 16 OFFCURVE",
"233 16 CURVE"
);
}
);
};
layerId = "FB48C887-1724-4EF7-BF80-B07B406649B9";
name = "Oct 8 19, 22:43";
paths = (
{
closed = 1;
nodes = (
"151 75 LINE",
"75 0 LINE",
"509 0 LINE",
"526 273 LINE",
"512 274 LINE",
"493 150 OFFCURVE",
"449 75 OFFCURVE",
"303 75 CURVE"
);
},
{
closed = 1;
nodes = (
"75 0 LINE",
"163 59 LINE",
"399 261 OFFCURVE",
"506 412 OFFCURVE",
"506 545 CURVE SMOOTH",
"506 674 OFFCURVE",
"404 712 OFFCURVE",
"297 712 CURVE SMOOTH",
"194 712 OFFCURVE",
"141 677 OFFCURVE",
"98 635 CURVE",
"176 390 LINE",
"191 393 LINE",
"143 578 OFFCURVE",
"191 672 OFFCURVE",
"294 672 CURVE SMOOTH",
"358 672 OFFCURVE",
"414 636 OFFCURVE",
"414 529 CURVE SMOOTH",
"414 417 OFFCURVE",
"354 296 OFFCURVE",
"232 170 CURVE SMOOTH",
"71 5 LINE"
);
}
);
width = 600;
},
{
background = {
paths = (
{
closed = 1;
nodes = (
"49 5 LINE",
"53 0 LINE",
"145 0 LINE",
"457 495 LINE",
"454 500 LINE",
"361 500 LINE"
);
},
{
closed = 1;
nodes = (
"206 0 LINE",
"400 0 LINE",
"415 233 LINE",
"402 234 LINE",
"383 97 OFFCURVE",
"338 16 OFFCURVE",
"192 16 CURVE"
);
}
);
};
layerId = "49567DAC-64C1-4764-83F5-5952E919F015";
paths = (
{
closed = 1;
nodes = (
"114 80 LINE",
"38 0 LINE",
"472 0 LINE",
"489 273 LINE",
"475 274 LINE",
"456 150 OFFCURVE",
"412 80 OFFCURVE",
"266 80 CURVE"
);
},
{
closed = 1;
nodes = (
"38 0 LINE",
"125 60 LINE",
"363 288 OFFCURVE",
"482 402 OFFCURVE",
"482 538 CURVE SMOOTH",
"482 664 OFFCURVE",
"381 712 OFFCURVE",
"275 712 CURVE SMOOTH",
"191 712 OFFCURVE",
"128 682 OFFCURVE",
"61 615 CURVE",
"139 370 LINE",
"154 373 LINE",
"106 558 OFFCURVE",
"164 672 OFFCURVE",
"269 672 CURVE SMOOTH",
"336 672 OFFCURVE",
"386 626 OFFCURVE",
"386 528 CURVE SMOOTH",
"386 407 OFFCURVE",
"308 316 OFFCURVE",
"190 182 CURVE SMOOTH",
"34 5 LINE"
);
}
);
width = 523;
},
{
associatedMasterId = "49567DAC-64C1-4764-83F5-5952E919F015";
background = {
paths = (
{
closed = 1;
nodes = (
"90 5 LINE",
"94 0 LINE",
"186 0 LINE",
"498 495 LINE",
"495 500 LINE",
"402 500 LINE"
);
},
{
closed = 1;
nodes = (
"247 0 LINE",
"441 0 LINE",
"456 233 LINE",
"443 234 LINE",
"424 97 OFFCURVE",
"379 16 OFFCURVE",
"233 16 CURVE"
);
}
);
};
layerId = "89B61D5D-1D0A-4BFB-B89B-9DA28C4FD8A6";
name = "Oct 8 19, 22:43";
paths = (
{
closed = 1;
nodes = (
"151 75 LINE",
"75 0 LINE",
"509 0 LINE",
"526 273 LINE",
"512 274 LINE",
"493 150 OFFCURVE",
"449 75 OFFCURVE",
"303 75 CURVE"
);
},
{
closed = 1;
nodes = (
"75 0 LINE",
"163 59 LINE",
"399 261 OFFCURVE",
"506 412 OFFCURVE",
"506 545 CURVE SMOOTH",
"506 674 OFFCURVE",
"404 712 OFFCURVE",
"297 712 CURVE SMOOTH",
"194 712 OFFCURVE",
"141 677 OFFCURVE",
"98 635 CURVE",
"176 390 LINE",
"191 393 LINE",
"143 578 OFFCURVE",
"191 672 OFFCURVE",
"294 672 CURVE SMOOTH",
"358 672 OFFCURVE",
"414 636 OFFCURVE",
"414 529 CURVE SMOOTH",
"414 417 OFFCURVE",
"354 296 OFFCURVE",
"232 170 CURVE SMOOTH",
"71 5 LINE"
);
}
);
width = 600;
}
);
unicode = 0032;
},
{
glyphname = seven;
lastChange = "2019-10-09 18:22:31 +0000";
layers = (
{
layerId = "15398AEC-D437-4D9F-8CD1-FC2630A97B3B";
width = 600;
},
{
layerId = "263FFEFB-F93F-4256-96DD-DB57701D3362";
paths = (
{
closed = 1;
nodes = (
"436 632 LINE",
"495 712 LINE",
"51 712 LINE",
"34 399 LINE",
"48 398 LINE",
"69 582 OFFCURVE",
"118 632 OFFCURVE",
"277 632 CURVE SMOOTH"
);
},
{
closed = 1;
nodes = (
"495 712 LINE",
"446 652 LINE",
"126 0 LINE",
"249 0 LINE",
"499 707 LINE"
);
}
);
width = 533;
},
{
layerId = "49567DAC-64C1-4764-83F5-5952E919F015";
paths = (
{
closed = 1;
nodes = (
"436 632 LINE",
"495 712 LINE",
"51 712 LINE",
"34 399 LINE",
"48 398 LINE",
"69 582 OFFCURVE",
"118 632 OFFCURVE",
"277 632 CURVE SMOOTH"
);
},
{
closed = 1;
nodes = (
"495 712 LINE",
"446 652 LINE",
"126 0 LINE",
"249 0 LINE",
"499 707 LINE"
);
}
);
width = 533;
}
);
unicode = 0037;
},
{
glyphname = period;
lastChange = "2019-10-09 18:22:31 +0000";
layers = (
{
layerId = "15398AEC-D437-4D9F-8CD1-FC2630A97B3B";
width = 600;
},
{
layerId = "263FFEFB-F93F-4256-96DD-DB57701D3362";
paths = (
{
closed = 1;
nodes = (
"145 -2 OFFCURVE",
"171 25 OFFCURVE",
"171 60 CURVE SMOOTH",
"171 94 OFFCURVE",
"145 121 OFFCURVE",
"113 121 CURVE SMOOTH",
"80 121 OFFCURVE",
"54 94 OFFCURVE",
"54 60 CURVE SMOOTH",
"54 25 OFFCURVE",
"80 -2 OFFCURVE",
"113 -2 CURVE SMOOTH"
);
}
);
width = 225;
},
{
layerId = "49567DAC-64C1-4764-83F5-5952E919F015";
paths = (
{
closed = 1;
nodes = (
"145 -2 OFFCURVE",
"171 25 OFFCURVE",
"171 60 CURVE SMOOTH",
"171 94 OFFCURVE",
"145 121 OFFCURVE",
"113 121 CURVE SMOOTH",
"80 121 OFFCURVE",
"54 94 OFFCURVE",
"54 60 CURVE SMOOTH",
"54 25 OFFCURVE",
"80 -2 OFFCURVE",
"113 -2 CURVE SMOOTH"
);
}
);
width = 225;
}
);
unicode = 002E;
},
{
glyphname = comma;
lastChange = "2019-10-09 18:22:31 +0000";
layers = (
{
layerId = "15398AEC-D437-4D9F-8CD1-FC2630A97B3B";
width = 600;
},
{
background = {
paths = (
{
closed = 1;
nodes = (
"109 -2 OFFCURVE",
"125 7 OFFCURVE",
"136 20 CURVE SMOOTH",
"144 31 OFFCURVE",
"149 45 OFFCURVE",
"149 60 CURVE SMOOTH",
"149 94 OFFCURVE",
"123 121 OFFCURVE",
"91 121 CURVE SMOOTH",
"58 121 OFFCURVE",
"32 94 OFFCURVE",
"32 60 CURVE SMOOTH",
"32 25 OFFCURVE",
"58 -2 OFFCURVE",
"91 -2 CURVE SMOOTH"
);
}
);
};
layerId = "263FFEFB-F93F-4256-96DD-DB57701D3362";
paths = (
{
closed = 1;
nodes = (
"59 118 OFFCURVE",
"34 95 OFFCURVE",
"34 60 CURVE SMOOTH",
"34 26 OFFCURVE",
"58 0 OFFCURVE",
"90 0 CURVE SMOOTH",
"109 0 OFFCURVE",
"126 9 OFFCURVE",
"135 23 CURVE",
"112 41 LINE SMOOTH",
"120 -33 OFFCURVE",
"90 -71 OFFCURVE",
"47 -87 CURVE",
"50 -101 LINE",
"98 -88 OFFCURVE",
"149 -49 OFFCURVE",
"149 36 CURVE SMOOTH",
"149 90 OFFCURVE",
"126 118 OFFCURVE",
"91 118 CURVE SMOOTH"
);
}
);
width = 183;
},
{
background = {
paths = (
{
closed = 1;
nodes = (
"109 -2 OFFCURVE",
"125 7 OFFCURVE",
"136 20 CURVE SMOOTH",
"144 31 OFFCURVE",
"149 45 OFFCURVE",
"149 60 CURVE SMOOTH",
"149 94 OFFCURVE",
"123 121 OFFCURVE",
"91 121 CURVE SMOOTH",
"58 121 OFFCURVE",
"32 94 OFFCURVE",
"32 60 CURVE SMOOTH",
"32 25 OFFCURVE",
"58 -2 OFFCURVE",
"91 -2 CURVE SMOOTH"
);
}
);
};
layerId = "49567DAC-64C1-4764-83F5-5952E919F015";
paths = (
{
closed = 1;
nodes = (
"59 118 OFFCURVE",
"34 95 OFFCURVE",
"34 60 CURVE SMOOTH",
"34 26 OFFCURVE",
"58 0 OFFCURVE",
"90 0 CURVE SMOOTH",
"109 0 OFFCURVE",
"126 9 OFFCURVE",
"135 23 CURVE",
"112 41 LINE SMOOTH",
"120 -33 OFFCURVE",
"90 -71 OFFCURVE",
"47 -87 CURVE",
"50 -101 LINE",
"98 -88 OFFCURVE",
"149 -49 OFFCURVE",
"149 36 CURVE SMOOTH",
"149 90 OFFCURVE",
"126 118 OFFCURVE",
"91 118 CURVE SMOOTH"
);
}
);
width = 183;
}
);
unicode = 002C;
},
{
glyphname = semicolon;
lastChange = "2019-10-09 18:22:31 +0000";
layers = (
{
layerId = "15398AEC-D437-4D9F-8CD1-FC2630A97B3B";
width = 600;
},
{
background = {
components = (
{
name = colon;
transform = "{1, 0, 0, 1, -20, 0}";
}
);
};
components = (
{
name = period;
transform = "{1, 0, 0, 1, -20, 312}";
}
);
layerId = "263FFEFB-F93F-4256-96DD-DB57701D3362";
paths = (
{
closed = 1;
nodes = (
"60 118 OFFCURVE",
"34 95 OFFCURVE",
"34 60 CURVE SMOOTH",
"34 26 OFFCURVE",
"58 0 OFFCURVE",
"91 0 CURVE SMOOTH",
"109 0 OFFCURVE",
"126 9 OFFCURVE",
"135 23 CURVE",
"114 41 LINE",
"132 -34 OFFCURVE",
"91 -72 OFFCURVE",
"47 -87 CURVE",
"50 -101 LINE",
"98 -88 OFFCURVE",
"149 -51 OFFCURVE",
"149 35 CURVE SMOOTH",
"149 88 OFFCURVE",
"129 118 OFFCURVE",
"92 118 CURVE SMOOTH"
);
}
);
width = 185;
},
{
background = {
components = (
{
name = colon;
transform = "{1, 0, 0, 1, -20, 0}";
}
);
};
components = (
{
name = period;
transform = "{1, 0, 0, 1, -20, 312}";
}
);
layerId = "49567DAC-64C1-4764-83F5-5952E919F015";
paths = (
{
closed = 1;
nodes = (
"60 118 OFFCURVE",
"34 95 OFFCURVE",
"34 60 CURVE SMOOTH",
"34 26 OFFCURVE",
"58 0 OFFCURVE",
"91 0 CURVE SMOOTH",
"109 0 OFFCURVE",
"126 9 OFFCURVE",
"135 23 CURVE",
"114 41 LINE",
"132 -34 OFFCURVE",
"91 -72 OFFCURVE",
"47 -87 CURVE",
"50 -101 LINE",
"98 -88 OFFCURVE",
"149 -51 OFFCURVE",
"149 35 CURVE SMOOTH",
"149 88 OFFCURVE",
"129 118 OFFCURVE",
"92 118 CURVE SMOOTH"
);
}
);
width = 185;
}
);
unicode = 003B;
},
{
glyphname = parenleft;
lastChange = "2019-10-09 18:22:31 +0000";
layers = (
{
layerId = "15398AEC-D437-4D9F-8CD1-FC2630A97B3B";
width = 600;
},
{
layerId = "263FFEFB-F93F-4256-96DD-DB57701D3362";
paths = (
{
closed = 1;
nodes = (
"282 -120 LINE",
"198 -85 OFFCURVE",
"138 83 OFFCURVE",
"138 250 CURVE SMOOTH",
"138 417 OFFCURVE",
"198 585 OFFCURVE",
"282 620 CURVE",
"278 632 LINE",
"140 590 OFFCURVE",
"46 418 OFFCURVE",
"46 250 CURVE SMOOTH",
"46 82 OFFCURVE",
"140 -90 OFFCURVE",
"278 -132 CURVE"
);
}
);
width = 282;
},
{
layerId = "49567DAC-64C1-4764-83F5-5952E919F015";
paths = (
{
closed = 1;
nodes = (
"282 -120 LINE",
"198 -85 OFFCURVE",
"138 83 OFFCURVE",
"138 250 CURVE SMOOTH",
"138 417 OFFCURVE",
"198 585 OFFCURVE",
"282 620 CURVE",
"278 632 LINE",
"140 590 OFFCURVE",
"46 418 OFFCURVE",
"46 250 CURVE SMOOTH",
"46 82 OFFCURVE",
"140 -90 OFFCURVE",
"278 -132 CURVE"
);
}
);
width = 282;
}
);
unicode = 0028;
},
{
glyphname = guilsinglleft;
lastChange = "2019-10-09 18:22:31 +0000";
layers = (
{
layerId = "15398AEC-D437-4D9F-8CD1-FC2630A97B3B";
width = 600;
},
{
layerId = "263FFEFB-F93F-4256-96DD-DB57701D3362";
paths = (
{
closed = 1;
nodes = (
"287 58 LINE",
"103 262 LINE",
"20 249 LINE",
"20 243 LINE",
"279 47 LINE"
);
},
{
closed = 1;
nodes = (
"20 249 LINE",
"20 243 LINE",
"103 230 LINE",
"287 434 LINE",
"279 445 LINE"
);
}
);
width = 291;
},
{
layerId = "49567DAC-64C1-4764-83F5-5952E919F015";
paths = (
{
closed = 1;
nodes = (
"287 58 LINE",
"103 262 LINE",
"20 249 LINE",
"20 243 LINE",
"279 47 LINE"
);
},
{
closed = 1;
nodes = (
"20 249 LINE",
"20 243 LINE",
"103 230 LINE",
"287 434 LINE",
"279 445 LINE"
);
}
);
width = 291;
}
);
unicode = 2039;
},
{
glyphname = dieresiscomb;
lastChange = "2019-10-09 19:51:03 +0000";
layers = (
{
layerId = "15398AEC-D437-4D9F-8CD1-FC2630A97B3B";
width = 600;
},
{
anchors = (
{
name = _top;
position = "{194, 500}";
},
{
name = top;
position = "{194, 722}";
}
);
layerId = "263FFEFB-F93F-4256-96DD-DB57701D3362";
paths = (
{
closed = 1;
nodes = (
"124 591 OFFCURVE",
"147 616 OFFCURVE",
"147 647 CURVE SMOOTH",
"147 678 OFFCURVE",
"124 702 OFFCURVE",
"94 702 CURVE SMOOTH",
"64 702 OFFCURVE",
"40 678 OFFCURVE",
"40 647 CURVE SMOOTH",
"40 616 OFFCURVE",
"64 591 OFFCURVE",
"94 591 CURVE SMOOTH"
);
},
{
closed = 1;
nodes = (
"324 591 OFFCURVE",
"347 616 OFFCURVE",
"347 647 CURVE SMOOTH",
"347 678 OFFCURVE",
"324 702 OFFCURVE",
"294 702 CURVE SMOOTH",
"264 702 OFFCURVE",
"240 678 OFFCURVE",
"240 647 CURVE SMOOTH",
"240 616 OFFCURVE",
"264 591 OFFCURVE",
"294 591 CURVE SMOOTH"
);
}
);
width = 600;
},
{
anchors = (
{
name = _top;
position = "{194, 500}";
},
{
name = top;
position = "{194, 722}";
}
);
layerId = "49567DAC-64C1-4764-83F5-5952E919F015";
paths = (
{
closed = 1;
nodes = (
"124 611 OFFCURVE",
"147 636 OFFCURVE",
"147 667 CURVE SMOOTH",
"147 698 OFFCURVE",
"124 722 OFFCURVE",
"94 722 CURVE SMOOTH",
"64 722 OFFCURVE",
"40 698 OFFCURVE",
"40 667 CURVE SMOOTH",
"40 636 OFFCURVE",
"64 611 OFFCURVE",
"94 611 CURVE SMOOTH"
);
},
{
closed = 1;
nodes = (
"324 611 OFFCURVE",
"347 636 OFFCURVE",
"347 667 CURVE SMOOTH",
"347 698 OFFCURVE",
"324 722 OFFCURVE",
"294 722 CURVE SMOOTH",
"264 722 OFFCURVE",
"240 698 OFFCURVE",
"240 667 CURVE SMOOTH",
"240 636 OFFCURVE",
"264 611 OFFCURVE",
"294 611 CURVE SMOOTH"
);
}
);
width = 600;
}
);
unicode = 0308;
},
{
glyphname = dotaccentcomb;
lastChange = "2019-10-09 18:22:31 +0000";
layers = (
{
anchors = (
{
name = _top;
position = "{142, 500}";
},
{
name = top;
position = "{142, 732}";
}
);
layerId = "15398AEC-D437-4D9F-8CD1-FC2630A97B3B";
paths = (
{
closed = 1;
nodes = (
"172 621 OFFCURVE",
"197 646 OFFCURVE",
"197 677 CURVE SMOOTH",
"197 707 OFFCURVE",
"172 732 OFFCURVE",
"142 732 CURVE SMOOTH",
"111 732 OFFCURVE",
"86 707 OFFCURVE",
"86 677 CURVE SMOOTH",
"86 646 OFFCURVE",
"111 621 OFFCURVE",
"142 621 CURVE SMOOTH"
);
}
);
width = 276;
},
{
anchors = (
{
name = _top;
position = "{94, 500}";
},
{
name = top;
position = "{94, 732}";
}
);
layerId = "263FFEFB-F93F-4256-96DD-DB57701D3362";
paths = (
{
closed = 1;
nodes = (
"123 611 OFFCURVE",
"147 637 OFFCURVE",
"147 667 CURVE SMOOTH",
"147 698 OFFCURVE",
"124 722 OFFCURVE",
"94 722 CURVE SMOOTH",
"64 722 OFFCURVE",
"40 698 OFFCURVE",
"40 667 CURVE SMOOTH",
"40 636 OFFCURVE",
"64 611 OFFCURVE",
"94 611 CURVE SMOOTH"
);
}
);
width = 187;
},
{
anchors = (
{
name = _top;
position = "{94, 500}";
},
{
name = top;
position = "{94, 732}";
}
);
layerId = "49567DAC-64C1-4764-83F5-5952E919F015";
paths = (
{
closed = 1;
nodes = (
"123 611 OFFCURVE",
"147 637 OFFCURVE",
"147 667 CURVE SMOOTH",
"147 698 OFFCURVE",
"124 722 OFFCURVE",
"94 722 CURVE SMOOTH",
"64 722 OFFCURVE",
"40 698 OFFCURVE",
"40 667 CURVE SMOOTH",
"40 636 OFFCURVE",
"64 611 OFFCURVE",
"94 611 CURVE SMOOTH"
);
}
);
width = 187;
}
);
unicode = 0307;
},
{
glyphname = gravecomb;
lastChange = "2019-10-09 18:22:31 +0000";
layers = (
{
layerId = "15398AEC-D437-4D9F-8CD1-FC2630A97B3B";
width = 600;
},
{
anchors = (
{
name = _top;
position = "{323, 500}";
},
{
name = top;
position = "{323, 732}";
}
);
layerId = "263FFEFB-F93F-4256-96DD-DB57701D3362";
paths = (
{
closed = 1;
nodes = (
"358 561 LINE",
"215 729 LINE",
"321 732 LINE",
"370 569 LINE"
);
}
);
width = 600;
},
{
anchors = (
{
name = _top;
position = "{323, 500}";
},
{
name = top;
position = "{323, 732}";
}
);
layerId = "49567DAC-64C1-4764-83F5-5952E919F015";
paths = (
{
closed = 1;
nodes = (
"358 561 LINE",
"215 729 LINE",
"321 732 LINE",
"370 569 LINE"
);
}
);
width = 600;
}
);
unicode = 0300;
},
{
glyphname = acutecomb;
lastChange = "2019-10-09 18:22:31 +0000";
layers = (
{
layerId = "15398AEC-D437-4D9F-8CD1-FC2630A97B3B";
width = 600;
},
{
anchors = (
{
name = _top;
position = "{250, 500}";
},
{
name = top;
position = "{250, 722}";
}
);
layerId = "263FFEFB-F93F-4256-96DD-DB57701D3362";
paths = (
{
closed = 1;
nodes = (
"277 722 LINE",
"390 719 LINE",
"222 551 LINE",
"210 559 LINE"
);
}
);
width = 600;
},
{
anchors = (
{
name = _top;
position = "{250, 500}";
},
{
name = top;
position = "{250, 722}";
}
);
layerId = "49567DAC-64C1-4764-83F5-5952E919F015";
paths = (
{
closed = 1;
nodes = (
"277 722 LINE",
"390 719 LINE",
"222 551 LINE",
"210 559 LINE"
);
}
);
width = 600;
}
);
unicode = 0301;
},
{
glyphname = circumflexcomb;
lastChange = "2019-10-09 18:22:31 +0000";
layers = (
{
layerId = "15398AEC-D437-4D9F-8CD1-FC2630A97B3B";
width = 600;
},
{
anchors = (
{
name = _top;
position = "{249, 500}";
},
{
name = top;
position = "{249, 732}";
}
);
layerId = "263FFEFB-F93F-4256-96DD-DB57701D3362";
paths = (
{
closed = 1;
nodes = (
"109 551 LINE",
"265 652 LINE",
"252 732 LINE",
"246 732 LINE",
"100 560 LINE"
);
},
{
closed = 1;
nodes = (
"252 732 LINE",
"246 732 LINE",
"233 652 LINE",
"389 551 LINE",
"398 560 LINE"
);
}
);
width = 600;
},
{
anchors = (
{
name = _top;
position = "{249, 500}";
},
{
name = top;
position = "{249, 732}";
}
);
layerId = "49567DAC-64C1-4764-83F5-5952E919F015";
paths = (
{
closed = 1;
nodes = (
"109 551 LINE",
"265 652 LINE",
"252 732 LINE",
"246 732 LINE",
"100 560 LINE"
);
},
{
closed = 1;
nodes = (
"252 732 LINE",
"246 732 LINE",
"233 652 LINE",
"389 551 LINE",
"398 560 LINE"
);
}
);
width = 600;
}
);
unicode = 0302;
},
{
glyphname = sortie_qb;
lastChange = "2019-10-09 18:22:31 +0000";
layers = (
{
layerId = "15398AEC-D437-4D9F-8CD1-FC2630A97B3B";
paths = (
{
closed = 1;
nodes = (
"490 385 LINE",
"490 512 LINE",
"484 512 LINE",
"404 390 LINE",
"404 385 LINE"
);
}
);
width = 600;
},
{
layerId = "263FFEFB-F93F-4256-96DD-DB57701D3362";
paths = (
{
closed = 1;
nodes = (
"494 385 LINE",
"494 509 LINE",
"488 509 LINE",
"408 423 LINE",
"408 418 LINE"
);
}
);
width = 608;
},
{
layerId = "49567DAC-64C1-4764-83F5-5952E919F015";
paths = (
{
closed = 1;
nodes = (
"494 385 LINE",
"494 509 LINE",
"488 509 LINE",
"408 423 LINE",
"408 418 LINE"
);
}
);
width = 608;
}
);
},
